<svg width="0" height="0" class="hidden">
  <symbol xmlns="http://www.w3.org/2000/svg" viewBox="0 0 105 20" id="create">
    <path d="M0 10.1008C0 4.00078 3.3 0.300781 8.7 0.300781C12.8 0.300781 16.1 2.80078 16.7 6.50078C16.8 6.90078 16.5 7.20078 16.1 7.20078H13.5C13.2 7.20078 13 7.00078 12.9 6.70078C12.4 4.80078 10.8 3.60078 8.7 3.60078C5.8 3.60078 4 6.10078 4 10.1008C4 14.1008 5.8 16.6008 8.8 16.6008C10.9 16.6008 12.4 15.5008 13 13.7008C13.1 13.4008 13.3 13.2008 13.6 13.2008H16.2C16.6 13.2008 16.9 13.6008 16.8 13.9008C16.2 17.5008 13 19.9008 8.8 19.9008C3.3 19.9008 0 16.1008 0 10.1008Z"></path>
    <path d="M24.2997 19.401H21.3997C21.0997 19.401 20.8997 19.201 20.8997 18.901V1.60104C20.8997 1.20104 21.2997 0.801038 21.6997 0.801038H28.6997C32.7997 0.801038 35.2997 3.10104 35.2997 6.70104C35.2997 8.80104 34.2997 10.701 32.5997 11.701C32.1997 11.901 32.0997 12.401 32.2997 12.701L35.3997 18.601C35.5997 18.901 35.2997 19.301 34.9997 19.301H31.6997C31.4997 19.301 31.2997 19.201 31.1997 19.001L28.2997 13.001C28.1997 12.701 27.8997 12.601 27.5997 12.601H25.2997C24.9997 12.601 24.7997 12.801 24.7997 13.101V19.001C24.8997 19.201 24.5997 19.401 24.2997 19.401ZM24.8997 9.20104C24.8997 9.50104 25.0997 9.70104 25.3997 9.70104H28.3997C30.3997 9.70104 31.4997 8.60104 31.4997 6.80104C31.4997 5.00104 30.2997 3.90104 28.3997 3.90104H25.4997C25.1997 3.90104 24.9997 4.10104 24.9997 4.40104V9.20104H24.8997Z"></path>
    <path d="M51.4998 19.401H40.4998C40.0998 19.401 39.7998 19.101 39.7998 18.701V1.50104C39.7998 1.10104 40.0998 0.801038 40.4998 0.801038H51.4998C51.8998 0.801038 52.1998 1.10104 52.1998 1.50104V3.40104C52.1998 3.80104 51.8998 4.10104 51.4998 4.10104H44.1998C43.8998 4.10104 43.6998 4.30104 43.6998 4.60104V8.00104C43.6998 8.30104 43.8998 8.50104 44.1998 8.50104H50.9998C51.3998 8.50104 51.6998 8.80104 51.6998 9.20104V10.901C51.6998 11.301 51.3998 11.601 50.9998 11.601H44.1998C43.8998 11.601 43.6998 11.801 43.6998 12.101V15.901C43.6998 16.201 43.8998 16.401 44.1998 16.401H51.4998C51.8998 16.401 52.1998 16.701 52.1998 17.101V19.001C52.1998 19.101 51.8998 19.401 51.4998 19.401Z"></path>
    <path d="M66.9999 14.901H61.2999C60.9999 14.901 60.7999 15.101 60.6999 15.301L59.5999 19.001C59.4999 19.301 59.2999 19.401 58.9999 19.401H56.3999C55.9999 19.401 55.6999 19.001 55.7999 18.601L61.7999 1.20104C61.8999 1.00104 62.0999 0.801038 62.3999 0.801038H66.0999C66.3999 0.801038 66.5999 1.00104 66.6999 1.20104L72.6999 18.601C72.7999 19.001 72.4999 19.401 72.0999 19.401H69.1999C68.8999 19.401 68.6999 19.201 68.5999 19.001L67.4999 15.301C67.4999 15.101 67.1999 14.901 66.9999 14.901ZM62.0999 12.001H66.1999C66.3999 12.001 66.4999 11.801 66.4999 11.601L64.2999 4.60104H64.0999L61.8999 11.601C61.7999 11.801 61.8999 12.001 62.0999 12.001Z"></path>
    <path d="M79.0001 18.7014V4.50143C79.0001 4.20143 78.8001 4.00143 78.5001 4.00143H74.1001C73.7001 4.00143 73.3001 3.70143 73.3001 3.20143V1.50143C73.3001 1.10143 73.6001 0.701427 74.1001 0.701427H87.7001C88.1001 0.701427 88.5001 1.00143 88.5001 1.50143V3.20143C88.5001 3.60143 88.2001 4.00143 87.7001 4.00143H83.3001C83.0001 4.00143 82.8001 4.20143 82.8001 4.50143V18.8014C82.8001 19.2014 82.5001 19.5014 82.1001 19.5014H79.6001C79.3001 19.4014 79.0001 19.1014 79.0001 18.7014Z"  ></path>
    <path d="M103.8 19.401H92.7999C92.3999 19.401 92.0999 19.101 92.0999 18.701V1.50104C92.0999 1.10104 92.3999 0.801038 92.7999 0.801038H103.8C104.2 0.801038 104.5 1.10104 104.5 1.50104V3.40104C104.5 3.80104 104.2 4.10104 103.8 4.10104H96.4999C96.1999 4.10104 95.9999 4.30104 95.9999 4.60104V8.00104C95.9999 8.30104 96.1999 8.50104 96.4999 8.50104H103.3C103.7 8.50104 104 8.80104 104 9.20104V10.901C104 11.301 103.7 11.601 103.3 11.601H96.4999C96.1999 11.601 95.9999 11.801 95.9999 12.101V15.901C95.9999 16.201 96.1999 16.401 96.4999 16.401H103.8C104.2 16.401 104.5 16.701 104.5 17.101V19.001C104.5 19.101 104.2 19.401 103.8 19.401Z" ></path>
  </symbol>
  <symbol fill="none" xmlns="http://www.w3.org/2000/svg" viewBox="0 0 22 20" id="x">
    <path d="M9.69978 8.7L3.4998 0.6C3.0998 0.2 2.5998 0 2.0998 0C1.5998 0 1.0998 0.2 0.699803 0.6C-0.000194848 1.4 -0.000194848 2.6 0.699803 3.4L5.59979 10L0.699803 16.6C-0.000194848 17.4 -0.000194848 18.6 0.699803 19.4C1.0998 19.8 1.5998 20 2.0998 20C2.5998 20 3.0998 19.8 3.4998 19.4L9.69978 11.3C10.3998 10.7 10.3998 9.5 9.69978 8.7Z" fill="#FF3F3A"></path>
    <path d="M12.3426 8.7L18.5426 0.6C18.9426 0.2 19.4426 0 19.9426 0C20.4426 0 20.9426 0.2 21.3426 0.6C22.0426 1.4 22.0426 2.6 21.3426 3.4L16.4426 10L21.3426 16.6C22.0426 17.4 22.0426 18.6 21.3426 19.4C20.9426 19.8 20.4426 20 19.9426 20C19.4426 20 18.9426 19.8 18.5426 19.4L12.3426 11.3C11.6426 10.7 11.6426 9.5 12.3426 8.7Z" fill="#FF3F3A"></path>
  </symbol>
  <symbol xmlns="http://www.w3.org/2000/svg" viewBox="0 0 18 18" id="person">
    <path d="M9.00019 1.70866C7.38936 1.70866 6.08353 3.0145 6.08353 4.62533C6.08353 6.23616 7.38936 7.54199 9.00019 7.54199C10.611 7.54199 11.9169 6.23616 11.9169 4.62533C11.9169 3.0145 10.611 1.70866 9.00019 1.70866ZM4.41686 4.62533C4.41686 2.09402 6.46889 0.0419922 9.00019 0.0419922C11.5315 0.0419922 13.5835 2.09402 13.5835 4.62533C13.5835 7.15663 11.5315 9.20866 9.00019 9.20866C6.46889 9.20866 4.41686 7.15663 4.41686 4.62533Z"></path>
    <path d="M4.08691 11.7087C3.50914 11.7087 3.05756 11.99 2.87424 12.3942C2.62053 12.9536 2.39078 13.6196 2.33656 14.2513C2.31233 14.5337 2.43006 14.7418 2.5923 14.8426C3.44993 15.3753 5.43719 16.292 9.00019 16.292C12.5632 16.292 14.5505 15.3753 15.4081 14.8426C15.5703 14.7418 15.6881 14.5337 15.6638 14.2513C15.6096 13.6196 15.3799 12.9536 15.1261 12.3942C14.9428 11.99 14.4912 11.7087 13.9135 11.7087H4.08691ZM1.35639 11.7058C1.86301 10.5887 2.99428 10.042 4.08691 10.042H13.9135C15.0061 10.042 16.1374 10.5887 16.644 11.7058C16.935 12.3474 17.2472 13.2099 17.3244 14.1088C17.3946 14.9273 17.0544 15.7819 16.2876 16.2583C15.1596 16.959 12.8665 17.9587 9.00019 17.9587C5.13386 17.9587 2.84078 16.959 1.71283 16.2583C0.945947 15.7819 0.605747 14.9273 0.676001 14.1088C0.753149 13.2099 1.0654 12.3474 1.35639 11.7058Z"></path>
  </symbol>
  <symbol xmlns="http://www.w3.org/2000/svg" viewBox="0 0 16 15" id="star">
    <path d="M6.77932 0.959277C7.24248 -0.108821 8.75719 -0.108822 9.22036 0.959277L10.6214 4.19028L14.1273 4.52435C15.2862 4.63478 15.7543 6.07536 14.8816 6.84592L12.2417 9.17685L13.0073 12.6143C13.2604 13.7507 12.035 14.641 11.0325 14.0491L7.99984 12.2587L4.96721 14.0491C3.96469 14.641 2.73926 13.7507 2.99236 12.6143L3.75801 9.17685L1.11809 6.84592C0.245398 6.07536 0.71347 4.63478 1.87242 4.52435L5.37824 4.19028L6.77932 0.959277ZM9.40091 4.71954L7.99984 1.48854L6.59876 4.71954C6.406 5.16408 5.98678 5.46865 5.50444 5.51462L1.99861 5.84868L4.63852 8.17962C5.00174 8.50032 5.16186 8.99313 5.05652 9.46608L4.29088 12.9035L7.32351 11.1131C7.74075 10.8668 8.25893 10.8668 8.67617 11.1131L11.7088 12.9035L10.9432 9.46608C10.8378 8.99313 10.9979 8.50032 11.3612 8.17962L14.0011 5.84868L10.4952 5.51462C10.0129 5.46865 9.59368 5.16408 9.40091 4.71954Z"></path>
  </symbol>
  <symbol xmlns="http://www.w3.org/2000/svg" viewBox="0 0 16 15" id="shape">
    <path d="M9.4547 1.65951C9.36168 1.65951 9.27547 1.70895 9.22843 1.78955L9.22433 1.79657L6.16683 6.75334V13.3262H11.8907C12.0135 13.3262 12.1198 13.2409 12.1464 13.1212L12.1487 13.1108L13.8487 6.47102C13.8798 6.31008 13.7565 6.15951 13.5915 6.15951H11.0002C10.566 6.15951 10.1268 6.01446 9.80696 5.70232C9.47075 5.37417 9.31488 4.90422 9.41491 4.39791L9.89414 1.9722C9.92614 1.81025 9.80219 1.65951 9.63725 1.65951H9.4547ZM4.8335 13.3262V7.23093H2.47118C2.32739 7.23093 2.2104 7.34695 2.20929 7.49091C2.20929 7.49091 2.20929 7.4909 2.20929 7.49091L2.16684 13.0623C2.16572 13.2076 2.28327 13.3262 2.42868 13.3262H4.8335ZM5.12809 5.8976L8.08155 1.1095C8.36843 0.624404 8.89032 0.326172 9.4547 0.326172H9.63725C10.6424 0.326172 11.397 1.24456 11.2022 2.23062L10.723 4.65633C10.7144 4.6995 10.72 4.71912 10.7213 4.72343C10.7228 4.72822 10.726 4.7362 10.7383 4.74814C10.7661 4.77536 10.8492 4.82617 11.0002 4.82617H13.5915C14.6121 4.82617 15.3701 5.77142 15.1487 6.76758L15.1464 6.77798L13.4453 13.4222C13.2788 14.1459 12.6343 14.6595 11.8907 14.6595H2.42868C1.54298 14.6595 0.826756 13.9379 0.833544 13.0522C0.833544 13.0521 0.833544 13.0522 0.833544 13.0522L0.875993 7.48073C0.88271 6.60454 1.59485 5.8976 2.47118 5.8976H5.12809Z"></path>
  </symbol>
  <symbol xmlns="http://www.w3.org/2000/svg" viewBox="0 0 16 15" id="layouts">
    <path d="M7.70184 0.228585C7.88953 0.134742 8.11044 0.134742 8.29813 0.228585L14.9648 3.56192C15.1906 3.67485 15.3333 3.90569 15.3333 4.1582C15.3333 4.41072 15.1906 4.64156 14.9648 4.75449L8.29813 8.08782C8.11044 8.18166 7.88953 8.18166 7.70184 8.08782L1.03517 4.75449C0.809318 4.64156 0.66665 4.41072 0.66665 4.1582C0.66665 3.90569 0.809318 3.67485 1.03517 3.56192L7.70184 0.228585ZM2.82403 4.1582L7.99998 6.74618L13.1759 4.1582L7.99998 1.57023L2.82403 4.1582Z"></path>
    <path d="M0.737032 7.19339C0.901691 6.86407 1.30214 6.73059 1.63146 6.89525L7.99998 10.0795L14.3685 6.89525C14.6978 6.73059 15.0983 6.86407 15.2629 7.19339C15.4276 7.52271 15.2941 7.92316 14.9648 8.08782L8.29813 11.4212C8.11044 11.515 7.88953 11.515 7.70184 11.4212L1.03517 8.08782C0.705855 7.92316 0.572372 7.52271 0.737032 7.19339Z"></path>
    <path d="M0.737032 10.5267C0.901691 10.1974 1.30214 10.0639 1.63146 10.2286L7.99998 13.4128L14.3685 10.2286C14.6978 10.0639 15.0983 10.1974 15.2629 10.5267C15.4276 10.856 15.2941 11.2565 14.9648 11.4212L8.29813 14.7545C8.11044 14.8483 7.88953 14.8483 7.70184 14.7545L1.03517 11.4212C0.705855 11.2565 0.572372 10.856 0.737032 10.5267Z"></path>
  </symbol>
  <symbol xmlns="http://www.w3.org/2000/svg" viewBox="0 0 16 14" id="chat">
    <path d="M14.6153 6.53776C14.5204 7.19558 14.2954 7.8208 13.9619 8.39574C13.9869 8.53809 13.9997 8.68197 13.9997 8.82648C13.9997 9.32836 13.8543 9.80868 13.5849 10.2451C13.4504 10.4629 13.4158 10.7182 13.4025 10.8868C13.3873 11.0801 13.3924 11.2915 13.4062 11.4947C13.4217 11.7226 13.4497 11.9619 13.4818 12.1876C13.2216 12.1117 12.9395 12.0355 12.6704 11.9748C12.4465 11.9243 12.2174 11.8813 12.0099 11.8598C11.8289 11.8411 11.5674 11.8267 11.3335 11.9023C10.8221 12.0676 10.2594 12.1598 9.66636 12.1598C8.96109 12.1598 8.31335 12.0346 7.74559 11.8171C7.60903 11.8233 7.47146 11.8265 7.33301 11.8265C6.52993 11.8265 5.75701 11.7209 5.03385 11.5257C6.08516 12.7416 7.81828 13.4931 9.66636 13.4931C10.3883 13.4931 11.0812 13.3823 11.7198 13.1786C11.7209 13.1787 11.723 13.1786 11.726 13.1786C11.7424 13.1782 11.7879 13.1773 11.8729 13.1861C12.0067 13.1999 12.1786 13.2307 12.377 13.2755C12.7719 13.3646 13.2157 13.496 13.5615 13.6058C14.2949 13.8386 15.0056 13.1986 14.8745 12.4543C14.8181 12.134 14.7595 11.743 14.7365 11.4044C14.7249 11.2341 14.7236 11.0943 14.7317 10.9917C14.7351 10.9492 14.7394 10.9225 14.7421 10.9084C15.1172 10.2871 15.333 9.57963 15.333 8.82648C15.333 7.97744 15.0693 7.20213 14.6153 6.53776Z"></path>
    <path d="M3.73109 3.29161C2.83245 3.97881 2.33306 4.8809 2.33306 5.82617C2.33306 6.29753 2.45577 6.7515 2.68599 7.17366C2.77367 7.33445 2.79854 7.50031 2.80744 7.61259C2.81714 7.73502 2.8123 7.86085 2.80166 7.97852C2.78034 8.2141 2.72949 8.48102 2.66849 8.74393C2.59715 9.05146 2.50572 9.37943 2.41296 9.68737C2.76512 9.55937 3.15003 9.4282 3.51493 9.32174C3.80985 9.23571 4.10767 9.16105 4.37274 9.11913C4.60108 9.08303 4.93243 9.04754 5.2177 9.14624C5.85792 9.36774 6.57411 9.49284 7.33306 9.49284C8.76451 9.49284 10.0358 9.04839 10.935 8.36073C11.8337 7.67354 12.3331 6.77145 12.3331 5.82617C12.3331 4.8809 11.8337 3.97881 10.935 3.29161C10.0358 2.60395 8.76451 2.15951 7.33306 2.15951C5.90162 2.15951 4.63034 2.60395 3.73109 3.29161ZM2.92116 2.23247C4.07283 1.35178 5.6349 0.826172 7.33306 0.826172C9.03123 0.826172 10.5933 1.35178 11.745 2.23247C12.8973 3.11363 13.6664 4.37821 13.6664 5.82617C13.6664 7.27413 12.8973 8.53871 11.745 9.41987C10.5933 10.3006 9.03123 10.8262 7.33306 10.8262C6.43769 10.8262 5.58244 10.6802 4.80591 10.4146C4.80513 10.4168 4.74215 10.4106 4.58098 10.4361C4.39521 10.4655 4.15809 10.523 3.88836 10.6017C3.35138 10.7584 2.74835 10.98 2.28902 11.1588C1.49327 11.4685 0.682633 10.7042 0.95074 9.89013C1.09284 9.45866 1.26043 8.9134 1.36966 8.4426C1.42468 8.20543 1.46039 8.00603 1.47375 7.85836C1.47839 7.80711 1.47958 7.76974 1.47932 7.74448C1.17246 7.15811 0.99973 6.50967 0.99973 5.82617C0.99973 4.37821 1.76887 3.11364 2.92116 2.23247Z"></path>
  </symbol>
  <symbol xmlns="http://www.w3.org/2000/svg" viewBox="0 0 18 12" id="arrow">
    <path d="M6.20711 11.2071C5.81658 11.5976 5.18342 11.5976 4.79289 11.2071L0.292892 6.70711C-0.0976315 6.31658 -0.0976315 5.68342 0.292892 5.29289L4.79289 0.792893C5.18342 0.402369 5.81658 0.402369 6.20711 0.792893C6.59763 1.18342 6.59763 1.81658 6.20711 2.20711L3.41421 5L17 5C17.5523 5 18 5.44772 18 6C18 6.55228 17.5523 7 17 7L3.41421 7L6.20711 9.79289C6.59763 10.1834 6.59763 10.8166 6.20711 11.2071Z"></path>
  </symbol>
  <symbol xmlns="http://www.w3.org/2000/svg" viewBox="0 0 10 20" id="facebook">
    <path d="M9.63586 0.837799L7.32148 0.833984C4.72134 0.833984 3.04102 2.60489 3.04102 5.34584V7.42611H0.714013C0.512931 7.42611 0.350098 7.59357 0.350098 7.80013V10.8142C0.350098 11.0208 0.513117 11.188 0.714013 11.188H3.04102V18.7935C3.04102 19 3.20386 19.1673 3.40494 19.1673H6.44103C6.64211 19.1673 6.80494 18.9999 6.80494 18.7935V11.188H9.52576C9.72684 11.188 9.88967 11.0208 9.88967 10.8142L9.89079 7.80013C9.89079 7.70095 9.85235 7.60597 9.78421 7.53578C9.71607 7.46559 9.62324 7.42611 9.52669 7.42611H6.80494V5.66264C6.80494 4.81505 7.00157 4.38476 8.07641 4.38476L9.63549 4.38419C9.83639 4.38419 9.99922 4.21673 9.99922 4.01037V1.21163C9.99922 1.00545 9.83657 0.83818 9.63586 0.837799Z"></path>
  </symbol>
   <symbol xmlns="http://www.w3.org/2000/svg" viewBox="0 0 18 18" id="instagram">
    <path d="M17.3169 5.56606C17.2778 4.6805 17.1346 4.07168 16.9295 3.54413C16.7178 2.98415 16.3923 2.4828 15.9657 2.06603C15.5489 1.64277 15.0443 1.31388 14.4908 1.10555C13.9602 0.900411 13.3545 0.757205 12.469 0.71816C11.5768 0.675809 11.2936 0.666016 9.03075 0.666016C6.76794 0.666016 6.48471 0.675809 5.59584 0.714853C4.71028 0.753898 4.10146 0.897231 3.57404 1.10225C3.01393 1.31388 2.51258 1.63946 2.09581 2.06603C1.67255 2.4828 1.34379 2.98746 1.13534 3.54095C0.930196 4.07168 0.78699 4.67719 0.747945 5.56275C0.705594 6.45493 0.695801 6.73816 0.695801 9.00098C0.695801 11.2638 0.705594 11.547 0.744638 12.4359C0.783683 13.3215 0.927016 13.9303 1.13216 14.4578C1.34379 15.0178 1.67255 15.5191 2.09581 15.9359C2.51258 16.3592 3.01724 16.6881 3.57073 16.8964C4.10146 17.1015 4.70697 17.2447 5.59266 17.2838C6.4814 17.323 6.76476 17.3326 9.02757 17.3326C11.2904 17.3326 11.5736 17.323 12.4625 17.2838C13.348 17.2447 13.9569 17.1015 14.4843 16.8964C15.6044 16.4633 16.4899 15.5778 16.923 14.4578C17.128 13.9271 17.2713 13.3215 17.3104 12.4359C17.3494 11.547 17.3592 11.2638 17.3592 9.00098C17.3592 6.73816 17.3559 6.45493 17.3169 5.56606ZM15.816 12.3708C15.7801 13.1847 15.6434 13.6243 15.5295 13.9173C15.2494 14.6434 14.6731 15.2196 13.9471 15.4997C13.654 15.6136 13.2113 15.7504 12.4005 15.7861C11.5215 15.8253 11.2578 15.8349 9.03406 15.8349C6.81029 15.8349 6.54334 15.8253 5.66744 15.7861C4.85348 15.7504 4.41394 15.6136 4.12092 15.4997C3.7596 15.3661 3.43071 15.1545 3.16375 14.8778C2.88701 14.6075 2.67538 14.2819 2.54184 13.9206C2.42788 13.6276 2.29116 13.1847 2.25542 12.3741C2.21625 11.495 2.20659 11.2312 2.20659 9.00746C2.20659 6.7837 2.21625 6.51674 2.25542 5.64097C2.29116 4.82701 2.42788 4.38747 2.54184 4.09444C2.67538 3.733 2.88701 3.40423 3.16706 3.13715C3.43719 2.8604 3.76278 2.64877 4.12423 2.51536C4.41725 2.40141 4.8601 2.26469 5.67075 2.22882C6.54983 2.18978 6.8136 2.17998 9.03724 2.17998C11.2643 2.17998 11.528 2.18978 12.4039 2.22882C13.2178 2.26469 13.6573 2.40141 13.9504 2.51536C14.3117 2.64877 14.6406 2.8604 14.9075 3.13715C15.1843 3.40741 15.3959 3.733 15.5295 4.09444C15.6434 4.38747 15.7801 4.83019 15.816 5.64097C15.855 6.52005 15.8648 6.7837 15.8648 9.00746C15.8648 11.2312 15.855 11.4917 15.816 12.3708Z"></path>
    <path d="M9.03075 4.71954C6.66708 4.71954 4.74931 6.63719 4.74931 9.00098C4.74931 11.3648 6.66708 13.2824 9.03075 13.2824C11.3945 13.2824 13.3122 11.3648 13.3122 9.00098C13.3122 6.63719 11.3945 4.71954 9.03075 4.71954ZM9.03075 11.7782C7.49732 11.7782 6.25349 10.5345 6.25349 9.00098C6.25349 7.46743 7.49732 6.22372 9.03075 6.22372C10.5643 6.22372 11.808 7.46743 11.808 9.00098C11.808 10.5345 10.5643 11.7782 9.03075 11.7782Z"></path>
    <path d="M14.4811 4.55027C14.4811 5.10223 14.0336 5.54979 13.4815 5.54979C12.9295 5.54979 12.482 5.10223 12.482 4.55027C12.482 3.99817 12.9295 3.55074 13.4815 3.55074C14.0336 3.55074 14.4811 3.99817 14.4811 4.55027Z"></path>
  </symbol>
  <symbol xmlns="http://www.w3.org/2000/svg" viewBox="0 0 18 18" id="linked">
    <path d="M17.329 17.3327L17.3332 17.332V11.2195C17.3332 8.22921 16.6894 5.92574 13.1936 5.92574C11.513 5.92574 10.3853 6.84796 9.92483 7.72227H9.87622V6.2049H6.56163V17.332H10.013V11.8223C10.013 10.3716 10.288 8.9688 12.0846 8.9688C13.8547 8.9688 13.8811 10.6244 13.8811 11.9153V17.3327H17.329Z"></path>
    <path d="M0.9415 6.2056H4.39706V17.3327H0.9415V6.2056Z"></path>
    <path d="M2.66789 0.666016C1.56303 0.666016 0.666504 1.56254 0.666504 2.6674C0.666504 3.77227 1.56303 4.68754 2.66789 4.68754C3.77275 4.68754 4.66928 3.77227 4.66928 2.6674C4.66859 1.56254 3.77206 0.666016 2.66789 0.666016Z"></path>
  </symbol>
  <symbol xmlns="http://www.w3.org/2000/svg" viewBox="0 0 22 18" id="twitter">
    <path d="M21.5 2.77233C20.7271 3.10027 19.8978 3.32267 19.0264 3.42196C19.9161 2.91181 20.5972 2.10263 20.92 1.1414C20.0854 1.61383 19.1642 1.95688 18.1826 2.14285C17.3966 1.33994 16.2785 0.839844 15.0384 0.839844C12.6593 0.839844 10.7303 2.68691 10.7303 4.9637C10.7303 5.2866 10.7683 5.60199 10.8418 5.90357C7.26201 5.73141 4.08768 4.08917 1.96314 1.59372C1.59176 2.20189 1.38049 2.91053 1.38049 3.66697C1.38049 5.09814 2.14161 6.36093 3.2964 7.09973C2.5904 7.07713 1.92639 6.89116 1.34508 6.58205V6.63357C1.34508 8.63141 2.83056 10.2988 4.80024 10.6783C4.43936 10.7713 4.05882 10.8228 3.66514 10.8228C3.38696 10.8228 3.11794 10.7964 2.85417 10.7461C3.40267 12.3859 4.99315 13.5783 6.87756 13.611C5.40388 14.7167 3.54573 15.3739 1.52749 15.3739C1.17976 15.3739 0.837236 15.3537 0.5 15.3173C2.40671 16.4896 4.67036 17.1732 7.10327 17.1732C15.028 17.1732 19.3597 10.8881 19.3597 5.43741L19.3453 4.90341C20.1917 4.32537 20.9239 3.59912 21.5 2.77233Z"></path>
  </symbol>
  <symbol xmlns="http://www.w3.org/2000/svg" viewBox="0 0 24 18" id="youtube">
    <path fill-rule="evenodd" clip-rule="evenodd" d="M21.3903 1.11358C22.4182 1.39044 23.2288 2.20086 23.5055 3.22899C24.0197 5.10691 23.9999 9.02132 23.9999 9.02132C23.9999 9.02132 23.9999 12.9158 23.5057 14.7939C23.2288 15.8218 22.4184 16.6324 21.3903 16.9091C19.5122 17.4035 12 17.4035 12 17.4035C12 17.4035 4.50731 17.4035 2.60961 16.8895C1.58148 16.6127 0.771054 15.802 0.4942 14.7741C0 12.9158 0 9.00154 0 9.00154C0 9.00154 0 5.10691 0.4942 3.22899C0.770871 2.20104 1.60125 1.37066 2.60943 1.09399C4.48753 0.599609 11.9998 0.599609 11.9998 0.599609C11.9998 0.599609 19.5122 0.599609 21.3903 1.11358ZM15.8549 9.00158L9.60788 12.5996V5.40355L15.8549 9.00158Z"></path>
  </symbol>
  <symbol xmlns="http://www.w3.org/2000/svg" viewBox="0 0 22 20" id="telegram">
    <path d="M8.63262 13.1813L8.2687 18.7653C8.78938 18.7653 9.01488 18.5213 9.2853 18.2283L11.7264 15.6833L16.7847 19.7243C17.7124 20.2883 18.366 19.9913 18.6163 18.7933L21.9365 1.8214L21.9374 1.8204C22.2317 0.324404 21.4415 -0.260593 20.5377 0.106405L1.02135 8.25736C-0.310594 8.82136 -0.290427 9.63136 0.794932 9.99835L5.78447 11.6913L17.3742 3.78039C17.9196 3.38639 18.4155 3.60439 18.0076 3.99839L8.63262 13.1813Z"></path>
  </symbol>
   <symbol xmlns="http://www.w3.org/2000/svg" viewBox="0 0 12 17" id="podcast">
    <path  d="M2.13333 4.76901C2.13333 2.63351 3.8645 0.902344 6 0.902344C8.1355 0.902344 9.86667 2.63351 9.86667 4.76901V7.96901C9.86667 10.1045 8.1355 11.8357 6 11.8357C3.8645 11.8357 2.13333 10.1045 2.13333 7.96901V4.76901ZM6 2.23568C4.60088 2.23568 3.46667 3.36989 3.46667 4.76901V7.96901C3.46667 9.36813 4.60088 10.5023 6 10.5023C7.39912 10.5023 8.53333 9.36813 8.53333 7.96901V4.76901C8.53333 3.36989 7.39912 2.23568 6 2.23568Z"></path>
    <path  d="M0.666667 6.23568C1.03486 6.23568 1.33333 6.53415 1.33333 6.90234V7.96901C1.33333 10.5463 3.42267 12.6357 6 12.6357C8.57733 12.6357 10.6667 10.5463 10.6667 7.96901V6.90234C10.6667 6.53415 10.9651 6.23568 11.3333 6.23568C11.7015 6.23568 12 6.53415 12 6.90234V7.96901C12 11.2827 9.31371 13.969 6 13.969C2.68629 13.969 0 11.2827 0 7.96901V6.90234C0 6.53415 0.298477 6.23568 0.666667 6.23568Z"></path>
    <path  d="M6 13.169C6.36819 13.169 6.66667 13.4675 6.66667 13.8357V14.769H8.13333C8.50152 14.769 8.8 15.0675 8.8 15.4357C8.8 15.8039 8.50152 16.1023 8.13333 16.1023H3.86667C3.49848 16.1023 3.2 15.8039 3.2 15.4357C3.2 15.0675 3.49848 14.769 3.86667 14.769H5.33333V13.8357C5.33333 13.4675 5.63181 13.169 6 13.169Z"></path>
  </symbol>
  <symbol xmlns="http://www.w3.org/2000/svg" viewBox="0 0 16 15" id="video">
    <path d="M10.7117 6.44198C11.4099 6.97563 11.4099 8.02702 10.7117 8.56068L7.65841 10.8943C6.78101 11.5649 5.51541 10.9393 5.51541 9.83495V5.16771C5.51541 4.06339 6.78101 3.43776 7.65841 4.10835L10.7117 6.44198ZM9.90204 7.50133L6.84875 5.16771L6.84875 9.83495L9.90204 7.50133Z"></path>
    <path d="M7.99984 1.5013C4.68613 1.5013 1.99984 4.18759 1.99984 7.5013C1.99984 10.815 4.68613 13.5013 7.99984 13.5013C11.3135 13.5013 13.9998 10.815 13.9998 7.5013C13.9998 4.18759 11.3135 1.5013 7.99984 1.5013ZM0.666504 7.5013C0.666504 3.45121 3.94975 0.167969 7.99984 0.167969C12.0499 0.167969 15.3332 3.45121 15.3332 7.5013C15.3332 11.5514 12.0499 14.8346 7.99984 14.8346C3.94975 14.8346 0.666504 11.5514 0.666504 7.5013Z"></path>
  </symbol>
  <symbol xmlns="http://www.w3.org/2000/svg" viewBox="0 0 12 15" id="article">
    <path d="M3.3335 8.5026C3.3335 8.13441 3.63197 7.83594 4.00016 7.83594H8.00016C8.36835 7.83594 8.66683 8.13441 8.66683 8.5026C8.66683 8.87079 8.36835 9.16927 8.00016 9.16927H4.00016C3.63197 9.16927 3.3335 8.87079 3.3335 8.5026Z"></path>
    <path d="M3.3335 11.0026C3.3335 10.6344 3.63197 10.3359 4.00016 10.3359H6.00016C6.36835 10.3359 6.66683 10.6344 6.66683 11.0026C6.66683 11.3708 6.36835 11.6693 6.00016 11.6693H4.00016C3.63197 11.6693 3.3335 11.3708 3.3335 11.0026Z"></path>
    <path d="M4.02877 0.5312C4.1538 0.406175 4.32337 0.335938 4.50018 0.335938H9.00018C10.4729 0.335938 11.6668 1.52984 11.6668 3.0026L11.6668 12.0026C11.6668 13.4754 10.4729 14.6693 9.00018 14.6693H3.00016C1.5274 14.6693 0.333492 13.4754 0.333496 12.0026L0.333513 4.5026C0.333513 4.32579 0.403751 4.15622 0.528775 4.0312L4.02877 0.5312ZM4.33349 2.1121V4.33594H2.10965L4.33349 2.1121ZM1.66684 5.66927L1.66683 12.0026C1.66683 12.739 2.26378 13.3359 3.00016 13.3359H9.00018C9.73656 13.3359 10.3335 12.739 10.3335 12.0026L10.3335 3.0026C10.3335 2.26622 9.73656 1.66927 9.00018 1.66927H5.66682V5.0026C5.66682 5.37079 5.36835 5.66927 5.00016 5.66927H1.66684Z"></path>
  </symbol>
  <symbol xmlns="http://www.w3.org/2000/svg" viewBox="0 0 16 15" id="calendar">
    <path d="M5.00016 0.335938C5.36835 0.335938 5.66683 0.634414 5.66683 1.0026V1.33595L10.3335 1.33595V1.0026C10.3335 0.634415 10.632 0.335938 11.0002 0.335938C11.3684 0.335937 11.6668 0.634414 11.6668 1.0026V1.33596L12.5002 1.33596C13.9729 1.33596 15.1668 2.52987 15.1668 4.00263V12.0026C15.1668 13.4754 13.9729 14.6693 12.5002 14.6693L3.50016 14.6693C2.0274 14.6693 0.833496 13.4754 0.833496 12.0026L0.833496 5.50273L0.833496 4.00261C0.833496 2.52985 2.02741 1.33594 3.50017 1.33594L4.3335 1.33594V1.0026C4.3335 0.634414 4.63197 0.335938 5.00016 0.335938ZM4.3335 2.66928L3.50017 2.66927C2.76378 2.66927 2.16683 3.26623 2.16683 4.00261V4.83594H13.8335V4.00263C13.8335 3.26625 13.2365 2.66929 12.5002 2.66929L11.6668 2.66929V3.0026C11.6668 3.37079 11.3684 3.66927 11.0002 3.66927C10.632 3.66927 10.3335 3.37079 10.3335 3.0026V2.66929L5.66683 2.66928V3.0026C5.66683 3.37079 5.36835 3.66927 5.00016 3.66927C4.63197 3.66927 4.3335 3.37079 4.3335 3.0026V2.66928ZM13.8335 6.16927H2.16683L2.16683 12.0026C2.16683 12.739 2.76378 13.3359 3.50016 13.3359L12.5002 13.3359C13.2365 13.3359 13.8335 12.739 13.8335 12.0026V6.16927Z"></path>
  </symbol>
  <symbol xmlns="http://www.w3.org/2000/svg" viewBox="0 0 16 15" id="clock">
    <path d="M8.6665 3.83464C8.6665 3.46645 8.36803 3.16797 7.99984 3.16797C7.63165 3.16797 7.33317 3.46645 7.33317 3.83464V7.5013C7.33317 7.67811 7.40341 7.84768 7.52843 7.97271L9.52843 9.97271C9.78878 10.2331 10.2109 10.2331 10.4712 9.97271C10.7316 9.71236 10.7316 9.29025 10.4712 9.0299L8.6665 7.22516V3.83464Z"></path>
    <path d="M7.99984 0.167969C3.94975 0.167969 0.666504 3.45121 0.666504 7.5013C0.666504 11.5514 3.94975 14.8346 7.99984 14.8346C12.0499 14.8346 15.3332 11.5514 15.3332 7.5013C15.3332 3.45121 12.0499 0.167969 7.99984 0.167969ZM1.99984 7.5013C1.99984 4.18759 4.68613 1.5013 7.99984 1.5013C11.3135 1.5013 13.9998 4.18759 13.9998 7.5013C13.9998 10.815 11.3135 13.5013 7.99984 13.5013C4.68613 13.5013 1.99984 10.815 1.99984 7.5013Z"></path>
  </symbol>
  <symbol xmlns="http://www.w3.org/2000/svg" viewBox="0 0 10 16" id="phone">
    <path d="M2.66683 1.94857C2.11454 1.94857 1.66683 2.39628 1.66683 2.94857V13.0527C1.66683 13.605 2.11454 14.0527 2.66683 14.0527H7.3335C7.88578 14.0527 8.3335 13.605 8.3335 13.0527V2.94857C8.3335 2.39628 7.88578 1.94857 7.3335 1.94857H7.27791L7.11553 2.3382C7.01201 2.58661 6.76928 2.74842 6.50016 2.74842H3.50016C3.23105 2.74842 2.98832 2.58661 2.8848 2.3382L2.72242 1.94857H2.66683ZM0.333496 2.94857C0.333496 1.6599 1.37817 0.615234 2.66683 0.615234H7.3335C8.62216 0.615234 9.66683 1.6599 9.66683 2.94857V13.0527C9.66683 14.3414 8.62216 15.3861 7.3335 15.3861H2.66683C1.37816 15.3861 0.333496 14.3414 0.333496 13.0527V2.94857Z"></path>
  </symbol>
  <symbol xmlns="http://www.w3.org/2000/svg" viewBox="0 0 16 12" id="mail">
    <path d="M15.1668 9.99935V2.66602C15.1668 1.56145 14.2714 0.666016 13.1668 0.666016L2.83349 0.666026C1.72893 0.666027 0.833496 1.56146 0.833496 2.66603V9.99934C0.833496 11.1039 1.72893 11.9993 2.8335 11.9993L13.1668 11.9993C14.2714 11.9993 15.1668 11.1039 15.1668 9.99935ZM13.8335 4.17232V9.99935C13.8335 10.3675 13.535 10.666 13.1668 10.666L2.8335 10.666C2.46531 10.666 2.16683 10.3675 2.16683 9.99934L2.16683 4.17223L6.87561 7.3742C7.55433 7.83573 8.44613 7.83573 9.12485 7.3742L13.8335 4.17232ZM13.8259 2.56509C13.7773 2.24479 13.5007 1.99935 13.1668 1.99935L2.83349 1.99936C2.49965 1.99936 2.22311 2.24476 2.17443 2.56501L7.62535 6.27164C7.85159 6.42548 8.14886 6.42548 8.3751 6.27164L13.8259 2.56509Z"></path>
  </symbol>
  <symbol xmlns="http://www.w3.org/2000/svg" viewBox="0 0 16 14" id="heart">
    <path fill-rule="evenodd" clip-rule="evenodd" d="M7.99974 12.2715C4.9337 10.5252 3.22366 8.78955 2.39675 7.28361C1.55041 5.74228 1.62425 4.4441 2.09389 3.52273C3.05921 1.62892 5.80427 1.02333 7.47678 3.13865L7.9997 3.80001L8.52266 3.13868C10.1955 1.02327 12.9407 1.62896 13.906 3.52273C14.3756 4.44409 14.4494 5.74226 13.603 7.28359C12.776 8.78954 11.0659 10.5252 7.99974 12.2715ZM7.99977 1.73726C5.64696 -0.498482 2.17604 0.425546 0.905976 2.91723C0.208948 4.2847 0.199427 6.05212 1.22802 7.92536C2.24749 9.78198 4.28009 11.7417 7.67724 13.6194L7.99973 13.7976L8.32222 13.6194C11.7195 11.7417 13.7522 9.78199 14.7717 7.92537C15.8004 6.05214 15.7909 4.28472 15.0939 2.91723C13.8238 0.425498 10.3528 -0.498448 7.99977 1.73726Z"></path>
  </symbol>
  <symbol xmlns="http://www.w3.org/2000/svg" viewBox="0 0 22 20" id="convert">
    <path fill-rule="evenodd" clip-rule="evenodd" d="M1.09961 0C1.65189 0 2.09961 0.447715 2.09961 1V5.43632C3.75764 2.20928 7.11959 0 10.9996 0C15.3552 0 19.058 2.78413 20.4303 6.66675C20.6144 7.18747 20.3414 7.75879 19.8207 7.94284C19.3 8.12689 18.7287 7.85396 18.5446 7.33325C17.4459 4.22472 14.4813 2 10.9996 2C8.03957 2 5.45326 3.60799 4.06955 6H7.09957C7.65186 6 8.09957 6.44772 8.09957 7C8.09957 7.55228 7.65186 8 7.09957 8H1.09961C0.547325 8 0.0996094 7.55228 0.0996094 7V1C0.0996094 0.447715 0.547325 0 1.09961 0Z"></path>
    <path fill-rule="evenodd" clip-rule="evenodd" d="M2.17664 12.0572C2.69736 11.8731 3.26868 12.146 3.45273 12.6668C4.55144 15.7753 7.51608 18 10.9978 18C13.9578 18 16.5441 16.392 17.9278 14H14.8978C14.3455 14 13.8978 13.5523 13.8978 13C13.8978 12.4477 14.3455 12 14.8978 12H20.8977C21.45 12 21.8977 12.4477 21.8977 13V19C21.8977 19.5523 21.45 20 20.8977 20C20.3455 20 19.8977 19.5523 19.8977 19V14.5637C18.2397 17.7907 14.8778 20 10.9978 20C6.64215 20 2.93936 17.2159 1.56705 13.3332C1.383 12.8125 1.65593 12.2412 2.17664 12.0572Z"></path>
  </symbol>
  <symbol xmlns="http://www.w3.org/2000/svg" viewBox="0 0 16 16" id="star">
    <path fill-rule="evenodd" clip-rule="evenodd" d="M6.77956 1.46807C7.24272 0.399968 8.75744 0.399967 9.2206 1.46807L10.6217 4.69907L14.1275 5.03314C15.2864 5.14357 15.7545 6.58415 14.8818 7.35471L12.2419 9.68564L13.0076 13.1231C13.2607 14.2595 12.0352 15.1498 11.0327 14.5579L8.00008 12.7675L4.96745 14.5579C3.96493 15.1498 2.7395 14.2595 2.99261 13.1231L3.75825 9.68564L1.11834 7.35471C0.245643 6.58415 0.713714 5.14357 1.87266 5.03314L5.37848 4.69907L6.77956 1.46807ZM9.40116 5.22833L8.00008 1.99733L6.59901 5.22833C6.40624 5.67287 5.98703 5.97744 5.50468 6.02341L1.99886 6.35747L4.63877 8.68841C5.00198 9.00911 5.1621 9.50192 5.05676 9.97487L4.29112 13.4123L7.32375 11.6219C7.74099 11.3756 8.25917 11.3756 8.67641 11.6219L11.709 13.4123L10.9434 9.97487C10.8381 9.50192 10.9982 9.00911 11.3614 8.68841L14.0013 6.35747L10.4955 6.02341C10.0131 5.97744 9.59392 5.67287 9.40116 5.22833Z"></path>
  </symbol>
  <symbol fill="none" xmlns="http://www.w3.org/2000/svg" viewBox="0 0 48 48" id="ic-calendar">
    <path d="M43.631 17.7122C43.4567 17.5378 43.2157 17.4375 42.9683 17.4375C42.7217 17.4375 42.4798 17.5378 42.3055 17.7122C42.1311 17.8866 42.0308 18.1284 42.0308 18.375C42.0308 18.6216 42.131 18.8634 42.3055 19.0378C42.4799 19.2122 42.7217 19.3125 42.9683 19.3125C43.2158 19.3125 43.4567 19.2122 43.631 19.0378C43.8054 18.8634 43.9058 18.6216 43.9058 18.375C43.9058 18.1284 43.8054 17.8866 43.631 17.7122Z" fill="#FF3F3A"></path>
    <path d="M42.7812 6.9375H41.7076C41.8735 6.76837 41.9762 6.53691 41.9762 6.28125V5.0625C41.9762 3.30488 40.5463 1.875 38.7887 1.875C37.0311 1.875 35.6012 3.30488 35.6012 5.0625V6.9375H26.907C27.0729 6.76837 27.1756 6.53691 27.1756 6.28125V5.0625C27.1756 3.30488 25.7457 1.875 23.9881 1.875C22.2305 1.875 20.8006 3.30488 20.8006 5.0625V6.9375H12.1064C12.2723 6.76837 12.375 6.53691 12.375 6.28125V5.0625C12.375 3.30488 10.9451 1.875 9.1875 1.875C7.42987 1.875 6 3.30488 6 5.0625V6.9375H5.21878C2.34113 6.9375 0 9.27863 0 12.1563V43.3125C0 44.8633 1.26169 46.125 2.8125 46.125H19C19.5177 46.125 19.9375 45.7053 19.9375 45.1875C19.9375 44.6697 19.5177 44.25 19 44.25H2.8125C2.29556 44.25 1.875 43.8294 1.875 43.3125V19.3125H38.3756C38.8933 19.3125 39.3131 18.8928 39.3131 18.375C39.3131 17.8572 38.8933 17.4375 38.3756 17.4375H1.875V12.1563C1.875 10.3125 3.375 8.8125 5.21878 8.8125H6V11.0782C6 12.8359 7.42987 14.2657 9.1875 14.2657C10.9451 14.2657 12.375 12.8359 12.375 11.0782C12.375 10.5605 11.9552 10.1407 11.4375 10.1407C10.9198 10.1407 10.5 10.5605 10.5 11.0782C10.5 11.802 9.91125 12.3907 9.1875 12.3907C8.46375 12.3907 7.875 11.802 7.875 11.0782V8.8125H20.8006V11.0782C20.8006 12.8359 22.2305 14.2657 23.9881 14.2657C25.7457 14.2657 27.1756 12.8359 27.1756 11.0782C27.1756 10.5605 26.7558 10.1407 26.2381 10.1407C25.7204 10.1407 25.3006 10.5605 25.3006 11.0782C25.3006 11.802 24.7118 12.3907 23.9881 12.3907C23.2643 12.3907 22.6756 11.802 22.6756 11.0782V8.8125H35.6012V11.0782C35.6012 12.8359 37.0311 14.2657 38.7887 14.2657C40.5463 14.2657 41.9762 12.8359 41.9762 11.0782C41.9762 10.5605 41.5564 10.1407 41.0387 10.1407C40.521 10.1407 40.1012 10.5605 40.1012 11.0782C40.1012 11.802 39.5124 12.3907 38.7887 12.3907C38.0649 12.3907 37.4762 11.802 37.4762 11.0782V8.8125H42.7812C44.625 8.8125 46.125 10.3125 46.125 12.1563V43.3125C46.125 43.8294 45.7044 44.25 45.1875 44.25H29C28.4823 44.25 28.0625 44.6697 28.0625 45.1875C28.0625 45.7053 28.4823 46.125 29 46.125H45.1875C46.7383 46.125 48 44.8633 48 43.3125V12.1563C48 9.27863 45.6589 6.9375 42.7812 6.9375ZM7.875 6.9375V5.0625C7.875 4.33875 8.46375 3.75 9.1875 3.75C9.91125 3.75 10.5 4.33875 10.5 5.0625V6.28125C10.5 6.53691 10.6027 6.76837 10.7686 6.9375H7.875ZM22.6756 6.9375V5.0625C22.6756 4.33875 23.2643 3.75 23.9881 3.75C24.7118 3.75 25.3006 4.33875 25.3006 5.0625V6.28125C25.3006 6.53691 25.4032 6.76837 25.5692 6.9375H22.6756ZM37.4762 6.9375V5.0625C37.4762 4.33875 38.0649 3.75 38.7887 3.75C39.5124 3.75 40.1012 4.33875 40.1012 5.0625V6.28125C40.1012 6.53691 40.2038 6.76837 40.3698 6.9375H37.4762Z" fill="#FF3F3A"></path>
    <path d="M9 22.3125C6.82884 22.3125 5.0625 24.0788 5.0625 26.25C5.0625 28.4212 6.82884 30.1875 9 30.1875C11.1712 30.1875 12.9375 28.4212 12.9375 26.25C12.9375 24.0788 11.1712 22.3125 9 22.3125ZM9 28.3125C7.86272 28.3125 6.9375 27.3873 6.9375 26.25C6.9375 25.1127 7.86272 24.1875 9 24.1875C10.1373 24.1875 11.0625 25.1127 11.0625 26.25C11.0625 27.3873 10.1373 28.3125 9 28.3125Z" fill="#FF3F3A"></path>
    <path d="M39 22.3125C36.8288 22.3125 35.0625 24.0788 35.0625 26.25C35.0625 28.4212 36.8288 30.1875 39 30.1875C41.1712 30.1875 42.9375 28.4212 42.9375 26.25C42.9375 24.0788 41.1712 22.3125 39 22.3125ZM39 28.3125C37.8627 28.3125 36.9375 27.3873 36.9375 26.25C36.9375 25.1127 37.8627 24.1875 39 24.1875C40.1373 24.1875 41.0625 25.1127 41.0625 26.25C41.0625 27.3873 40.1373 28.3125 39 28.3125Z" fill="#FF3F3A"></path>
    <path d="M29.001 22.3125C26.8298 22.3125 25.0635 24.0788 25.0635 26.25C25.0635 28.4212 26.8298 30.1875 29.001 30.1875C31.1721 30.1875 32.9385 28.4212 32.9385 26.25C32.9385 24.0788 31.1721 22.3125 29.001 22.3125ZM29.001 28.3125C27.8637 28.3125 26.9385 27.3873 26.9385 26.25C26.9385 25.1127 27.8637 24.1875 29.001 24.1875C30.1383 24.1875 31.0635 25.1127 31.0635 26.25C31.0635 27.3873 30.1383 28.3125 29.001 28.3125Z" fill="#FF3F3A"></path>
    <path d="M18.999 22.3125C16.8279 22.3125 15.0615 24.0788 15.0615 26.25C15.0615 28.4212 16.8279 30.1875 18.999 30.1875C21.1702 30.1875 22.9365 28.4212 22.9365 26.25C22.9365 24.0788 21.1702 22.3125 18.999 22.3125ZM18.999 28.3125C17.8617 28.3125 16.9365 27.3873 16.9365 26.25C16.9365 25.1127 17.8617 24.1875 18.999 24.1875C20.1363 24.1875 21.0615 25.1127 21.0615 26.25C21.0615 27.3873 20.1363 28.3125 18.999 28.3125Z" fill="#FF3F3A"></path>
    <path d="M9 33.75C6.82884 33.75 5.0625 35.5163 5.0625 37.6875C5.0625 39.8587 6.82884 41.625 9 41.625C11.1712 41.625 12.9375 39.8587 12.9375 37.6875C12.9375 35.5163 11.1712 33.75 9 33.75ZM9 39.75C7.86272 39.75 6.9375 38.8248 6.9375 37.6875C6.9375 36.5502 7.86272 35.625 9 35.625C10.1373 35.625 11.0625 36.5502 11.0625 37.6875C11.0625 38.8248 10.1373 39.75 9 39.75Z" fill="#FF3F3A"></path>
    <path d="M29.001 33.75C26.8298 33.75 25.0635 35.5163 25.0635 37.6875C25.0635 39.8587 26.8298 41.625 29.001 41.625C31.1721 41.625 32.9385 39.8587 32.9385 37.6875C32.9385 35.5163 31.1721 33.75 29.001 33.75ZM29.001 39.75C27.8637 39.75 26.9385 38.8248 26.9385 37.6875C26.9385 36.5502 27.8637 35.625 29.001 35.625C30.1383 35.625 31.0635 36.5502 31.0635 37.6875C31.0635 38.8248 30.1383 39.75 29.001 39.75Z" fill="#FF3F3A"></path>
    <path d="M39 33.75C36.8288 33.75 35.0625 35.5163 35.0625 37.6875C35.0625 39.8587 36.8288 41.625 39 41.625C41.1712 41.625 42.9375 39.8587 42.9375 37.6875C42.9375 35.5163 41.1712 33.75 39 33.75ZM39 39.75C37.8627 39.75 36.9375 38.8248 36.9375 37.6875C36.9375 36.5502 37.8627 35.625 39 35.625C40.1373 35.625 41.0625 36.5502 41.0625 37.6875C41.0625 38.8248 40.1373 39.75 39 39.75Z" fill="#FF3F3A"></path>
    <path d="M18.999 33.75C16.8279 33.75 15.0615 35.5163 15.0615 37.6875C15.0615 39.8587 16.8279 41.625 18.999 41.625C21.1702 41.625 22.9365 39.8587 22.9365 37.6875C22.9365 35.5163 21.1702 33.75 18.999 33.75ZM18.999 39.75C17.8617 39.75 16.9365 38.8248 16.9365 37.6875C16.9365 36.5502 17.8617 35.625 18.999 35.625C20.1363 35.625 21.0615 36.5502 21.0615 37.6875C21.0615 38.8248 20.1363 39.75 18.999 39.75Z" fill="#FF3F3A"></path>
    <path d="M24.6627 44.5247C24.4884 44.3503 24.2466 44.25 24 44.25C23.7524 44.25 23.5116 44.3503 23.3372 44.5247C23.1619 44.6991 23.0625 44.9409 23.0625 45.1875C23.0625 45.4341 23.1619 45.6759 23.3372 45.8503C23.5116 46.0247 23.7525 46.125 24 46.125C24.2466 46.125 24.4884 46.0247 24.6627 45.8503C24.8371 45.6759 24.9375 45.4341 24.9375 45.1875C24.9375 44.9409 24.8372 44.6991 24.6627 44.5247Z" fill="#FF3F3A"></path>
  </symbol>
  <symbol fill="none" xmlns="http://www.w3.org/2000/svg" viewBox="0 0 48 48" id="ic-chat">
    <g clip-path="url(#clip0_43633_283)">
      <path d="M45.3492 26.4414C47.0849 23.6908 47.9997 20.5243 47.9997 17.2499C47.9997 7.73831 40.2614 0 30.7498 0C27.5638 0 24.4509 0.875719 21.7479 2.53247C21.3065 2.80303 21.1679 3.38016 21.4386 3.82162C21.709 4.263 22.2862 4.40166 22.7277 4.131C25.1358 2.65509 27.9098 1.875 30.7499 1.875C39.2276 1.875 46.1248 8.77209 46.1248 17.2499C46.1248 20.3246 45.2204 23.2919 43.5092 25.8309C43.2822 26.1677 43.3016 26.6031 43.5352 26.9157L44.5625 30.7497L40.439 29.6448C40.1689 29.5724 39.8806 29.6242 39.6528 29.7864C37.043 31.6434 33.9644 32.6249 30.7499 32.6249C28.9187 32.6249 27.1276 32.305 25.4242 31.6757C24.225 27.2596 20.7406 23.7751 16.3245 22.576C15.6951 20.8726 15.375 19.0818 15.375 17.25C15.375 14.3784 16.1714 11.578 17.6782 9.1515C17.9513 8.71162 17.8161 8.13366 17.3762 7.86047C16.9365 7.58738 16.3583 7.72247 16.0852 8.16244C14.3938 10.8863 13.4999 14.0287 13.4999 17.25C13.4999 18.9363 13.742 20.5921 14.2192 22.1887C13.7974 22.1471 13.3699 22.1253 12.9374 22.1253C5.80369 22.1253 0 27.9291 0 35.0627C0 37.6229 0.74025 40.0806 2.14481 42.1991L1.1415 45.944C1.05478 46.2675 1.14731 46.6127 1.38412 46.8496C1.62094 47.0864 1.96603 47.1788 2.28966 47.0922L6.12731 46.0639C8.17106 47.3317 10.5163 48 12.9374 48C15.4016 48 17.7985 47.3044 19.869 45.9883C20.306 45.7105 20.435 45.1312 20.1573 44.6942C19.8795 44.2572 19.2999 44.1282 18.8632 44.4059C17.0937 45.5306 15.0448 46.125 12.9374 46.125C10.7437 46.125 8.62331 45.4839 6.80578 44.271C6.58144 44.1213 6.30347 44.0753 6.04275 44.1453L3.37275 44.8607L4.06781 42.2667C4.14028 41.9963 4.08806 41.7075 3.92541 41.4796C2.58394 39.5993 1.87491 37.3804 1.87491 35.0625C1.87491 28.9627 6.83756 24.0001 12.9373 24.0001C19.0371 24.0001 23.9998 28.9628 23.9998 35.0626C23.9998 36.3653 23.7758 37.6402 23.3341 38.852C23.1567 39.3383 23.4073 39.8765 23.8938 40.0538C24.3802 40.2311 24.9184 39.9806 25.0957 39.4942C25.6127 38.076 25.8748 36.585 25.8748 35.0626C25.8748 34.6301 25.8531 34.2027 25.8114 33.781C27.4082 34.2581 29.0642 34.4998 30.7499 34.4998C34.2069 34.4998 37.5243 33.4877 40.373 31.5682L45.6457 32.981C45.9694 33.0677 46.3144 32.9752 46.5513 32.7383C46.7881 32.5015 46.8806 32.1563 46.7939 31.8327L45.3492 26.4414Z" fill="#FF3F3A"></path>
      <path d="M35.5824 19.2461H26.0337C25.5159 19.2461 25.0962 19.6658 25.0962 20.1836C25.0962 23.3331 27.6586 25.8955 30.8081 25.8955C33.9576 25.8955 36.52 23.3331 36.52 20.1836C36.5199 19.6658 36.1001 19.2461 35.5824 19.2461ZM30.8081 24.0204C29.0158 24.0204 27.5065 22.785 27.0871 21.121H34.5292C34.1096 22.785 32.6003 24.0204 30.8081 24.0204Z" fill="#FF3F3A"></path>
      <path d="M38.1075 14.0455C37.8358 13.6046 37.2582 13.4675 36.8176 13.739L36.6953 13.8145C36.2549 14.0867 36.1184 14.6643 36.3906 15.1048C36.5679 15.3918 36.8749 15.5497 37.189 15.5497C37.3571 15.5497 37.5274 15.5045 37.6809 15.4096L37.801 15.3354C38.2418 15.0638 38.3791 14.4863 38.1075 14.0455Z" fill="#FF3F3A"></path>
      <path d="M25.2266 14.0454C24.955 13.6046 24.3773 13.4675 23.9367 13.739L23.8145 13.8145C23.374 14.0867 23.2375 14.6644 23.5098 15.1048C23.6871 15.3918 23.994 15.5496 24.3082 15.5496C24.4763 15.5496 24.6465 15.5044 24.8001 15.4095L24.9202 15.3353C25.361 15.0637 25.4982 14.4862 25.2266 14.0454Z" fill="#FF3F3A"></path>
      <path d="M8.44309 34.3997C8.26871 34.2253 8.02684 34.125 7.78027 34.125C7.53371 34.125 7.29193 34.2253 7.11746 34.3997C6.94309 34.5741 6.84277 34.8159 6.84277 35.0625C6.84277 35.3091 6.94309 35.5509 7.11746 35.7253C7.29184 35.8997 7.53371 36 7.78027 36C8.02684 36 8.26871 35.8997 8.44309 35.7253C8.61746 35.5509 8.71777 35.3091 8.71777 35.0625C8.71777 34.8159 8.61746 34.5741 8.44309 34.3997Z" fill="#FF3F3A"></path>
      <path d="M13.5993 34.3997C13.425 34.2253 13.1831 34.125 12.9365 34.125C12.69 34.125 12.4482 34.2253 12.2737 34.3997C12.0993 34.5741 11.999 34.8159 11.999 35.0625C11.999 35.3091 12.0993 35.5509 12.2737 35.7253C12.4481 35.8997 12.69 36 12.9365 36C13.1831 36 13.425 35.8997 13.5993 35.7253C13.7737 35.5509 13.874 35.3091 13.874 35.0625C13.874 34.8159 13.7737 34.5741 13.5993 34.3997Z" fill="#FF3F3A"></path>
      <path d="M18.7566 34.3997C18.5822 34.2253 18.3403 34.125 18.0938 34.125C17.8472 34.125 17.6054 34.2253 17.4309 34.3997C17.2566 34.5741 17.1562 34.8159 17.1562 35.0625C17.1562 35.3091 17.2566 35.5509 17.4309 35.7253C17.6053 35.8997 17.8472 36 18.0938 36C18.3403 36 18.5822 35.8997 18.7566 35.7253C18.9309 35.5509 19.0312 35.3091 19.0312 35.0625C19.0312 34.8159 18.9309 34.5741 18.7566 34.3997Z" fill="#FF3F3A"></path>
      <path d="M22.9529 41.9182C22.7785 41.7439 22.5366 41.6436 22.29 41.6436C22.0425 41.6436 21.8016 41.7439 21.6272 41.9182C21.4529 42.0926 21.3525 42.3345 21.3525 42.5811C21.3525 42.8276 21.4529 43.0695 21.6272 43.2439C21.8016 43.4182 22.0425 43.5186 22.29 43.5186C22.5366 43.5186 22.7785 43.4182 22.9529 43.2439C23.1272 43.0695 23.2275 42.8276 23.2275 42.5811C23.2275 42.3345 23.1272 42.0926 22.9529 41.9182Z" fill="#FF3F3A"></path>
      <path d="M19.9099 5.0218C19.7355 4.84742 19.4936 4.74805 19.2471 4.74805C18.9996 4.74805 18.7586 4.84742 18.5843 5.0218C18.4089 5.19711 18.3096 5.43805 18.3096 5.68555C18.3096 5.93211 18.4089 6.17398 18.5843 6.34836C18.7586 6.52273 18.9995 6.62211 19.2471 6.62211C19.4936 6.62211 19.7355 6.52273 19.9099 6.34836C20.0843 6.17398 20.1846 5.93211 20.1846 5.68555C20.1846 5.43805 20.0843 5.19711 19.9099 5.0218Z" fill="#FF3F3A"></path>
    </g>
    <defs>
      <clipPath id="clip0_43633_283">
        <rect width="48" height="48" fill="white"></rect>
      </clipPath>
    </defs>
  </symbol>
  <symbol fill="none" xmlns="http://www.w3.org/2000/svg" viewBox="0 0 48 48" id="structure">
    <g clip-path="url(#clip0_43633_385)">
      <path d="M32.802 23.6183C32.6278 23.444 32.386 23.3438 32.1397 23.3438C31.8933 23.3438 31.6515 23.4439 31.4772 23.6183C31.303 23.7927 31.2026 24.0344 31.2026 24.2808C31.2026 24.5272 31.3028 24.7689 31.4772 24.9431C31.6515 25.1174 31.8933 25.2178 32.1397 25.2178C32.386 25.2178 32.6269 25.1176 32.802 24.9431C32.9763 24.7689 33.0767 24.5272 33.0767 24.2808C33.0767 24.0344 32.9764 23.7926 32.802 23.6183Z" fill="#FF3F3A"></path>
      <path d="M38.9807 2.54199H8.9955C8.47809 2.54199 8.05847 2.96162 8.05847 3.47902V18.4716C8.05847 18.989 8.47809 19.4086 8.9955 19.4086H23.0511V23.3442H7.04353C6.52612 23.3442 6.1065 23.7638 6.1065 24.2812V31.5901H0.937031C0.419625 31.5901 0 32.0097 0 32.5271V44.5212C0 45.0386 0.419625 45.4582 0.937031 45.4582H12.9311C13.4485 45.4582 13.8682 45.0386 13.8682 44.5212V32.5271C13.8682 32.0097 13.4485 31.5901 12.9311 31.5901H7.98056V25.2182H23.0511V31.5901H18.003C17.4856 31.5901 17.066 32.0097 17.066 32.5271V44.5212C17.066 45.0386 17.4856 45.4582 18.003 45.4582H29.9971C30.5145 45.4582 30.9341 45.0386 30.9341 44.5212V32.5271C30.9341 32.0096 30.5145 31.5901 29.9971 31.5901H24.9252V25.2182H28.6733C29.1908 25.2182 29.6104 24.7986 29.6104 24.2812C29.6104 23.7638 29.1908 23.3442 28.6733 23.3442H24.9252V19.4086H38.9808C39.4982 19.4086 39.9178 18.989 39.9178 18.4716V3.47902C39.9177 2.96152 39.4981 2.54199 38.9807 2.54199ZM11.9941 33.4641V43.5841H1.87406V33.4641H11.9941ZM29.06 33.4641V43.5841H18.94V33.4641H29.06ZM38.0437 17.5345H9.93253V8.16418H16.2803C16.7978 8.16418 17.2174 7.74455 17.2174 7.22715C17.2174 6.70974 16.7978 6.29012 16.2803 6.29012H9.93253V4.41605H38.0436V17.5345H38.0437Z" fill="#FF3F3A"></path>
      <path d="M47.0634 31.5896H41.8702V24.2808C41.8702 23.7634 41.4505 23.3438 40.9331 23.3438H35.7952C35.2778 23.3438 34.8581 23.7634 34.8581 24.2808C34.8581 24.7982 35.2778 25.2178 35.7952 25.2178H39.9961V31.5896H35.0694C34.5519 31.5896 34.1323 32.0092 34.1323 32.5267V44.5207C34.1323 45.0382 34.5519 45.4578 35.0694 45.4578H47.0634C47.5809 45.4578 48.0005 45.0382 48.0005 44.5207V32.5267C48.0005 32.0092 47.5809 31.5896 47.0634 31.5896ZM46.1264 43.5836H36.0064V33.4637H46.1264V43.5836Z" fill="#FF3F3A"></path>
      <path d="M20.8847 6.56463C20.7103 6.39035 20.4686 6.29004 20.2223 6.29004C19.9749 6.29004 19.7341 6.39016 19.5588 6.56463C19.3846 6.73891 19.2852 6.98069 19.2852 7.22707C19.2852 7.47354 19.3845 7.71523 19.5588 7.88941C19.734 8.0637 19.9758 8.1641 20.2223 8.1641C20.4688 8.1641 20.7095 8.06388 20.8847 7.88941C21.059 7.71523 21.1593 7.47345 21.1593 7.22707C21.1593 6.98069 21.0592 6.73891 20.8847 6.56463Z" fill="#FF3F3A"></path>
    </g>
    <defs>
      <clipPath id="clip0_43633_385">
        <rect width="48" height="48" fill="white"></rect>
      </clipPath>
    </defs>
  </symbol>
  <symbol fill="none" xmlns="http://www.w3.org/2000/svg" viewBox="0 0 48 48" id="target">
    <g clip-path="url(#clip0_43633_314)">
      <path d="M33.2982 37.0005C32.9796 36.6697 32.3918 36.5748 31.9597 36.9883C31.9567 36.9912 31.9536 36.9942 31.9505 36.9972C31.5241 37.4165 31.6012 38.007 31.9221 38.3354C32.0925 38.51 32.3384 38.6175 32.596 38.6175C32.8233 38.6175 33.0595 38.5338 33.2607 38.3385C33.69 37.9222 33.617 37.3311 33.2982 37.0005Z" fill="#FF3F3A"></path>
      <path d="M41.7867 18.9529C41.6067 18.4673 41.0676 18.2197 40.5821 18.3994C40.0966 18.5792 39.8488 19.1184 40.0286 19.6039C40.8379 21.7887 41.2481 24.0889 41.2481 26.4408C41.2481 37.295 32.4176 46.1255 21.5635 46.1255C17.5358 46.1255 13.664 44.9178 10.3664 42.633C9.94105 42.3381 9.35689 42.444 9.06205 42.8696C8.76711 43.2951 8.87305 43.8791 9.29868 44.1739C12.9114 46.6771 17.1525 48.0002 21.5636 48.0002C27.3224 48.0002 32.7363 45.7576 36.8084 41.6855C40.8805 37.6135 43.123 32.1994 43.123 26.4408C43.1229 23.866 42.6732 21.3467 41.7867 18.9529Z" fill="#FF3F3A"></path>
      <path d="M28.8232 6.13401C26.4975 5.30245 24.055 4.88086 21.5634 4.88086C15.8046 4.88086 10.3906 7.12345 6.31852 11.1954C2.2465 15.2676 0.00390625 20.6816 0.00390625 26.4403C0.00390625 30.9061 1.35728 35.1906 3.91796 38.8308C4.1004 39.0903 4.39055 39.2289 4.68549 39.2289C4.87177 39.2289 5.05993 39.1735 5.2239 39.0581C5.64736 38.7602 5.74918 38.1755 5.45133 37.7521C3.11406 34.4294 1.87862 30.5179 1.87862 26.4402C1.87862 15.5861 10.7092 6.75557 21.5633 6.75557C23.8393 6.75557 26.0694 7.14032 28.1919 7.89923C28.6793 8.0736 29.2159 7.81973 29.3901 7.33223C29.5644 6.84482 29.3106 6.30839 28.8232 6.13401Z" fill="#FF3F3A"></path>
      <path d="M47.9251 7.77379C47.78 7.42344 47.4383 7.19516 47.059 7.19516H42.1337L42.6634 6.66548C43.0294 6.29948 43.0294 5.70585 42.6634 5.33976C42.2973 4.97376 41.7039 4.97376 41.3377 5.33976L40.8012 5.8762V0.937456C40.8012 0.558426 40.5728 0.21652 40.2226 0.0713954C39.8723 -0.0737293 39.4691 0.0065205 39.2011 0.274551L30.9376 8.53804C30.7619 8.71382 30.663 8.95222 30.663 9.20085V12.4526C27.9592 10.6839 24.8421 9.75538 21.5626 9.75538C12.3624 9.75538 4.87744 17.2404 4.87744 26.4405C4.87744 35.6406 12.3624 43.1256 21.5626 43.1256C24.6162 43.1256 27.6036 42.2928 30.2019 40.7175C30.6446 40.4491 30.7858 39.8726 30.5175 39.4299C30.2491 38.9873 29.6727 38.8459 29.23 39.1144C26.9248 40.5121 24.2734 41.2508 21.5626 41.2508C13.3961 41.2508 6.75216 34.607 6.75216 26.4404C6.75216 18.2739 13.3961 11.63 21.5626 11.63C24.8972 11.63 28.0424 12.7108 30.663 14.7556V16.0142L28.9548 17.7224C26.9599 16.0283 24.3788 15.0044 21.5626 15.0044C15.2568 15.0044 10.1267 20.1345 10.1267 26.4403C10.1267 32.7461 15.2568 37.8762 21.5626 37.8762C27.8684 37.8762 32.9984 32.7461 32.9984 26.4403C32.9984 23.6242 31.9747 21.043 30.2805 19.048L31.9954 17.3331H33.2425C35.2633 19.9229 36.3729 23.1446 36.3729 26.4403C36.3729 29.2038 35.607 31.8992 34.1582 34.235C33.8853 34.6748 34.0208 35.2527 34.4609 35.5256C34.6147 35.621 34.7853 35.6665 34.954 35.6665C35.2677 35.6665 35.574 35.5091 35.7515 35.2232C37.3846 32.5904 38.2477 29.5534 38.2477 26.4403C38.2477 23.2025 37.2966 20.0278 35.5431 17.3331H38.7954C39.044 17.3331 39.2823 17.2343 39.4582 17.0585L47.7217 8.795C47.99 8.52725 48.0701 8.12404 47.9251 7.77379ZM31.1239 26.4405C31.1239 31.7125 26.8348 36.0017 21.5628 36.0017C16.2907 36.0017 12.0016 31.7125 12.0016 26.4405C12.0016 21.1685 16.2907 16.8793 21.5628 16.8793C23.862 16.8793 25.974 17.6952 27.6251 19.0525L25.4902 21.1874C24.3946 20.3661 23.0345 19.879 21.5628 19.879C17.9448 19.879 15.0013 22.8225 15.0013 26.4405C15.0013 30.0586 17.9449 33.0021 21.5628 33.0021C25.1809 33.0021 28.1244 30.0585 28.1244 26.4405C28.1244 24.9688 27.6373 23.6088 26.8159 22.513L28.9508 20.3782C30.308 22.0293 31.1239 24.1413 31.1239 26.4405ZM20.8999 27.1034C21.083 27.2865 21.3228 27.378 21.5628 27.378C21.8027 27.378 22.0425 27.2865 22.2256 27.1034L25.4711 23.8579C25.9624 24.599 26.2496 25.4867 26.2496 26.4405C26.2496 29.0248 24.1471 31.1273 21.5628 31.1273C18.9784 31.1273 16.8759 29.0248 16.8759 26.4405C16.8759 23.8562 18.9784 21.7537 21.5628 21.7537C22.5167 21.7537 23.4043 22.0408 24.1455 22.5322L20.8999 25.7777C20.5339 26.1437 20.5339 26.7372 20.8999 27.1034ZM32.538 14.1396V9.58916L38.9266 3.20048V7.75091L32.538 14.1396ZM38.4073 15.4586H33.8704L40.2591 9.06988H44.796L38.4073 15.4586Z" fill="#FF3F3A"></path>
      <path d="M7.62444 40.3401C7.45016 40.1658 7.20838 40.0654 6.96182 40.0654C6.71423 40.0654 6.47244 40.1657 6.2991 40.3401C6.12379 40.5145 6.02441 40.7563 6.02441 41.0028C6.02441 41.2494 6.12379 41.4912 6.2991 41.6656C6.47338 41.8399 6.71432 41.9402 6.96182 41.9402C7.20838 41.9402 7.45016 41.8399 7.62444 41.6656C7.79882 41.4912 7.89922 41.2494 7.89922 41.0028C7.89922 40.7563 7.79891 40.5154 7.62444 40.3401Z" fill="#FF3F3A"></path>
    </g>
    <defs>
      <clipPath id="clip0_43633_314">
        <rect width="48" height="48" fill="white"></rect>
      </clipPath>
    </defs>
  </symbol>
</svg>