<svg width="0" height="0" class="hidden">
  <symbol fill="none" xmlns="http://www.w3.org/2000/svg" viewBox="0 0 130 22" id="logo">
    <g clip-path="url(#clip0_43438_1647)">
      <path d="M0 11.0998C0 4.9998 3.3 1.2998 8.7 1.2998C12.8 1.2998 16.1 3.7998 16.7 7.4998C16.8 7.8998 16.5 8.1998 16.1 8.1998H13.5C13.2 8.1998 13 7.9998 12.9 7.6998C12.4 5.7998 10.8 4.5998 8.7 4.5998C5.8 4.5998 4 7.0998 4 11.0998C4 15.0998 5.8 17.5998 8.8 17.5998C10.9 17.5998 12.4 16.4998 13 14.6998C13.1 14.3998 13.3 14.1998 13.6 14.1998H16.2C16.6 14.1998 16.9 14.5998 16.8 14.8998C16.2 18.4998 13 20.8998 8.8 20.8998C3.3 20.8998 0 17.0998 0 11.0998Z" fill="#1E212C"></path>
      <path d="M24.2997 20.4001H21.3997C21.0997 20.4001 20.8997 20.2001 20.8997 19.9001V2.60006C20.8997 2.20006 21.2997 1.80006 21.6997 1.80006H28.6997C32.7997 1.80006 35.2997 4.10006 35.2997 7.70006C35.2997 9.80006 34.2997 11.7001 32.5997 12.7001C32.1997 12.9001 32.0997 13.4001 32.2997 13.7001L35.3997 19.6001C35.5997 19.9001 35.2997 20.3001 34.9997 20.3001H31.6997C31.4997 20.3001 31.2997 20.2001 31.1997 20.0001L28.2997 14.0001C28.1997 13.7001 27.8997 13.6001 27.5997 13.6001H25.2997C24.9997 13.6001 24.7997 13.8001 24.7997 14.1001V20.0001C24.8997 20.2001 24.5997 20.4001 24.2997 20.4001ZM24.8997 10.2001C24.8997 10.5001 25.0997 10.7001 25.3997 10.7001H28.3997C30.3997 10.7001 31.4997 9.60006 31.4997 7.80006C31.4997 6.00006 30.2997 4.90006 28.3997 4.90006H25.4997C25.1997 4.90006 24.9997 5.10006 24.9997 5.40006V10.2001H24.8997Z" fill="#1E212C"></path>
      <path d="M51.4998 20.4001H40.4998C40.0998 20.4001 39.7998 20.1001 39.7998 19.7001V2.50006C39.7998 2.10006 40.0998 1.80006 40.4998 1.80006H51.4998C51.8998 1.80006 52.1998 2.10006 52.1998 2.50006V4.40006C52.1998 4.80006 51.8998 5.10006 51.4998 5.10006H44.1998C43.8998 5.10006 43.6998 5.30006 43.6998 5.60006V9.00006C43.6998 9.30006 43.8998 9.50006 44.1998 9.50006H50.9998C51.3998 9.50006 51.6998 9.80006 51.6998 10.2001V11.9001C51.6998 12.3001 51.3998 12.6001 50.9998 12.6001H44.1998C43.8998 12.6001 43.6998 12.8001 43.6998 13.1001V16.9001C43.6998 17.2001 43.8998 17.4001 44.1998 17.4001H51.4998C51.8998 17.4001 52.1998 17.7001 52.1998 18.1001V20.0001C52.1998 20.1001 51.8998 20.4001 51.4998 20.4001Z" fill="#1E212C"></path>
      <path d="M66.9999 15.9001H61.2999C60.9999 15.9001 60.7999 16.1001 60.6999 16.3001L59.5999 20.0001C59.4999 20.3001 59.2999 20.4001 58.9999 20.4001H56.3999C55.9999 20.4001 55.6999 20.0001 55.7999 19.6001L61.7999 2.20006C61.8999 2.00006 62.0999 1.80006 62.3999 1.80006H66.0999C66.3999 1.80006 66.5999 2.00006 66.6999 2.20006L72.6999 19.6001C72.7999 20.0001 72.4999 20.4001 72.0999 20.4001H69.1999C68.8999 20.4001 68.6999 20.2001 68.5999 20.0001L67.4999 16.3001C67.4999 16.1001 67.1999 15.9001 66.9999 15.9001ZM62.0999 13.0001H66.1999C66.3999 13.0001 66.4999 12.8001 66.4999 12.6001L64.2999 5.60006H64.0999L61.8999 12.6001C61.7999 12.8001 61.8999 13.0001 62.0999 13.0001Z" fill="#1E212C"></path>
      <path d="M79.0001 19.7005V5.50045C79.0001 5.20045 78.8001 5.00045 78.5001 5.00045H74.1001C73.7001 5.00045 73.3001 4.70045 73.3001 4.20045V2.50045C73.3001 2.10045 73.6001 1.70045 74.1001 1.70045H87.7001C88.1001 1.70045 88.5001 2.00045 88.5001 2.50045V4.20045C88.5001 4.60045 88.2001 5.00045 87.7001 5.00045H83.3001C83.0001 5.00045 82.8001 5.20045 82.8001 5.50045V19.8004C82.8001 20.2004 82.5001 20.5005 82.1001 20.5005H79.6001C79.3001 20.4004 79.0001 20.1005 79.0001 19.7005Z" fill="#1E212C"></path>
      <path d="M103.8 20.4001H92.7999C92.3999 20.4001 92.0999 20.1001 92.0999 19.7001V2.50006C92.0999 2.10006 92.3999 1.80006 92.7999 1.80006H103.8C104.2 1.80006 104.5 2.10006 104.5 2.50006V4.40006C104.5 4.80006 104.2 5.10006 103.8 5.10006H96.4999C96.1999 5.10006 95.9999 5.30006 95.9999 5.60006V9.00006C95.9999 9.30006 96.1999 9.50006 96.4999 9.50006H103.3C103.7 9.50006 104 9.80006 104 10.2001V11.9001C104 12.3001 103.7 12.6001 103.3 12.6001H96.4999C96.1999 12.6001 95.9999 12.8001 95.9999 13.1001V16.9001C95.9999 17.2001 96.1999 17.4001 96.4999 17.4001H103.8C104.2 17.4001 104.5 17.7001 104.5 18.1001V20.0001C104.5 20.1001 104.2 20.4001 103.8 20.4001Z" fill="#1E212C"></path>
      <path d="M117.7 9.7L111.5 1.6C111.1 1.2 110.6 1 110.1 1C109.6 1 109.1 1.2 108.7 1.6C108 2.4 108 3.6 108.7 4.4L113.6 11L108.7 17.6C108 18.4 108 19.6 108.7 20.4C109.1 20.8 109.6 21 110.1 21C110.6 21 111.1 20.8 111.5 20.4L117.7 12.3C118.4 11.7 118.4 10.5 117.7 9.7Z" fill="#FF3F3A"></path>
      <path d="M120.343 9.7L126.543 1.6C126.943 1.2 127.443 1 127.943 1C128.443 1 128.943 1.2 129.343 1.6C130.043 2.4 130.043 3.6 129.343 4.4L124.443 11L129.343 17.6C130.043 18.4 130.043 19.6 129.343 20.4C128.943 20.8 128.443 21 127.943 21C127.443 21 126.943 20.8 126.543 20.4L120.343 12.3C119.643 11.7 119.643 10.5 120.343 9.7Z" fill="#FF3F3A"></path>
    </g>
    <defs>
      <clipPath id="clip0_43438_1647">
        <rect width="130" height="22" fill="white"></rect>
      </clipPath>
    </defs>
  </symbol>
  <symbol xmlns="http://www.w3.org/2000/svg" viewBox="0 0 18 18" id="person">
    <path d="M9.00019 1.70866C7.38936 1.70866 6.08353 3.0145 6.08353 4.62533C6.08353 6.23616 7.38936 7.54199 9.00019 7.54199C10.611 7.54199 11.9169 6.23616 11.9169 4.62533C11.9169 3.0145 10.611 1.70866 9.00019 1.70866ZM4.41686 4.62533C4.41686 2.09402 6.46889 0.0419922 9.00019 0.0419922C11.5315 0.0419922 13.5835 2.09402 13.5835 4.62533C13.5835 7.15663 11.5315 9.20866 9.00019 9.20866C6.46889 9.20866 4.41686 7.15663 4.41686 4.62533Z"></path>
    <path d="M4.08691 11.7087C3.50914 11.7087 3.05756 11.99 2.87424 12.3942C2.62053 12.9536 2.39078 13.6196 2.33656 14.2513C2.31233 14.5337 2.43006 14.7418 2.5923 14.8426C3.44993 15.3753 5.43719 16.292 9.00019 16.292C12.5632 16.292 14.5505 15.3753 15.4081 14.8426C15.5703 14.7418 15.6881 14.5337 15.6638 14.2513C15.6096 13.6196 15.3799 12.9536 15.1261 12.3942C14.9428 11.99 14.4912 11.7087 13.9135 11.7087H4.08691ZM1.35639 11.7058C1.86301 10.5887 2.99428 10.042 4.08691 10.042H13.9135C15.0061 10.042 16.1374 10.5887 16.644 11.7058C16.935 12.3474 17.2472 13.2099 17.3244 14.1088C17.3946 14.9273 17.0544 15.7819 16.2876 16.2583C15.1596 16.959 12.8665 17.9587 9.00019 17.9587C5.13386 17.9587 2.84078 16.959 1.71283 16.2583C0.945947 15.7819 0.605747 14.9273 0.676001 14.1088C0.753149 13.2099 1.0654 12.3474 1.35639 11.7058Z"></path>
  </symbol>
  <symbol xmlns="http://www.w3.org/2000/svg" viewBox="0 0 16 15" id="star">
    <path d="M6.77932 0.959277C7.24248 -0.108821 8.75719 -0.108822 9.22036 0.959277L10.6214 4.19028L14.1273 4.52435C15.2862 4.63478 15.7543 6.07536 14.8816 6.84592L12.2417 9.17685L13.0073 12.6143C13.2604 13.7507 12.035 14.641 11.0325 14.0491L7.99984 12.2587L4.96721 14.0491C3.96469 14.641 2.73926 13.7507 2.99236 12.6143L3.75801 9.17685L1.11809 6.84592C0.245398 6.07536 0.71347 4.63478 1.87242 4.52435L5.37824 4.19028L6.77932 0.959277ZM9.40091 4.71954L7.99984 1.48854L6.59876 4.71954C6.406 5.16408 5.98678 5.46865 5.50444 5.51462L1.99861 5.84868L4.63852 8.17962C5.00174 8.50032 5.16186 8.99313 5.05652 9.46608L4.29088 12.9035L7.32351 11.1131C7.74075 10.8668 8.25893 10.8668 8.67617 11.1131L11.7088 12.9035L10.9432 9.46608C10.8378 8.99313 10.9979 8.50032 11.3612 8.17962L14.0011 5.84868L10.4952 5.51462C10.0129 5.46865 9.59368 5.16408 9.40091 4.71954Z"></path>
  </symbol>
  <symbol xmlns="http://www.w3.org/2000/svg" viewBox="0 0 16 15" id="shape">
    <path d="M9.4547 1.65951C9.36168 1.65951 9.27547 1.70895 9.22843 1.78955L9.22433 1.79657L6.16683 6.75334V13.3262H11.8907C12.0135 13.3262 12.1198 13.2409 12.1464 13.1212L12.1487 13.1108L13.8487 6.47102C13.8798 6.31008 13.7565 6.15951 13.5915 6.15951H11.0002C10.566 6.15951 10.1268 6.01446 9.80696 5.70232C9.47075 5.37417 9.31488 4.90422 9.41491 4.39791L9.89414 1.9722C9.92614 1.81025 9.80219 1.65951 9.63725 1.65951H9.4547ZM4.8335 13.3262V7.23093H2.47118C2.32739 7.23093 2.2104 7.34695 2.20929 7.49091C2.20929 7.49091 2.20929 7.4909 2.20929 7.49091L2.16684 13.0623C2.16572 13.2076 2.28327 13.3262 2.42868 13.3262H4.8335ZM5.12809 5.8976L8.08155 1.1095C8.36843 0.624404 8.89032 0.326172 9.4547 0.326172H9.63725C10.6424 0.326172 11.397 1.24456 11.2022 2.23062L10.723 4.65633C10.7144 4.6995 10.72 4.71912 10.7213 4.72343C10.7228 4.72822 10.726 4.7362 10.7383 4.74814C10.7661 4.77536 10.8492 4.82617 11.0002 4.82617H13.5915C14.6121 4.82617 15.3701 5.77142 15.1487 6.76758L15.1464 6.77798L13.4453 13.4222C13.2788 14.1459 12.6343 14.6595 11.8907 14.6595H2.42868C1.54298 14.6595 0.826756 13.9379 0.833544 13.0522C0.833544 13.0521 0.833544 13.0522 0.833544 13.0522L0.875993 7.48073C0.88271 6.60454 1.59485 5.8976 2.47118 5.8976H5.12809Z"></path>
  </symbol>
  <symbol xmlns="http://www.w3.org/2000/svg" viewBox="0 0 16 15" id="layouts">
    <path d="M7.70184 0.228585C7.88953 0.134742 8.11044 0.134742 8.29813 0.228585L14.9648 3.56192C15.1906 3.67485 15.3333 3.90569 15.3333 4.1582C15.3333 4.41072 15.1906 4.64156 14.9648 4.75449L8.29813 8.08782C8.11044 8.18166 7.88953 8.18166 7.70184 8.08782L1.03517 4.75449C0.809318 4.64156 0.66665 4.41072 0.66665 4.1582C0.66665 3.90569 0.809318 3.67485 1.03517 3.56192L7.70184 0.228585ZM2.82403 4.1582L7.99998 6.74618L13.1759 4.1582L7.99998 1.57023L2.82403 4.1582Z"></path>
    <path d="M0.737032 7.19339C0.901691 6.86407 1.30214 6.73059 1.63146 6.89525L7.99998 10.0795L14.3685 6.89525C14.6978 6.73059 15.0983 6.86407 15.2629 7.19339C15.4276 7.52271 15.2941 7.92316 14.9648 8.08782L8.29813 11.4212C8.11044 11.515 7.88953 11.515 7.70184 11.4212L1.03517 8.08782C0.705855 7.92316 0.572372 7.52271 0.737032 7.19339Z"></path>
    <path d="M0.737032 10.5267C0.901691 10.1974 1.30214 10.0639 1.63146 10.2286L7.99998 13.4128L14.3685 10.2286C14.6978 10.0639 15.0983 10.1974 15.2629 10.5267C15.4276 10.856 15.2941 11.2565 14.9648 11.4212L8.29813 14.7545C8.11044 14.8483 7.88953 14.8483 7.70184 14.7545L1.03517 11.4212C0.705855 11.2565 0.572372 10.856 0.737032 10.5267Z"></path>
  </symbol>
  <symbol xmlns="http://www.w3.org/2000/svg" viewBox="0 0 16 14" id="chat">
    <path d="M14.6153 6.53776C14.5204 7.19558 14.2954 7.8208 13.9619 8.39574C13.9869 8.53809 13.9997 8.68197 13.9997 8.82648C13.9997 9.32836 13.8543 9.80868 13.5849 10.2451C13.4504 10.4629 13.4158 10.7182 13.4025 10.8868C13.3873 11.0801 13.3924 11.2915 13.4062 11.4947C13.4217 11.7226 13.4497 11.9619 13.4818 12.1876C13.2216 12.1117 12.9395 12.0355 12.6704 11.9748C12.4465 11.9243 12.2174 11.8813 12.0099 11.8598C11.8289 11.8411 11.5674 11.8267 11.3335 11.9023C10.8221 12.0676 10.2594 12.1598 9.66636 12.1598C8.96109 12.1598 8.31335 12.0346 7.74559 11.8171C7.60903 11.8233 7.47146 11.8265 7.33301 11.8265C6.52993 11.8265 5.75701 11.7209 5.03385 11.5257C6.08516 12.7416 7.81828 13.4931 9.66636 13.4931C10.3883 13.4931 11.0812 13.3823 11.7198 13.1786C11.7209 13.1787 11.723 13.1786 11.726 13.1786C11.7424 13.1782 11.7879 13.1773 11.8729 13.1861C12.0067 13.1999 12.1786 13.2307 12.377 13.2755C12.7719 13.3646 13.2157 13.496 13.5615 13.6058C14.2949 13.8386 15.0056 13.1986 14.8745 12.4543C14.8181 12.134 14.7595 11.743 14.7365 11.4044C14.7249 11.2341 14.7236 11.0943 14.7317 10.9917C14.7351 10.9492 14.7394 10.9225 14.7421 10.9084C15.1172 10.2871 15.333 9.57963 15.333 8.82648C15.333 7.97744 15.0693 7.20213 14.6153 6.53776Z"></path>
    <path d="M3.73109 3.29161C2.83245 3.97881 2.33306 4.8809 2.33306 5.82617C2.33306 6.29753 2.45577 6.7515 2.68599 7.17366C2.77367 7.33445 2.79854 7.50031 2.80744 7.61259C2.81714 7.73502 2.8123 7.86085 2.80166 7.97852C2.78034 8.2141 2.72949 8.48102 2.66849 8.74393C2.59715 9.05146 2.50572 9.37943 2.41296 9.68737C2.76512 9.55937 3.15003 9.4282 3.51493 9.32174C3.80985 9.23571 4.10767 9.16105 4.37274 9.11913C4.60108 9.08303 4.93243 9.04754 5.2177 9.14624C5.85792 9.36774 6.57411 9.49284 7.33306 9.49284C8.76451 9.49284 10.0358 9.04839 10.935 8.36073C11.8337 7.67354 12.3331 6.77145 12.3331 5.82617C12.3331 4.8809 11.8337 3.97881 10.935 3.29161C10.0358 2.60395 8.76451 2.15951 7.33306 2.15951C5.90162 2.15951 4.63034 2.60395 3.73109 3.29161ZM2.92116 2.23247C4.07283 1.35178 5.6349 0.826172 7.33306 0.826172C9.03123 0.826172 10.5933 1.35178 11.745 2.23247C12.8973 3.11363 13.6664 4.37821 13.6664 5.82617C13.6664 7.27413 12.8973 8.53871 11.745 9.41987C10.5933 10.3006 9.03123 10.8262 7.33306 10.8262C6.43769 10.8262 5.58244 10.6802 4.80591 10.4146C4.80513 10.4168 4.74215 10.4106 4.58098 10.4361C4.39521 10.4655 4.15809 10.523 3.88836 10.6017C3.35138 10.7584 2.74835 10.98 2.28902 11.1588C1.49327 11.4685 0.682633 10.7042 0.95074 9.89013C1.09284 9.45866 1.26043 8.9134 1.36966 8.4426C1.42468 8.20543 1.46039 8.00603 1.47375 7.85836C1.47839 7.80711 1.47958 7.76974 1.47932 7.74448C1.17246 7.15811 0.99973 6.50967 0.99973 5.82617C0.99973 4.37821 1.76887 3.11364 2.92116 2.23247Z"></path>
  </symbol>
</svg>