<svg width="182" height="134" viewBox="0 0 182 134" fill="none" xmlns="http://www.w3.org/2000/svg"><path d="M5.404 39.915c0 1.472-1.108 2.576-2.585 2.576-1.477 0-2.585-1.104-2.585-2.576S1.342 37.34 2.82 37.34c1.477 0 2.585 1.227 2.585 2.576Zm22.033 0c0 1.472-1.108 2.576-2.585 2.576-1.477 0-2.585-1.104-2.585-2.576s1.108-2.576 2.585-2.576c1.354 0 2.585 1.227 2.585 2.576Zm21.909 0c0 1.472-1.108 2.576-2.585 2.576-1.477 0-2.585-1.104-2.585-2.576s1.108-2.576 2.585-2.576c1.477 0 2.585 1.227 2.585 2.576Zm22.032 0c0 1.472-1.108 2.576-2.585 2.576-1.477 0-2.585-1.104-2.585-2.576s1.108-2.576 2.585-2.576c1.477 0 2.585 1.227 2.585 2.576Zm22.032 0c0 1.472-1.107 2.576-2.584 2.576s-2.585-1.104-2.585-2.576 1.108-2.576 2.585-2.576c1.354 0 2.585 1.227 2.585 2.576Zm22.034 0c0 1.472-1.108 2.576-2.585 2.576-1.477 0-2.585-1.104-2.585-2.576s1.108-2.576 2.585-2.576c1.477 0 2.585 1.227 2.585 2.576Zm21.909 0c0 1.472-1.108 2.576-2.585 2.576-1.477 0-2.585-1.104-2.585-2.576s1.108-2.576 2.585-2.576c1.477 0 2.585 1.227 2.585 2.576Zm22.032 0c0 1.472-1.107 2.576-2.584 2.576s-2.585-1.104-2.585-2.576 1.108-2.576 2.585-2.576c1.477 0 2.584 1.227 2.584 2.576Zm22.033 0c0 1.472-1.108 2.576-2.585 2.576-1.477 0-2.584-1.104-2.584-2.576s1.107-2.576 2.584-2.576c1.354 0 2.585 1.227 2.585 2.576ZM5.404 58.194c0 1.473-1.108 2.577-2.585 2.577-1.477 0-2.585-1.104-2.585-2.577 0-1.472 1.108-2.576 2.585-2.576 1.477 0 2.585 1.104 2.585 2.576Zm22.033 0c0 1.473-1.108 2.577-2.585 2.577-1.477 0-2.585-1.104-2.585-2.577 0-1.472 1.108-2.576 2.585-2.576 1.354 0 2.585 1.104 2.585 2.576Zm21.909 0c0 1.473-1.108 2.577-2.585 2.577-1.477 0-2.585-1.104-2.585-2.577 0-1.472 1.108-2.576 2.585-2.576 1.477 0 2.585 1.104 2.585 2.576Zm22.032 0c0 1.473-1.108 2.577-2.585 2.577-1.477 0-2.585-1.104-2.585-2.577 0-1.472 1.108-2.576 2.585-2.576 1.477 0 2.585 1.104 2.585 2.576Zm22.032 0c0 1.473-1.107 2.577-2.584 2.577s-2.585-1.104-2.585-2.577c0-1.472 1.108-2.576 2.585-2.576 1.354 0 2.585 1.104 2.585 2.576Zm22.034 0c0 1.473-1.108 2.577-2.585 2.577-1.477 0-2.585-1.104-2.585-2.577 0-1.472 1.108-2.576 2.585-2.576 1.477 0 2.585 1.104 2.585 2.576Zm21.909 0c0 1.473-1.108 2.577-2.585 2.577-1.477 0-2.585-1.104-2.585-2.577 0-1.472 1.108-2.576 2.585-2.576 1.477 0 2.585 1.104 2.585 2.576Zm22.032 0c0 1.473-1.107 2.577-2.584 2.577s-2.585-1.104-2.585-2.577c0-1.472 1.108-2.576 2.585-2.576 1.477 0 2.584 1.104 2.584 2.576Zm22.033 0c0 1.473-1.108 2.577-2.585 2.577-1.477 0-2.584-1.104-2.584-2.577 0-1.472 1.107-2.576 2.584-2.576 1.354 0 2.585 1.104 2.585 2.576ZM5.404 3.48c0 1.472-1.108 2.576-2.585 2.576C1.342 6.056.234 4.952.234 3.48.234 2.007 1.342.903 2.82.903c1.477 0 2.585 1.104 2.585 2.577Zm22.033 0c0 1.472-1.108 2.576-2.585 2.576-1.477 0-2.585-1.104-2.585-2.576 0-1.473 1.108-2.577 2.585-2.577 1.354 0 2.585 1.104 2.585 2.577Zm21.909 0c0 1.472-1.108 2.576-2.585 2.576-1.477 0-2.585-1.104-2.585-2.576 0-1.473 1.231-2.577 2.585-2.577 1.477 0 2.585 1.104 2.585 2.577Zm22.032 0c0 1.472-1.108 2.576-2.585 2.576-1.477 0-2.585-1.104-2.585-2.576 0-1.473 1.231-2.577 2.585-2.577 1.354 0 2.585 1.104 2.585 2.577Zm22.032 0c0 1.472-1.107 2.576-2.584 2.576s-2.585-1.104-2.585-2.576c0-1.473 1.108-2.577 2.585-2.577 1.354 0 2.585 1.104 2.585 2.577Zm22.034 0c0 1.472-1.108 2.576-2.585 2.576-1.477 0-2.585-1.104-2.585-2.576 0-1.473 1.108-2.577 2.585-2.577 1.477 0 2.585 1.104 2.585 2.577Zm21.909 0c0 1.472-1.108 2.576-2.585 2.576-1.477 0-2.585-1.104-2.585-2.576 0-1.473 1.108-2.577 2.585-2.577 1.477 0 2.585 1.104 2.585 2.577Zm22.032 0c0 1.472-1.107 2.576-2.584 2.576s-2.585-1.104-2.585-2.576c0-1.473 1.108-2.577 2.585-2.577 1.477 0 2.584 1.104 2.584 2.577Zm22.033 0c0 1.472-1.108 2.576-2.585 2.576-1.477 0-2.584-1.104-2.584-2.576 0-1.473 1.107-2.577 2.584-2.577 1.354 0 2.585 1.104 2.585 2.577ZM5.404 21.759c0 1.472-1.108 2.576-2.585 2.576-1.477 0-2.585-1.227-2.585-2.576 0-1.472 1.108-2.576 2.585-2.576 1.477 0 2.585 1.104 2.585 2.576Zm22.033 0c0 1.472-1.108 2.576-2.585 2.576-1.477 0-2.585-1.104-2.585-2.576s1.108-2.576 2.585-2.576c1.354 0 2.585 1.104 2.585 2.576Zm21.909 0c0 1.472-1.108 2.576-2.585 2.576-1.477 0-2.585-1.104-2.585-2.576s1.108-2.576 2.585-2.576c1.477 0 2.585 1.104 2.585 2.576Zm22.032 0c0 1.472-1.108 2.576-2.585 2.576-1.477 0-2.585-1.104-2.585-2.576s1.108-2.576 2.585-2.576c1.477 0 2.585 1.104 2.585 2.576Zm22.032 0c0 1.472-1.107 2.576-2.584 2.576s-2.585-1.104-2.585-2.576 1.108-2.576 2.585-2.576c1.354 0 2.585 1.104 2.585 2.576Zm22.034 0c0 1.472-1.108 2.576-2.585 2.576-1.477 0-2.585-1.104-2.585-2.576s1.108-2.576 2.585-2.576c1.477 0 2.585 1.104 2.585 2.576Zm21.909 0c0 1.472-1.108 2.576-2.585 2.576-1.477 0-2.585-1.104-2.585-2.576s1.108-2.576 2.585-2.576c1.477 0 2.585 1.104 2.585 2.576Zm22.032 0c0 1.472-1.107 2.576-2.584 2.576s-2.585-1.104-2.585-2.576 1.108-2.576 2.585-2.576c1.477 0 2.584 1.104 2.584 2.576Zm22.033 0c0 1.472-1.108 2.576-2.585 2.576-1.477 0-2.584-1.104-2.584-2.576s1.107-2.576 2.584-2.576c1.354 0 2.585 1.104 2.585 2.576ZM5.404 76.35c0 1.473-1.108 2.577-2.585 2.577-1.477 0-2.585-1.104-2.585-2.576s1.108-2.577 2.585-2.577c1.477 0 2.585 1.227 2.585 2.577Zm22.033 0c0 1.473-1.108 2.577-2.585 2.577-1.477 0-2.585-1.104-2.585-2.576s1.108-2.577 2.585-2.577c1.354 0 2.585 1.227 2.585 2.577Zm21.909 0c0 1.473-1.108 2.577-2.585 2.577-1.477 0-2.585-1.104-2.585-2.576s1.108-2.577 2.585-2.577c1.477 0 2.585 1.227 2.585 2.577Zm22.032 0c0 1.473-1.108 2.577-2.585 2.577-1.477 0-2.585-1.104-2.585-2.576s1.108-2.577 2.585-2.577c1.477 0 2.585 1.227 2.585 2.577Zm22.032 0c0 1.473-1.107 2.577-2.584 2.577s-2.585-1.104-2.585-2.576 1.108-2.577 2.585-2.577c1.354 0 2.585 1.227 2.585 2.577Zm22.034 0c0 1.473-1.108 2.577-2.585 2.577-1.477 0-2.585-1.104-2.585-2.576s1.108-2.577 2.585-2.577c1.477 0 2.585 1.227 2.585 2.577Zm21.909 0c0 1.473-1.108 2.577-2.585 2.577-1.477 0-2.585-1.104-2.585-2.576s1.108-2.577 2.585-2.577c1.477 0 2.585 1.227 2.585 2.577Zm22.032 0c0 1.473-1.107 2.577-2.584 2.577s-2.585-1.104-2.585-2.576 1.108-2.577 2.585-2.577c1.477 0 2.584 1.227 2.584 2.577Zm22.033 0c0 1.473-1.108 2.577-2.585 2.577-1.477 0-2.584-1.104-2.584-2.576s1.107-2.577 2.584-2.577c1.354 0 2.585 1.227 2.585 2.577ZM5.404 94.63c0 1.472-1.108 2.576-2.585 2.576-1.477 0-2.585-1.104-2.585-2.576s1.108-2.576 2.585-2.576c1.477 0 2.585 1.104 2.585 2.576Zm22.033 0c0 1.472-1.108 2.576-2.585 2.576-1.477 0-2.585-1.104-2.585-2.576s1.108-2.576 2.585-2.576c1.354 0 2.585 1.104 2.585 2.576Zm21.909 0c0 1.472-1.108 2.576-2.585 2.576-1.477 0-2.585-1.104-2.585-2.576s1.108-2.576 2.585-2.576c1.477 0 2.585 1.104 2.585 2.576Zm19.447 2.576a2.58 2.58 0 0 0 2.585-2.576 2.58 2.58 0 0 0-2.585-2.576 2.58 2.58 0 0 0-2.585 2.576 2.58 2.58 0 0 0 2.585 2.576ZM93.41 94.63c0 1.472-1.107 2.576-2.584 2.576s-2.585-1.104-2.585-2.576 1.108-2.576 2.585-2.576c1.354 0 2.585 1.104 2.585 2.576Zm22.034 0c0 1.472-1.108 2.576-2.585 2.576-1.477 0-2.585-1.104-2.585-2.576s1.108-2.576 2.585-2.576c1.477 0 2.585 1.104 2.585 2.576Zm21.909 0c0 1.472-1.108 2.576-2.585 2.576-1.477 0-2.585-1.104-2.585-2.576s1.108-2.576 2.585-2.576c1.477 0 2.585 1.104 2.585 2.576Zm19.448 2.576a2.58 2.58 0 0 0 2.584-2.576 2.58 2.58 0 0 0-2.584-2.576 2.58 2.58 0 0 0-2.585 2.576 2.58 2.58 0 0 0 2.585 2.576Zm24.617-2.576c0 1.472-1.108 2.576-2.585 2.576-1.477 0-2.584-1.104-2.584-2.576s1.107-2.576 2.584-2.576c1.354 0 2.585 1.104 2.585 2.576ZM5.404 112.909c0 1.472-1.108 2.577-2.585 2.577-1.477 0-2.585-1.105-2.585-2.577s1.108-2.576 2.585-2.576c1.477 0 2.585 1.104 2.585 2.576Zm22.033 0c0 1.472-1.108 2.577-2.585 2.577-1.477 0-2.585-1.105-2.585-2.577s1.108-2.576 2.585-2.576c1.354 0 2.585 1.104 2.585 2.576Zm21.909 0c0 1.472-1.108 2.577-2.585 2.577-1.477 0-2.585-1.105-2.585-2.577s1.108-2.576 2.585-2.576c1.477 0 2.585 1.104 2.585 2.576Zm22.032 0c0 1.472-1.108 2.577-2.585 2.577-1.477 0-2.585-1.105-2.585-2.577s1.108-2.576 2.585-2.576c1.477 0 2.585 1.104 2.585 2.576Zm22.032 0c0 1.472-1.107 2.577-2.584 2.577s-2.585-1.105-2.585-2.577 1.108-2.576 2.585-2.576c1.354 0 2.585 1.104 2.585 2.576Zm22.034 0c0 1.472-1.108 2.577-2.585 2.577-1.477 0-2.585-1.105-2.585-2.577s1.108-2.576 2.585-2.576c1.477 0 2.585 1.104 2.585 2.576Zm21.909 0c0 1.472-1.108 2.577-2.585 2.577-1.477 0-2.585-1.105-2.585-2.577s1.108-2.576 2.585-2.576c1.477 0 2.585 1.104 2.585 2.576Zm22.032 0c0 1.472-1.107 2.577-2.584 2.577s-2.585-1.105-2.585-2.577 1.108-2.576 2.585-2.576c1.477 0 2.584 1.104 2.584 2.576Zm22.033 0c0 1.472-1.108 2.577-2.585 2.577-1.477 0-2.584-1.105-2.584-2.577s1.107-2.576 2.584-2.576c1.354 0 2.585 1.104 2.585 2.576ZM5.404 131.066c0 1.472-1.108 2.576-2.585 2.576-1.477 0-2.585-1.104-2.585-2.576 0-1.473 1.108-2.577 2.585-2.577 1.477 0 2.585 1.227 2.585 2.577Zm22.033 0c0 1.472-1.108 2.576-2.585 2.576-1.477 0-2.585-1.104-2.585-2.576 0-1.473 1.108-2.577 2.585-2.577 1.354 0 2.585 1.227 2.585 2.577Zm21.909 0c0 1.472-1.108 2.576-2.585 2.576-1.477 0-2.585-1.104-2.585-2.576 0-1.473 1.108-2.577 2.585-2.577 1.477 0 2.585 1.227 2.585 2.577Zm22.032 0c0 1.472-1.108 2.576-2.585 2.576-1.477 0-2.585-1.104-2.585-2.576 0-1.473 1.108-2.577 2.585-2.577 1.477 0 2.585 1.227 2.585 2.577Zm22.032 0c0 1.472-1.107 2.576-2.584 2.576s-2.585-1.104-2.585-2.576c0-1.473 1.108-2.577 2.585-2.577 1.354 0 2.585 1.227 2.585 2.577Zm22.034 0c0 1.472-1.108 2.576-2.585 2.576-1.477 0-2.585-1.104-2.585-2.576 0-1.473 1.108-2.577 2.585-2.577 1.477 0 2.585 1.227 2.585 2.577Zm21.909 0c0 1.472-1.108 2.576-2.585 2.576-1.477 0-2.585-1.104-2.585-2.576 0-1.473 1.108-2.577 2.585-2.577 1.477 0 2.585 1.227 2.585 2.577Zm22.032 0c0 1.472-1.107 2.576-2.584 2.576s-2.585-1.104-2.585-2.576c0-1.473 1.108-2.577 2.585-2.577 1.477 0 2.584 1.227 2.584 2.577Zm22.033 0c0 1.472-1.108 2.576-2.585 2.576-1.477 0-2.584-1.104-2.584-2.576 0-1.473 1.107-2.577 2.584-2.577 1.354 0 2.585 1.227 2.585 2.577Z" fill="#FFCF2D"/></svg>