<svg width="481" height="468" viewBox="0 0 481 468" fill="none" xmlns="http://www.w3.org/2000/svg"><path d="M172.297 52.23h148.325c29.99 0 58.005 14.8 74.966 39.532l67.952 100.335c5.61 8.158.535 19.275-9.357 19.275h-75.63l-30.211-39.568c-3.562-5.013-11.424-2.811-11.922 3.349l-6.09 74.53H168.569l-13.62-75.77c-.83-5.919-8.471-7.732-11.922-2.849l-27.756 35.813h-90.45l70.573-112.1c16.684-26.508 45.714-42.547 76.903-42.547Z" fill="#fff"/><path d="M330.828 250.2H168.09l-.074-.462-13.639-75.807c-.35-2.497-2.085-4.421-4.54-5.013-2.473-.592-4.909.333-6.385 2.405l-.019.018-27.922 36.035H23.788L94.896 94.425c8.25-13.079 19.729-23.937 33.22-31.392 13.49-7.455 28.771-11.414 44.163-11.414h148.325c30.137 0 58.337 14.873 75.408 39.772l67.953 100.335c2.842 4.144 3.211 9.398.941 13.708-2.123 4.032-6.146 6.437-10.76 6.437h-75.869l-30.396-39.808c-1.79-2.535-4.54-2.849-6.496-2.313-1.975.555-4.171 2.239-4.43 5.365l-6.127 75.085Zm-161.816-1.11h160.783l6.053-74.012c.24-3.052 2.307-5.531 5.241-6.345 2.953-.814 5.906.222 7.696 2.719l30.045 39.346h75.372c4.207 0 7.862-2.182 9.781-5.845 2.067-3.94 1.735-8.75-.886-12.561L395.145 92.057c-16.868-24.603-44.717-39.291-74.504-39.291H172.316c-15.207 0-30.304 3.903-43.628 11.266a91.218 91.218 0 0 0-32.832 31.003L25.818 206.266h89.157l27.573-35.591c1.734-2.46 4.613-3.552 7.548-2.83 2.897.703 4.964 2.978 5.37 5.919l13.546 75.326Z" fill="#3FB1B5"/><path d="m262.673 90.928 24.029 80.024h-59.389l26.372-80.024h8.988Z" fill="#FE5244"/><g opacity=".2" fill="#fff"><path opacity=".2" d="M243.516 121.857v49.095h-1.606v-44.285l.535-1.628 1.071-3.182Zm16.905-30.746h-1.588v79.84h1.588v-79.84Zm16.924 48.688v31.152h-1.587V134.49l1.587 5.309Z"/><path opacity=".2" d="M283.601 160.591h-52.893l.535-1.628h51.859l.499 1.628Zm-5.113-16.961h-42.17l.535-1.628h41.137l.498 1.628Zm-5.075-16.965H241.91l.535-1.628h30.47l.498 1.628Zm-5.111-16.963h-20.781l.535-1.628h19.766l.48 1.628Zm-5.113-16.962h-10.058l.517-1.629h9.098l.443 1.628Z"/></g><path d="m273.413 90.097 9.689 10.433 31.245-48.3h-27.683l-13.251 37.867Z" fill="#fff"/><path d="m283.195 101.417-10.409-11.21 13.491-38.55h29.086l-32.168 49.76Zm-9.154-11.45 8.988 9.674 30.285-46.856h-26.262l-13.011 37.181Z" fill="#3FB1B5"/><path d="m244.678 90.097-9.726 10.433-33.847-48.3h30.285l13.288 37.867Z" fill="#fff"/><path d="m234.897 101.399-34.844-49.743h31.743l13.528 38.551-10.427 11.192Zm-32.721-48.614 32.832 46.875 9.043-9.694-13.048-37.181h-28.827Z" fill="#3FB1B5"/><path d="M475.425 220.545c0 18.905-13.435 36.812-34.345 39.883l-85.669 12.634-18.806 2.775v-73.014l5.795-1.369 83.584-19.885a40.06 40.06 0 0 1 42.318 16.352c4.89 7.067 7.123 14.929 7.123 22.624Z" fill="#A0505A"/><path d="m355.411 273.063-18.806 2.774v-73.013l5.795-1.369 13.011 71.608Z" fill="#73325A"/><path d="M336.605 294.504H156.518V186.177c0-8.416 6.81-15.224 15.189-15.224h149.691c8.397 0 15.188 6.826 15.188 15.224v108.327h.019Z" fill="#FFCF2D"/><path d="M257.671 241.837h-22.22c-2.51 0-4.558-2.053-4.558-4.569v-9.341c0-2.516 2.048-4.57 4.558-4.57h22.22c2.51 0 4.559 2.054 4.559 4.57v9.341c-.019 2.534-2.049 4.569-4.559 4.569Zm-22.22-17.518a3.648 3.648 0 0 0-3.636 3.645v9.341a3.647 3.647 0 0 0 3.636 3.644h22.22a3.646 3.646 0 0 0 3.636-3.644v-9.341c0-1.998-1.624-3.645-3.636-3.645h-22.22Z" fill="#fff"/><path d="m219.765 293.32 190.643-28.58c37.095-5.661 70.536 23.141 70.536 60.785 0 33.964-27.443 61.471-61.327 61.471H221.02l-1.255-93.676Z" fill="#0096A0"/><path d="M194.001 403.754 79.264 425.953c-14.616 3.107-29.306-9.102-29.952-24.899l-1.698-41.973c-.868-21.255 19.452-34.038 38.608-24.936l107.779 69.609Z" fill="#fff"/><path d="M74.65 426.988c-5.351 0-10.74-1.868-15.28-5.42-6.423-4.994-10.298-12.468-10.612-20.496l-1.698-41.973c-.203-5.161.775-9.952 2.934-14.225a25.824 25.824 0 0 1 8.767-9.878c7.99-5.291 18.344-5.79 27.701-1.351l.055.037 108.942 70.35-116.102 22.457a22.35 22.35 0 0 1-4.706.499Zm-1.217-95.23c-5.02 0-9.892 1.406-14.082 4.181-7.511 4.995-11.608 13.411-11.202 23.142l1.698 41.973c.314 7.695 4.023 14.854 10.187 19.663 5.629 4.385 12.587 6.105 19.083 4.718l113.408-21.94-106.58-68.851c-4.078-1.942-8.341-2.886-12.512-2.886Z" fill="#FE5244"/><path d="M82.66 425.435c-5.204 0-10.445-1.831-14.874-5.272-6.275-4.884-10.059-12.153-10.41-19.997l-1.77-40.752c-.425-9.823 3.653-18.332 11.238-23.363 7.696-5.106 17.736-5.569 26.816-1.221l-.48.998c-8.73-4.18-18.345-3.755-25.727 1.147-7.234 4.81-11.147 12.968-10.74 22.384l1.771 40.752c.332 7.51 3.968 14.484 9.984 19.164 5.445 4.236 12.162 5.92 18.437 4.606l.222 1.092a21.444 21.444 0 0 1-4.467.462Z" fill="#FE5244"/><path d="M86.204 334.125 194 403.753l-24.582 4.736-83.215-74.364Z" fill="#FE5244"/><path d="m83.768 397.301-1.015-.444 16.24-37.422a.567.567 0 0 1 .517-.333c.222 0 .425.129.499.333l13.583 32.205 13.657-27.266.996.499-14.192 28.34a.583.583 0 0 1-.517.314c-.221 0-.406-.148-.498-.333l-13.546-32.132-15.724 36.239Z" fill="#FE5244"/><path d="M98.366 394.784h-.018c-.222 0-.406-.148-.499-.351l-15.908-39.772 1.033-.407 15.429 38.606 15.004-30.633a.577.577 0 0 1 .498-.315c.222 0 .406.13.499.333l12.07 26.49-1.016.463-11.589-25.417-15.041 30.707c-.056.167-.259.296-.462.296Z" fill="#FE5244"/><path d="M283.103 351.719c-6.367-5.235-24.767 6.678-41.119 26.601-16.351 19.923-24.453 40.345-18.104 45.58-.942-.573-120.458-75.695-194.63-126.973C10.39 283.904.443 263.038.443 241.913c0-14.725 4.854-29.561 14.875-41.973 25.136-31.078 71.698-33.168 99.529-4.477l168.257 156.256Z" fill="#3FB1B5"/><path d="M264.934 397.281c16.348-19.923 24.444-40.324 18.084-45.567-6.361-5.244-24.769 6.656-41.117 26.578-16.348 19.923-24.444 40.324-18.084 45.567 6.361 5.244 24.769-6.656 41.117-26.578Z" fill="#FE5244"/><path d="M227.754 425.64c-1.716 0-3.155-.444-4.263-1.35-3.285-2.701-3.156-9.064.369-17.907 3.433-8.657 9.708-18.757 17.644-28.432 7.935-9.674 16.628-17.795 24.434-22.845 7.991-5.161 14.192-6.512 17.459-3.811 3.285 2.701 3.156 9.064-.369 17.906-3.433 8.658-9.708 18.758-17.643 28.433-7.936 9.674-16.629 17.795-24.435 22.845-5.278 3.422-9.8 5.161-13.196 5.161Zm51.398-74.604c-3.156 0-7.511 1.702-12.605 4.995-7.714 4.994-16.314 13.022-24.176 22.605-7.88 9.6-14.081 19.589-17.477 28.136-3.267 8.25-3.525 14.318-.683 16.648 2.842 2.331 8.729.925 16.167-3.884 7.714-4.995 16.314-13.023 24.176-22.605 7.881-9.601 14.082-19.59 17.477-28.136 3.267-8.251 3.525-14.318.683-16.649-.904-.74-2.104-1.11-3.562-1.11Z" fill="#fff"/><path d="m335.738 417.296-21.279 36.202c-10.796 18.332-35.176 18.665-46.341.61l-35.822-57.826c3.064-5.087 6.847-10.396 11.202-15.705 7.881-9.601 16.241-17.333 23.512-22.198l57.009 21.736c13.952 5.346 19.691 23.567 11.719 37.181Z" fill="#fff"/><path d="M291.076 468.001a26.463 26.463 0 0 1-12.826-3.33c-4.282-2.368-7.862-5.827-10.612-10.285l-35.988-58.122.184-.296c3.101-5.143 6.884-10.452 11.258-15.78 7.622-9.304 16.019-17.222 23.623-22.309l.24-.166.258.092 57.009 21.736c6.514 2.497 11.663 7.991 14.136 15.039 2.676 7.677 1.901 16.038-2.159 22.957l-21.279 36.201c-2.676 4.532-6.182 8.103-10.445 10.581a26.75 26.75 0 0 1-13.122 3.645c-.074.037-.166.037-.277.037Zm-58.116-71.737 35.637 57.548c2.639 4.292 6.072 7.603 10.206 9.897 3.857 2.127 8.194 3.237 12.568 3.182a25.613 25.613 0 0 0 12.568-3.497c4.097-2.386 7.475-5.827 10.058-10.192L335.276 417c3.876-6.622 4.633-14.65 2.067-22.013-2.362-6.752-7.271-11.987-13.49-14.373l-56.75-21.643c-7.456 5.031-15.669 12.801-23.143 21.92-4.282 5.217-7.973 10.378-11 15.373Z" fill="#FE5244"/><path d="M286.241 461.766a24.771 24.771 0 0 1-12.107-3.181c-4.06-2.276-7.437-5.605-10.04-9.878l.942-.574c2.51 4.107 5.758 7.288 9.633 9.471 3.636 2.035 7.733 3.09 11.849 3.034 4.134-.055 8.212-1.221 11.811-3.348 3.857-2.294 7.031-5.587 9.431-9.767l20.061-34.722c3.783-6.567 4.576-14.651 2.122-21.625-2.159-6.123-6.459-10.692-12.144-12.912l.406-1.035c5.98 2.33 10.52 7.14 12.771 13.577 2.566 7.27 1.735 15.706-2.196 22.55l-20.061 34.722c-2.51 4.347-5.813 7.769-9.836 10.155-3.765 2.239-8.028 3.459-12.347 3.515-.092 0-.203.018-.295.018Zm-17.902-44.6a.591.591 0 0 1-.332-.111.538.538 0 0 1-.203-.574l8.415-33.852-27.923 14.17-.498-.999 28.993-14.725a.569.569 0 0 1 .591.056.55.55 0 0 1 .185.573l-8.379 33.704 33.515-20.607.572.944-34.678 21.328c-.055.074-.147.093-.258.093Z" fill="#FE5244"/><path d="m279.892 430.781-1.089-.241 8.766-39.66-28.532 14.095a.536.536 0 0 1-.572-.055.561.561 0 0 1-.221-.537l4.54-27.1 1.089.185-4.356 26.027 28.606-14.132a.567.567 0 0 1 .59.055.58.58 0 0 1 .203.555l-9.024 40.808Z" fill="#FE5244"/><path d="M301.964 58.777a9.142 9.142 0 0 1-2.879 6.141 9.156 9.156 0 0 1-6.294 2.497h-8.36l-.535 8.843c-.461 7.288-7.677 14.725-15.226 14.725h-21.168c-7.493 0-14.764-7.437-15.225-14.725l-.536-8.843h-8.47a9.156 9.156 0 0 1-6.294-2.497c-1.661-1.554-2.731-3.718-2.879-6.178-.295-5.31 4.042-9.712 9.357-9.712h7.161l-.794-13.467c-.148-2.849 2.086-5.235 4.928-5.235h46.71c2.842 0 5.075 2.386 4.927 5.235l-.793 13.467h7.234c5.242.037 9.431 4.477 9.136 9.749Z" fill="#A0505A"/><path d="M285.576 49.029h7.603s7.272-26.453.259-33.242c-6.995-6.789-50.014-22.42-63.911-12.671-10.15 7.14-4.614 45.913-4.614 45.913h5.611s22.608-16.242 26.151-14.836c3.562 1.406-10.224 8.232-7.456 9.564 10.335 4.976 28.919-13.06 33.201-13.06s3.156 18.332 3.156 18.332Zm-9.578 6.936a.405.405 0 0 1-.24-.074c-.055-.037-4.872-3.848-10.944-1.35a.374.374 0 0 1-.48-.204.376.376 0 0 1 .203-.481c6.496-2.664 11.645 1.424 11.701 1.461.166.13.184.37.055.518a.422.422 0 0 1-.295.13Z" fill="#73325A"/><path d="M275.998 56.336a.711.711 0 0 1-.462-.166c-.037-.037-4.724-3.7-10.574-1.295a.733.733 0 0 1-.96-.407c-.148-.37.018-.814.406-.962 6.699-2.756 12.014 1.461 12.07 1.517.147.13.24.296.276.5a.692.692 0 0 1-.166.536.778.778 0 0 1-.59.277Zm-.037-.758c.018.018.037.018.037.018s-.019 0-.037-.018ZM259.259 81.27c-1.292 0-2.787-.258-4.522-.887a.378.378 0 0 1-.221-.481.377.377 0 0 1 .48-.222c3.266 1.202 6.127 1.128 8.268-.24 1.605-1.018 2.251-2.368 2.251-2.387.093-.185.314-.259.499-.185a.396.396 0 0 1 .184.5c-.037.055-1.901 3.903-6.939 3.903Z" fill="#73325A"/><path d="M259.259 81.64c-1.439 0-3.008-.314-4.651-.906a.793.793 0 0 1-.424-.388.774.774 0 0 1-.019-.574.793.793 0 0 1 .388-.425.766.766 0 0 1 .572-.018c3.156 1.165 5.887 1.09 7.936-.204 1.495-.943 2.122-2.22 2.122-2.238.074-.185.24-.315.425-.389a.766.766 0 0 1 .572.019c.369.166.535.61.35.98-.037.093-1.993 4.144-7.271 4.144Zm-4.392-1.609c1.679.61 3.266.907 4.687.87-1.439.037-3.008-.24-4.687-.87Zm1.955-3.959c-.812 0-1.661-.019-2.399-.074-1.402-.093-1.698-3.145-2.067-8.528-.24-3.44-.517-7.344-1.347-9.064-2.861-5.883-12.55-3.811-12.642-3.792a.376.376 0 0 1-.443-.278c-.055-.203.074-.388.277-.444.111-.018 2.602-.573 5.5-.351 3.912.296 6.662 1.868 7.972 4.532.886 1.831 1.163 5.642 1.421 9.323.148 2.109.296 4.107.536 5.605.35 2.109.775 2.238.849 2.238 2.103.148 5.333 0 5.37 0 .203-.018.369.148.388.352.018.203-.148.37-.351.388-.092.019-1.495.093-3.064.093Z" fill="#73325A"/><path d="M256.822 76.444c-.941 0-1.772-.019-2.418-.075-1.716-.129-2.011-3.126-2.417-8.879-.24-3.403-.517-7.27-1.31-8.916-2.732-5.605-12.144-3.607-12.236-3.589a.829.829 0 0 1-.554-.092.835.835 0 0 1-.332-.463c-.056-.185 0-.388.092-.555a.837.837 0 0 1 .461-.333c.111-.018 2.658-.573 5.611-.351 4.06.314 6.921 1.942 8.268 4.736.923 1.905 1.181 5.753 1.458 9.47.147 2.11.295 4.089.535 5.569.24 1.461.498 1.85.572 1.942 2.067.13 5.223 0 5.26 0a.706.706 0 0 1 .535.185.69.69 0 0 1 .24.518.743.743 0 0 1-.701.777c-.148 0-1.532.055-3.064.055Zm-2.381-.814c.665.055 1.458.074 2.381.074 1.513 0 2.861-.056 3.045-.074-.147.018-3.322.148-5.426 0Zm-3.063-17.315c.83 1.813 1.107 5.698 1.347 9.12l.055.795-.055-.795c-.258-3.589-.517-7.307-1.347-9.12Zm-9.136-4.421c2.64 0 5.961.518 8.028 2.775-1.439-1.573-3.691-2.516-6.588-2.738-2.842-.222-5.297.314-5.389.333.037 0 1.735-.37 3.949-.37Zm26.964 12.024c.978 0 1.772-1.326 1.772-2.96 0-1.635-.794-2.96-1.772-2.96-.979 0-1.772 1.325-1.772 2.96 0 1.634.793 2.96 1.772 2.96Z" fill="#73325A"/><path d="M246.192 65.918c.979 0 1.772-1.326 1.772-2.96 0-1.635-.793-2.96-1.772-2.96-.978 0-1.772 1.325-1.772 2.96 0 1.634.794 2.96 1.772 2.96Zm-17.403-5.402a.38.38 0 0 1-.369-.352c-.221-3.514-3.137-6.252-6.644-6.252a.37.37 0 0 1 0-.74c3.894 0 7.142 3.052 7.364 6.955a.36.36 0 0 1-.351.389Z" fill="#73325A"/><path d="M228.789 60.886a.733.733 0 0 1-.738-.702 6.29 6.29 0 0 0-6.275-5.901.741.741 0 0 1 0-1.48 7.75 7.75 0 0 1 7.733 7.288.709.709 0 0 1-.185.537.684.684 0 0 1-.516.24c0 .018 0 .018-.019.018Zm-2.547-5.716a7.033 7.033 0 0 1 2.547 4.995v.37-.37a7.033 7.033 0 0 0-2.547-4.995Zm60.645 5.55h-.019a.383.383 0 0 1-.35-.389c.239-4.125 3.635-7.362 7.751-7.362a.37.37 0 0 1 0 .74c-3.71 0-6.792 2.922-7.013 6.678 0 .166-.166.333-.369.333Z" fill="#73325A"/><path d="M286.886 61.09h-.037a.743.743 0 0 1-.701-.777c.258-4.328 3.82-7.713 8.12-7.713.406 0 .739.333.739.74 0 .406-.333.74-.739.74-3.525 0-6.441 2.774-6.644 6.326a.731.731 0 0 1-.738.684Zm0-.74v.37-.37Z" fill="#73325A"/></svg>