<svg width="600" height="434" viewBox="0 0 600 434" fill="none" xmlns="http://www.w3.org/2000/svg">
<path d="M600 413.861H0L107.705 350.188H493.943L600 413.861Z" fill="#D0F0E4"/>
<path d="M344.008 102.578H236.062V40.0903C236.062 35.8594 239.488 32.4297 243.714 32.4297H336.355C340.582 32.4297 344.008 35.8594 344.008 40.0903V102.578Z" fill="white"/>
<path fill-rule="evenodd" clip-rule="evenodd" d="M243.714 32.9108C239.753 32.9108 236.543 36.1252 236.543 40.0907V102.097H343.528V40.0907C343.528 36.1252 340.317 32.9108 336.356 32.9108H243.714ZM344.008 102.578H344.488V40.0907C344.488 35.5941 340.847 31.9492 336.356 31.9492H243.714C239.223 31.9492 235.582 35.5941 235.582 40.0907V103.059H344.008V102.578Z" fill="#66B0F0"/>
<path d="M335.86 98.5074H244.659C242.258 98.5074 240.305 96.5522 240.305 94.1482V40.5877C240.305 38.1837 242.258 36.2285 244.659 36.2285H335.86C338.261 36.2285 340.214 38.1837 340.214 40.5877V94.1642C340.214 96.5682 338.261 98.5074 335.86 98.5074Z" fill="#66B0F0"/>
<path d="M362.93 117.242C367.06 119.934 366.1 125.207 361.217 125.207H214.163C210.049 125.207 208.64 119.646 212.674 117.098L362.93 117.242Z" fill="#66B0F0"/>
<path fill-rule="evenodd" clip-rule="evenodd" d="M212.535 116.617L363.072 116.762L363.192 116.839C365.39 118.273 366.304 120.448 365.924 122.33C365.538 124.241 363.852 125.688 361.217 125.688H214.162C211.852 125.688 210.296 124.112 209.892 122.208C209.488 120.302 210.23 118.073 212.417 116.691L212.535 116.617ZM212.815 117.579C211.059 118.748 210.518 120.528 210.832 122.009C211.153 123.522 212.358 124.727 214.162 124.727H361.217C363.464 124.727 364.7 123.538 364.982 122.139C365.265 120.741 364.626 118.978 362.784 117.723L212.815 117.579Z" fill="#66B0F0"/>
<path d="M361.216 121.537H214.162C211.536 121.537 210.496 118.444 212.673 117.098L236.094 102.578H343.703L362.913 117.242C364.834 118.701 363.714 121.537 361.216 121.537Z" fill="white"/>
<path fill-rule="evenodd" clip-rule="evenodd" d="M235.958 102.098H343.866L363.204 116.86C364.343 117.724 364.597 119.03 364.169 120.114C363.744 121.19 362.661 122.019 361.217 122.019H214.162C212.644 122.019 211.544 121.114 211.162 119.976C210.777 118.831 211.136 117.485 212.421 116.69L212.421 116.689M212.421 116.689L235.958 102.098L212.421 116.689ZM236.231 103.059L212.927 117.507L212.926 117.508C212.034 118.059 211.825 118.932 212.072 119.67C212.323 120.415 213.056 121.057 214.162 121.057H361.217C362.27 121.057 362.997 120.467 363.276 119.76C363.552 119.061 363.406 118.219 362.624 117.626L343.541 103.059H236.231Z" fill="#66B0F0"/>
<path d="M344.248 117.162H231.132C229.115 117.162 228.314 114.774 229.979 113.749L246.244 102.578H330.769L345.545 113.861C347.034 114.983 346.169 117.162 344.248 117.162Z" fill="white"/>
<path fill-rule="evenodd" clip-rule="evenodd" d="M246.095 102.098H330.931L345.833 113.477C345.834 113.477 345.834 113.478 345.835 113.478C346.757 114.174 346.968 115.23 346.622 116.109C346.278 116.98 345.403 117.643 344.248 117.643H231.132C229.916 117.643 229.029 116.914 228.719 115.994C228.408 115.07 228.693 113.983 229.717 113.346L246.095 102.098ZM246.393 103.059L230.241 114.152L230.231 114.158C229.598 114.548 229.453 115.164 229.63 115.687C229.808 116.217 230.33 116.682 231.132 116.682H344.248C345.014 116.682 345.531 116.255 345.728 115.756C345.922 115.265 345.821 114.672 345.256 114.245L345.254 114.244L345.253 114.243L330.606 103.059H246.393Z" fill="#66B0F0"/>
<path fill-rule="evenodd" clip-rule="evenodd" d="M337.908 117.506L323.116 102.921L323.79 102.236L338.582 116.82L337.908 117.506Z" fill="#66B0F0"/>
<path fill-rule="evenodd" clip-rule="evenodd" d="M328.281 117.483L315.25 102.899L315.966 102.258L328.997 116.842L328.281 117.483Z" fill="#66B0F0"/>
<path fill-rule="evenodd" clip-rule="evenodd" d="M319.2 117.459L307.897 102.875L308.656 102.285L319.958 116.869L319.2 117.459Z" fill="#66B0F0"/>
<path fill-rule="evenodd" clip-rule="evenodd" d="M309.236 117.426L299.679 102.842L300.482 102.314L310.039 116.899L309.236 117.426Z" fill="#66B0F0"/>
<path fill-rule="evenodd" clip-rule="evenodd" d="M297.478 117.311L292.819 102.726L293.734 102.434L298.393 117.018L297.478 117.311Z" fill="#66B0F0"/>
<path fill-rule="evenodd" clip-rule="evenodd" d="M237.982 116.82L252.774 102.236L253.448 102.921L238.656 117.506L237.982 116.82Z" fill="#66B0F0"/>
<path fill-rule="evenodd" clip-rule="evenodd" d="M247.567 116.842L260.598 102.258L261.314 102.899L248.283 117.483L247.567 116.842Z" fill="#66B0F0"/>
<path fill-rule="evenodd" clip-rule="evenodd" d="M256.606 116.869L267.908 102.285L268.667 102.875L257.365 117.459L256.606 116.869Z" fill="#66B0F0"/>
<path fill-rule="evenodd" clip-rule="evenodd" d="M266.525 116.899L276.082 102.314L276.885 102.842L267.328 117.426L266.525 116.899Z" fill="#66B0F0"/>
<path fill-rule="evenodd" clip-rule="evenodd" d="M278.171 117.016L282.83 102.432L283.745 102.725L279.086 117.309L278.171 117.016Z" fill="#66B0F0"/>
<path fill-rule="evenodd" clip-rule="evenodd" d="M288.378 102.578V117.339H287.417V102.578H288.378Z" fill="#66B0F0"/>
<path fill-rule="evenodd" clip-rule="evenodd" d="M337.924 108.508H238.319V107.547H337.924V108.508Z" fill="#66B0F0"/>
<path d="M328.271 98.5067H247.284L248.74 88.1696C249.637 81.8071 254.199 76.5825 260.363 74.8196L280.101 70.7168H295.453L315.192 74.8196C321.371 76.5665 325.934 81.8071 326.814 88.1696L328.271 98.5067Z" fill="#FFCF2D"/>
<path d="M293.244 82.5289L287.401 76.6152C287.273 76.487 287.273 76.2786 287.401 76.1664C287.529 76.0382 287.737 76.0382 287.849 76.1664L293.212 81.5994L301.537 72.1598C301.649 72.0316 301.857 72.0156 301.985 72.1278C302.113 72.2399 302.129 72.4483 302.017 72.5765L293.244 82.5289Z" fill="white"/>
<path d="M282.39 82.5286L273.618 72.5761C273.505 72.4479 273.505 72.2396 273.65 72.1274C273.778 72.0152 273.986 72.0152 274.098 72.1594L282.422 81.599L287.785 76.1661C287.913 76.0378 288.105 76.0378 288.233 76.1661C288.361 76.2943 288.361 76.4866 288.233 76.6148L282.39 82.5286Z" fill="white"/>
<path d="M287.914 86.3902C287.145 86.3902 286.521 85.7651 286.521 84.9959C286.521 84.2266 287.145 83.6016 287.914 83.6016C288.682 83.6016 289.306 84.2266 289.306 84.9959C289.306 85.7651 288.682 86.3902 287.914 86.3902ZM287.914 84.2426C287.497 84.2426 287.161 84.5792 287.161 84.9959C287.161 85.4125 287.497 85.7491 287.914 85.7491C288.33 85.7491 288.666 85.4125 288.666 84.9959C288.666 84.5792 288.33 84.2426 287.914 84.2426Z" fill="white"/>
<path d="M287.914 94.2437C287.145 94.2437 286.521 93.6186 286.521 92.8494C286.521 92.0801 287.145 91.4551 287.914 91.4551C288.682 91.4551 289.306 92.0801 289.306 92.8494C289.306 93.6186 288.682 94.2437 287.914 94.2437ZM287.914 92.0961C287.497 92.0961 287.161 92.4327 287.161 92.8494C287.161 93.2661 287.497 93.6026 287.914 93.6026C288.33 93.6026 288.666 93.2661 288.666 92.8494C288.666 92.4327 288.33 92.0961 287.914 92.0961Z" fill="white"/>
<path d="M280.006 98.1703H253.848L246.868 77.432L273.026 69.9316L280.006 98.1703Z" fill="white"/>
<path fill-rule="evenodd" clip-rule="evenodd" d="M273.256 69.5312L280.414 98.4901H253.617L246.457 77.2156L273.256 69.5312ZM247.278 77.647L254.077 97.849H279.596L272.794 70.3306L247.278 77.647Z" fill="#66B0F0"/>
<path d="M255.208 80.1242H254.712C253.447 80.1242 252.422 79.0986 252.422 77.8325V70.6366C252.422 70.1237 252.839 69.707 253.351 69.707H255.512C256.024 69.707 256.44 70.1237 256.44 70.6366V78.8742C256.456 79.5633 255.896 80.1242 255.208 80.1242Z" fill="white"/>
<path fill-rule="evenodd" clip-rule="evenodd" d="M253.351 70.0278C253.015 70.0278 252.742 70.301 252.742 70.6368V77.8327C252.742 78.9218 253.624 79.804 254.711 79.804H255.208C255.721 79.804 256.132 79.3867 256.12 78.8819L256.12 78.8781V70.6368C256.12 70.301 255.847 70.0278 255.512 70.0278H253.351ZM252.102 70.6368C252.102 69.9469 252.662 69.3867 253.351 69.3867H255.512C256.201 69.3867 256.76 69.9469 256.76 70.6368V78.8709C256.779 79.7425 256.07 80.445 255.208 80.445H254.711C253.27 80.445 252.102 79.2758 252.102 77.8327V70.6368Z" fill="#66B0F0"/>
<path d="M265.742 80.1242H266.238C267.503 80.1242 268.527 79.0986 268.527 77.8325V70.6366C268.527 70.1237 268.111 69.707 267.599 69.707H265.422C264.909 69.707 264.493 70.1237 264.493 70.6366V78.8742C264.493 79.5633 265.053 80.1242 265.742 80.1242Z" fill="white"/>
<path d="M259.226 80.9572H258.073C257.177 80.9572 256.457 80.2361 256.457 79.3386V70.6522C256.457 70.1393 256.873 69.7227 257.385 69.7227H259.546C260.058 69.7227 260.475 70.1393 260.475 70.6522V79.7072C260.475 80.3963 259.914 80.9572 259.226 80.9572Z" fill="white"/>
<path d="M263.26 81.2781H262.3C261.291 81.2781 260.475 80.4608 260.475 79.4511V70.6366C260.475 70.1237 260.891 69.707 261.403 69.707H263.564C264.076 69.707 264.493 70.1237 264.493 70.6366V80.0281C264.493 80.7172 263.932 81.2781 263.26 81.2781Z" fill="white"/>
<path fill-rule="evenodd" clip-rule="evenodd" d="M264.172 70.6368C264.172 69.9469 264.732 69.3867 265.421 69.3867H267.598C268.287 69.3867 268.847 69.9469 268.847 70.6368V77.8327C268.847 79.2758 267.679 80.445 266.237 80.445H265.741C264.876 80.445 264.172 79.7406 264.172 78.8744V70.6368ZM265.421 70.0278C265.086 70.0278 264.813 70.301 264.813 70.6368V78.8744C264.813 79.3865 265.23 79.804 265.741 79.804H266.237C267.325 79.804 268.206 78.9218 268.206 77.8327V70.6368C268.206 70.301 267.934 70.0278 267.598 70.0278H265.421Z" fill="#66B0F0"/>
<path fill-rule="evenodd" clip-rule="evenodd" d="M257.385 70.0434C257.049 70.0434 256.777 70.3166 256.777 70.6524V79.3388C256.777 80.0592 257.354 80.6369 258.073 80.6369H259.226C259.737 80.6369 260.154 80.2195 260.154 79.7074V70.6524C260.154 70.3166 259.882 70.0434 259.546 70.0434H257.385ZM256.136 70.6524C256.136 69.9625 256.696 69.4023 257.385 69.4023H259.546C260.235 69.4023 260.795 69.9625 260.795 70.6524V79.7074C260.795 80.5736 260.091 81.278 259.226 81.278H258.073C257 81.278 256.136 80.4133 256.136 79.3388V70.6524Z" fill="#66B0F0"/>
<path fill-rule="evenodd" clip-rule="evenodd" d="M261.403 70.0278C261.068 70.0278 260.795 70.301 260.795 70.6368V79.4514C260.795 80.284 261.468 80.9578 262.3 80.9578H263.26C263.753 80.9578 264.173 80.5431 264.173 80.0283V70.6368C264.173 70.301 263.9 70.0278 263.565 70.0278H261.403ZM260.155 70.6368C260.155 69.9469 260.714 69.3867 261.403 69.3867H263.565C264.254 69.3867 264.813 69.9469 264.813 70.6368V80.0283C264.813 80.8918 264.112 81.5989 263.26 81.5989H262.3C261.115 81.5989 260.155 80.6381 260.155 79.4514V70.6368Z" fill="#66B0F0"/>
<path d="M295.47 61.293V72.9923C295.47 75.0116 292.028 76.6624 287.786 76.6624C283.543 76.6624 280.102 75.0116 280.102 72.9923V61.293H295.47Z" fill="white"/>
<path d="M295.468 61.293C295.468 70.1236 289.817 72.7519 284.39 72.2872C284.374 72.2872 284.358 72.2872 284.342 72.2872C281.941 72.0628 280.116 70.0114 280.116 67.6074V61.309H295.468V61.293Z" fill="#66B0F0"/>
<path d="M299.039 58.2805V58.8735C299.039 60.1876 297.983 61.2454 296.67 61.2454H295.453L295.469 61.5178C295.469 65.3001 292.412 68.3612 288.634 68.3612H286.953C283.175 68.3612 280.117 65.3001 280.117 61.5178L280.133 61.2454H278.917C277.604 61.2454 276.547 60.1876 276.547 58.8735V58.2805C276.547 56.9663 277.604 55.9086 278.917 55.9086H280.469L280.646 53.0078C280.646 52.559 280.71 52.1263 280.838 51.7257C285.416 52.8635 290.779 49.9147 292.22 49.0332C293.821 49.6422 294.957 51.1808 294.957 52.9917L295.133 55.8925H296.686C297.983 55.9086 299.039 56.9663 299.039 58.2805Z" fill="white"/>
<path d="M296.782 55.9082H295.117L294.941 53.0074C294.941 51.1964 293.805 49.6579 292.204 49.0489C290.763 49.9143 285.4 52.8632 280.822 51.7413C280.694 52.142 280.63 52.5747 280.63 53.0234L280.453 55.9242H279.413C279.413 55.9242 277.284 45.6032 279.381 43.712C280.934 42.3177 295.149 45.3628 296.718 47.5263C297.599 48.7604 296.782 55.9082 296.782 55.9082Z" fill="#E57281"/>
<path d="M292.78 55.2834C292.732 55.2834 292.668 55.2674 292.62 55.2193C292.604 55.2033 291.563 54.3538 289.898 54.3538C289.77 54.3538 289.658 54.2417 289.658 54.1134C289.658 53.9852 289.77 53.873 289.898 53.873C291.739 53.873 292.876 54.8026 292.924 54.8507C293.02 54.9308 293.036 55.0911 292.956 55.1872C292.924 55.2513 292.844 55.2834 292.78 55.2834Z" fill="#66B0F0"/>
<path d="M286.696 60.2508C286.664 60.2508 286.632 60.2508 286.616 60.2348C286.488 60.1867 286.424 60.0424 286.472 59.9303C286.921 58.7443 286.808 57.2538 286.184 55.9397C285.816 55.1384 285.288 54.5614 284.823 54.4011C283.799 54.0485 282.358 54.5454 282.342 54.5454C282.214 54.5935 282.086 54.5293 282.038 54.4011C281.99 54.2729 282.054 54.1447 282.182 54.0966C282.246 54.0806 283.783 53.5517 284.968 53.9524C285.56 54.1607 286.168 54.8178 286.6 55.7474C287.273 57.1737 287.385 58.8084 286.905 60.1226C286.889 60.1867 286.792 60.2508 286.696 60.2508Z" fill="#66B0F0"/>
<path d="M289.851 62.7998C289.867 62.9281 289.755 63.0402 289.627 63.0563H289.611C289.483 63.0563 289.387 62.9601 289.371 62.8319C289.355 62.6716 289.323 62.5114 289.275 62.3671C288.586 62.7037 287.962 62.8159 287.45 62.8159C286.441 62.8159 285.833 62.3992 285.801 62.3671C285.689 62.287 285.673 62.1428 285.737 62.0306C285.817 61.9184 285.961 61.9024 286.073 61.9665C286.105 61.9825 286.617 62.3351 287.45 62.3351C287.898 62.3351 288.442 62.2389 289.066 61.9344C288.97 61.7741 288.874 61.678 288.874 61.678C288.778 61.5818 288.794 61.4216 288.89 61.3414C288.986 61.2613 289.147 61.2613 289.227 61.3575C289.259 61.4055 289.803 62.0145 289.851 62.7998Z" fill="#66B0F0"/>
<path d="M290.715 58.2192C290.935 58.2054 291.092 57.8362 291.065 57.3945C291.037 56.9528 290.836 56.6058 290.615 56.6196C290.395 56.6334 290.238 57.0026 290.266 57.4443C290.293 57.886 290.494 58.233 290.715 58.2192Z" fill="#66B0F0"/>
<path d="M284.179 58.1538C284.382 58.1411 284.526 57.8014 284.501 57.395C284.476 56.9887 284.291 56.6695 284.088 56.6821C283.885 56.6948 283.741 57.0345 283.766 57.4409C283.791 57.8473 283.976 58.1665 284.179 58.1538Z" fill="#66B0F0"/>
<path d="M279.701 59.0478C279.573 59.0478 279.461 58.9356 279.461 58.8074C279.461 58.1023 278.885 57.5413 278.196 57.5413C278.068 57.5413 277.956 57.4292 277.956 57.3009C277.956 57.1727 278.068 57.0605 278.196 57.0605C279.157 57.0605 279.941 57.8458 279.941 58.8074C279.941 58.9517 279.829 59.0478 279.701 59.0478Z" fill="#66B0F0"/>
<path d="M295.806 59.0478C295.677 59.0478 295.565 58.9356 295.565 58.8074C295.565 57.8458 296.35 57.0605 297.31 57.0605C297.438 57.0605 297.55 57.1727 297.55 57.3009C297.55 57.4292 297.438 57.5413 297.31 57.5413C296.606 57.5413 296.046 58.1183 296.046 58.8074C296.046 58.9517 295.95 59.0478 295.806 59.0478Z" fill="#66B0F0"/>
<path fill-rule="evenodd" clip-rule="evenodd" d="M79.8698 186.905C81.2578 182.1 85.6399 178.801 90.6246 178.801H506.767C511.7 178.801 516.065 182.031 517.488 186.755L517.488 186.755M80.7925 187.172L15.3657 413.995L14.4429 413.728L79.8698 186.905L79.8698 186.905M80.7925 187.172C80.7925 187.172 80.7926 187.172 80.7926 187.172C82.062 182.778 86.0684 179.762 90.6246 179.762H506.767C511.279 179.762 515.269 182.718 516.568 187.033L516.568 187.033L585.133 414L586.052 413.722L517.488 186.755" fill="#66B0F0"/>
<path fill-rule="evenodd" clip-rule="evenodd" d="M386.638 103.059H204.621V102.098H386.638V103.059Z" fill="#66B0F0"/>
<path d="M267.791 137.068H310.79V174.041H267.791C267.791 174.041 267.791 135.674 267.791 137.068Z" fill="#FFCF2D"/>
<path d="M428.581 308.856L408.586 259.014H440.779L428.581 308.856Z" fill="#9A3B82"/>
<path d="M373.719 192.487C378.01 184.362 386.446 179.281 395.619 179.281H420.384L437.209 192.487H373.719Z" fill="#9A3B82"/>
<path d="M467.609 250.839H405.224L428.709 307.909C427.076 305.249 417.295 308.021 406.937 314.384C396.708 320.666 389.792 328.231 391.201 330.987L340.582 242.809C327.455 220.565 343.463 192.486 369.269 192.486H509.071L509.376 193.448C518.5 221.815 497.369 250.839 467.609 250.839Z" fill="#3FB1B5"/>
<path d="M511.489 208.849C511.265 214.058 510.112 219.09 508.159 223.754L434.84 192.502H507.615L509.312 197.47C510.496 200.451 511.153 204.634 511.489 208.849Z" fill="#E6E6E6"/>
<path d="M428.725 307.908C430.358 310.568 423.218 317.829 412.876 324.191C402.519 330.554 392.897 333.743 391.265 331.082C389.632 328.422 396.595 320.906 406.953 314.543C417.295 308.181 427.076 305.248 428.725 307.908Z" fill="#66B0F0"/>
<path fill-rule="evenodd" clip-rule="evenodd" d="M475.53 196.551C475.79 196.497 476.044 196.663 476.099 196.923C478.627 208.921 469.483 220.212 457.235 220.212H368.564C361.617 220.212 357.252 227.7 360.642 233.759C360.642 233.76 360.642 233.76 360.643 233.76L406.17 314.339C406.301 314.571 406.219 314.864 405.988 314.995C405.757 315.125 405.464 315.044 405.334 314.813L359.806 234.232L359.805 234.23C356.056 227.532 360.88 219.251 368.564 219.251H457.235C468.873 219.251 477.562 208.522 475.159 197.121C475.105 196.861 475.271 196.606 475.53 196.551Z" fill="white"/>
<path fill-rule="evenodd" clip-rule="evenodd" d="M421.887 307.54C418.186 308.463 413.242 310.727 407.194 314.254C401.837 317.381 397.415 321.041 394.543 324.235C393.105 325.834 392.071 327.299 391.497 328.507C391.211 329.111 391.048 329.632 390.999 330.061C390.949 330.488 391.014 330.794 391.145 331.007C391.284 331.234 391.213 331.53 390.987 331.669C390.761 331.808 390.466 331.737 390.327 331.511C390.05 331.059 389.978 330.519 390.044 329.95C390.11 329.382 390.316 328.756 390.63 328.094C391.258 326.77 392.358 325.227 393.829 323.591C396.776 320.315 401.278 316.594 406.711 313.423L406.711 313.423C412.782 309.882 417.82 307.563 421.655 306.607C423.571 306.129 425.223 305.982 426.569 306.218C427.931 306.457 428.991 307.093 429.66 308.167C429.801 308.392 429.732 308.689 429.507 308.829C429.282 308.97 428.986 308.901 428.845 308.676C428.346 307.875 427.549 307.367 426.403 307.165C425.243 306.962 423.738 307.078 421.887 307.54Z" fill="white"/>
<path fill-rule="evenodd" clip-rule="evenodd" d="M399.675 237.334C399.92 237.232 400.202 237.347 400.304 237.592L430.048 308.589C430.151 308.834 430.036 309.116 429.791 309.219C429.546 309.321 429.265 309.206 429.162 308.961L399.418 237.964C399.316 237.719 399.431 237.437 399.675 237.334Z" fill="white"/>
<path fill-rule="evenodd" clip-rule="evenodd" d="M440.091 192.438H367.524V191.477H440.091V192.438Z" fill="white"/>
<path d="M408.569 334.752L404.247 328.855L398.292 320.745C400.725 318.694 403.655 316.562 406.937 314.543C413.468 310.536 419.759 307.876 423.938 307.139L426.835 312.924L430.453 320.136C427.892 329.255 408.569 334.752 408.569 334.752Z" fill="#E57281"/>
<path d="M426.85 312.924C424.16 316.21 419.102 320.36 412.874 324.191C409.881 326.034 406.951 327.604 404.262 328.855L398.307 320.745C400.74 318.694 403.669 316.562 406.951 314.543C413.483 310.536 419.774 307.876 423.952 307.139L426.85 312.924Z" fill="#9A3B82"/>
<path d="M450.241 351.918L406.313 383.506C402.583 386.102 396.788 388.266 397.557 378.874C398.629 365.925 401.495 346.661 408.571 334.737C408.875 334.657 427.893 329.16 430.454 320.121L450.481 334.369C456.244 338.856 456.116 347.607 450.241 351.918Z" fill="white"/>
<path fill-rule="evenodd" clip-rule="evenodd" d="M430.177 319.334L450.766 333.982L450.775 333.988C456.789 338.672 456.656 347.805 450.524 352.305L450.522 352.306L406.589 383.898L406.586 383.9C405.635 384.563 404.54 385.205 403.44 385.644C402.348 386.08 401.201 386.334 400.167 386.159C399.096 385.977 398.196 385.342 397.638 384.125C397.095 382.939 396.882 381.217 397.077 378.834L397.077 378.834C397.614 372.345 398.601 364.27 400.342 356.318C402.082 348.372 404.58 340.517 408.156 334.491L408.257 334.322L408.447 334.272C408.447 334.272 408.449 334.271 408.452 334.27L408.467 334.266C408.479 334.263 408.496 334.258 408.518 334.251C408.562 334.239 408.622 334.221 408.7 334.198C408.854 334.152 409.072 334.085 409.347 333.998C409.896 333.824 410.668 333.569 411.595 333.237C413.449 332.574 415.918 331.603 418.453 330.357C420.991 329.108 423.581 327.591 425.689 325.837C427.802 324.078 429.388 322.116 429.991 319.989L430.177 319.334ZM430.707 320.891C429.918 323.023 428.289 324.923 426.303 326.576C424.115 328.397 421.451 329.953 418.876 331.22C414.252 333.494 409.858 334.858 408.886 335.146C405.437 341.022 402.995 348.692 401.28 356.523C399.551 364.421 398.569 372.452 398.034 378.913C397.845 381.226 398.068 382.756 398.512 383.724C398.941 384.661 399.579 385.084 400.327 385.211C401.111 385.344 402.065 385.158 403.084 384.751C404.095 384.348 405.122 383.748 406.035 383.113C406.036 383.112 406.037 383.111 406.038 383.111L449.956 351.529C449.956 351.529 449.957 351.528 449.958 351.528C455.571 347.407 455.696 339.047 450.193 334.754L430.707 320.891Z" fill="#FFCF2D"/>
<path fill-rule="evenodd" clip-rule="evenodd" d="M432.793 321.436C433.048 321.509 433.196 321.775 433.124 322.03C432.331 324.826 430.47 327.343 428.114 329.527C425.755 331.713 422.873 333.59 419.99 335.102C417.106 336.614 414.207 337.768 411.803 338.504C410.602 338.872 409.517 339.138 408.616 339.29C407.73 339.44 406.972 339.49 406.447 339.391C406.187 339.342 406.015 339.091 406.064 338.83C406.113 338.569 406.364 338.397 406.625 338.446C406.973 338.512 407.59 338.489 408.456 338.342C409.306 338.198 410.349 337.944 411.522 337.585C413.869 336.866 416.713 335.735 419.544 334.25C422.377 332.765 425.182 330.934 427.461 328.821C429.743 326.706 431.472 324.333 432.2 321.768C432.272 321.512 432.538 321.364 432.793 321.436Z" fill="#FFCF2D"/>
<path d="M401.814 380.253C401.814 380.253 430.485 340.379 450.88 342.623C473.084 345.043 383.66 403.507 401.814 380.253Z" fill="#FFCF2D"/>
<path fill-rule="evenodd" clip-rule="evenodd" d="M400.059 379.347C400.059 379.347 400.059 379.347 399.669 379.065L400.059 379.347L400.053 379.354L400.048 379.361C398.48 381.372 398.354 382.882 398.727 383.813C399.102 384.754 400.042 385.265 400.967 385.205C401.232 385.187 401.46 385.388 401.477 385.653C401.494 385.918 401.294 386.147 401.029 386.164C399.729 386.248 398.379 385.533 397.835 384.17C397.287 382.799 397.608 380.93 399.285 378.776L399.286 378.776L399.303 378.753C399.317 378.733 399.339 378.702 399.368 378.663C399.426 378.584 399.511 378.467 399.624 378.315C399.849 378.011 400.181 377.567 400.611 377.002C401.471 375.872 402.723 374.262 404.292 372.337C407.428 368.489 411.833 363.38 416.907 358.342C421.977 353.307 427.729 348.329 433.558 344.755C439.376 341.187 445.337 338.977 450.805 339.579C452.577 339.77 453.817 340.6 454.494 341.748C455.164 342.884 455.249 344.277 454.826 345.546C454.742 345.798 454.47 345.934 454.219 345.85C453.967 345.766 453.831 345.494 453.915 345.242C454.261 344.203 454.178 343.103 453.667 342.236C453.163 341.381 452.21 340.697 450.701 340.535L450.7 340.535C445.546 339.967 439.811 342.048 434.06 345.575C428.319 349.095 422.627 354.016 417.583 359.025C412.541 364.032 408.158 369.114 405.036 372.945C403.475 374.861 402.23 376.462 401.375 377.585C400.948 378.146 400.618 378.587 400.396 378.888C400.284 379.038 400.2 379.153 400.143 379.231C400.115 379.269 400.094 379.299 400.08 379.318L400.064 379.34L400.059 379.347Z" fill="#FFCF2D"/>
<path d="M511.649 212.103C501.5 209.699 476.239 203.368 447.423 196.701C433.88 193.576 422.546 184.345 416.703 171.716L390.465 114.886L406.345 89.6923C411.228 81.9355 419.552 76.9993 428.693 76.4384L444.318 75.4768C460.07 74.5152 472.717 84.3555 477.519 99.4044L509.296 192.486C512.786 201.205 511.649 212.103 511.649 212.103Z" fill="white"/>
<path fill-rule="evenodd" clip-rule="evenodd" d="M444.346 75.9571C444.346 75.9571 444.346 75.9571 444.346 75.9571L428.722 76.9187C419.735 77.4701 411.551 82.3231 406.751 89.949L391.009 114.922L417.138 171.514C422.919 184.009 434.132 193.141 447.53 196.233L447.53 196.233C467.438 200.839 485.658 205.287 498.363 208.388C503.727 209.697 508.108 210.766 511.217 211.506C511.24 211.2 511.268 210.772 511.292 210.242C511.343 209.095 511.376 207.474 511.301 205.583C511.15 201.794 510.565 196.952 508.849 192.665L508.845 192.654L477.064 99.5602L477.062 99.5557L477.061 99.5511C472.317 84.685 459.852 75.0106 444.346 75.9571ZM511.649 212.103L512.126 212.153L512.069 212.697L511.538 212.571C508.395 211.826 503.808 210.707 498.119 209.318C485.417 206.217 467.218 201.775 447.314 197.17C433.626 194.011 422.171 184.681 416.266 171.918L416.266 171.918L389.918 114.851L405.938 89.4363C410.903 81.5486 419.368 76.5293 428.663 75.9589C428.663 75.9589 428.663 75.9589 428.663 75.9589L444.287 74.9973C460.284 74.0208 473.112 84.0246 477.974 99.2534C477.975 99.2551 477.975 99.2567 477.976 99.2584L509.746 192.319C511.516 196.748 512.108 201.709 512.26 205.545C512.337 207.468 512.304 209.117 512.251 210.285C512.225 210.87 512.194 211.335 512.169 211.655C512.157 211.814 512.146 211.938 512.139 212.022C512.137 212.043 512.135 212.061 512.134 212.077C512.132 212.093 512.131 212.107 512.13 212.118L512.127 212.143L512.126 212.15L512.126 212.152L512.126 212.153C512.126 212.153 512.126 212.153 511.649 212.103Z" fill="#FE5244"/>
<path fill-rule="evenodd" clip-rule="evenodd" d="M403.875 118.334C403.874 118.333 403.874 118.333 404.279 118.075C404.684 117.817 404.684 117.816 404.684 117.816L404.684 117.816L404.685 117.818L404.689 117.823C404.692 117.829 404.698 117.837 404.705 117.848C404.72 117.871 404.743 117.906 404.775 117.953C404.838 118.046 404.934 118.184 405.064 118.362C405.323 118.718 405.717 119.234 406.249 119.863C407.314 121.121 408.932 122.833 411.14 124.636C415.555 128.24 422.325 132.207 431.742 133.642L431.598 134.593C421.98 133.127 415.055 129.072 410.533 125.381C408.273 123.536 406.613 121.781 405.516 120.484C404.967 119.836 404.559 119.302 404.287 118.928C404.151 118.741 404.049 118.595 403.981 118.493C403.946 118.443 403.92 118.404 403.903 118.377C403.894 118.363 403.887 118.353 403.882 118.346L403.877 118.337L403.875 118.334L403.875 118.334Z" fill="#FE5244"/>
<path d="M415.549 94.1639C414.685 93.2344 413.164 93.4908 412.636 94.6287C412.043 95.9108 413.116 97.3372 414.509 97.1288C415.934 96.9205 416.526 95.2057 415.549 94.1639Z" fill="#FFCF2D"/>
<path fill-rule="evenodd" clip-rule="evenodd" d="M412.2 94.4266C412.87 92.9834 414.8 92.6546 415.9 93.8362C417.141 95.1612 416.386 97.3401 414.578 97.6051C412.81 97.869 411.446 96.058 412.199 94.4275L412.2 94.4266L412.2 94.4266ZM413.071 94.8315C412.64 95.7648 413.421 96.8059 414.437 96.6539L414.439 96.6537L414.439 96.6537C415.48 96.5015 415.909 95.2519 415.198 94.4935L415.197 94.4921L415.197 94.4921C414.568 93.8156 413.457 93.9996 413.071 94.8315Z" fill="#FE5244"/>
<path d="M455.427 121.553C454.563 120.623 453.042 120.88 452.514 122.017C451.921 123.299 452.994 124.726 454.387 124.518C455.811 124.309 456.404 122.594 455.427 121.553Z" fill="#FFCF2D"/>
<path fill-rule="evenodd" clip-rule="evenodd" d="M452.078 121.815C452.748 120.372 454.678 120.043 455.778 121.225C457.019 122.55 456.264 124.729 454.457 124.994C452.688 125.258 451.324 123.447 452.078 121.816L452.078 121.815L452.078 121.815ZM452.949 122.22C452.518 123.153 453.299 124.195 454.315 124.043L454.317 124.042L454.317 124.042C455.358 123.89 455.788 122.641 455.077 121.882L455.076 121.881L455.076 121.881C454.446 121.204 453.336 121.388 452.949 122.22Z" fill="#FE5244"/>
<path d="M468.058 132.771C467.193 131.842 465.672 132.098 465.144 133.236C464.552 134.518 465.624 135.945 467.017 135.736C468.426 135.544 469.018 133.829 468.058 132.771Z" fill="#FFCF2D"/>
<path fill-rule="evenodd" clip-rule="evenodd" d="M464.708 133.034C465.379 131.591 467.309 131.262 468.409 132.444L468.413 132.449C469.621 133.779 468.892 135.964 467.085 136.213C465.317 136.475 463.955 134.665 464.708 133.035L464.708 133.034L464.708 133.034ZM465.58 133.439C465.149 134.372 465.93 135.413 466.946 135.261L466.952 135.26C467.96 135.123 468.414 133.882 467.704 133.097C467.075 132.423 465.966 132.608 465.58 133.439Z" fill="#FE5244"/>
<path d="M492.278 196.252C491.413 195.322 489.892 195.579 489.364 196.717C488.772 197.999 489.844 199.425 491.237 199.217C492.646 199.008 493.238 197.31 492.278 196.252Z" fill="#FFCF2D"/>
<path fill-rule="evenodd" clip-rule="evenodd" d="M488.929 196.515C489.599 195.071 491.53 194.742 492.629 195.925L492.633 195.929C493.847 197.265 493.104 199.427 491.308 199.693C489.539 199.957 488.175 198.146 488.928 196.515L488.929 196.515L488.929 196.515ZM489.8 196.919C489.369 197.853 490.15 198.894 491.166 198.742L491.167 198.742C492.187 198.591 492.629 197.357 491.924 196.578C491.295 195.904 490.186 196.088 489.8 196.919Z" fill="#FE5244"/>
<path d="M478.719 165.914C477.855 164.984 476.334 165.241 475.806 166.379C475.213 167.661 476.286 169.087 477.679 168.879C479.103 168.671 479.696 166.956 478.719 165.914Z" fill="#FFCF2D"/>
<path fill-rule="evenodd" clip-rule="evenodd" d="M475.37 166.177C476.04 164.733 477.97 164.405 479.07 165.586C480.311 166.911 479.557 169.09 477.749 169.355C475.98 169.619 474.616 167.808 475.37 166.177L475.37 166.177L475.37 166.177ZM476.241 166.582C475.81 167.515 476.591 168.556 477.608 168.404L477.609 168.404L477.609 168.404C478.65 168.251 479.08 167.002 478.369 166.244L478.368 166.242L478.368 166.242C477.738 165.566 476.628 165.75 476.241 166.582Z" fill="#FE5244"/>
<path d="M484.338 144.085C483.089 144.246 482.401 145.64 483.025 146.73C483.729 147.964 485.506 147.916 486.147 146.65C486.803 145.367 485.747 143.893 484.338 144.085Z" fill="#FFCF2D"/>
<path fill-rule="evenodd" clip-rule="evenodd" d="M486.575 146.868C485.762 148.474 483.503 148.536 482.608 146.969C481.815 145.583 482.687 143.814 484.275 143.609C486.065 143.366 487.408 145.24 486.575 146.868ZM485.72 146.431C486.198 145.496 485.429 144.422 484.403 144.562L484.399 144.563C483.491 144.679 482.987 145.698 483.442 146.491L483.442 146.492C483.956 147.392 485.25 147.359 485.719 146.433L485.72 146.431Z" fill="#FE5244"/>
<path d="M494.567 176.458C493.319 176.619 492.63 178.013 493.255 179.103C493.959 180.337 495.736 180.289 496.376 179.023C497.033 177.741 495.992 176.266 494.567 176.458Z" fill="#FFCF2D"/>
<path fill-rule="evenodd" clip-rule="evenodd" d="M496.804 179.241C495.991 180.847 493.733 180.909 492.838 179.342C492.044 177.956 492.917 176.187 494.505 175.982C496.314 175.739 497.636 177.615 496.804 179.241ZM495.949 178.804C496.429 177.867 495.671 176.795 494.632 176.935L494.628 176.936C493.72 177.052 493.217 178.071 493.671 178.864L493.672 178.865C494.186 179.765 495.48 179.732 495.948 178.806L495.949 178.804Z" fill="#FE5244"/>
<path d="M452.145 141.537C451.28 140.607 449.759 140.864 449.231 142.002C448.639 143.284 449.711 144.71 451.104 144.502C452.513 144.294 453.105 142.595 452.145 141.537Z" fill="#FFCF2D"/>
<path fill-rule="evenodd" clip-rule="evenodd" d="M448.796 141.8C449.466 140.356 451.397 140.027 452.496 141.21L452.5 141.214C453.714 142.55 452.972 144.712 451.175 144.978C449.406 145.242 448.042 143.431 448.795 141.8L448.796 141.8L448.796 141.8ZM449.667 142.205C449.236 143.138 450.017 144.179 451.033 144.027L451.034 144.027C452.054 143.876 452.496 142.642 451.791 141.863C451.162 141.189 450.053 141.373 449.667 142.205Z" fill="#FE5244"/>
<path d="M443.324 159.695C442.459 158.766 440.938 159.022 440.41 160.16C439.818 161.442 440.89 162.868 442.283 162.66C443.708 162.452 444.3 160.737 443.324 159.695Z" fill="#FFCF2D"/>
<path fill-rule="evenodd" clip-rule="evenodd" d="M439.975 159.958C440.646 158.515 442.576 158.186 443.676 159.367C444.917 160.692 444.162 162.871 442.354 163.136C440.585 163.4 439.222 161.589 439.975 159.959L439.975 159.958L439.975 159.958ZM440.847 160.363C440.416 161.296 441.197 162.337 442.213 162.185L442.215 162.185L442.215 162.185C443.255 162.033 443.685 160.783 442.974 160.025L442.973 160.023L442.973 160.023C442.344 159.347 441.233 159.531 440.847 160.363Z" fill="#FE5244"/>
<path d="M427.54 153.349C428.468 152.484 428.212 150.961 427.076 150.432C425.795 149.839 424.37 150.913 424.578 152.307C424.787 153.718 426.483 154.311 427.54 153.349Z" fill="#FFCF2D"/>
<path fill-rule="evenodd" clip-rule="evenodd" d="M424.103 152.377C423.839 150.607 425.648 149.241 427.277 149.995L427.278 149.996C428.72 150.667 429.048 152.6 427.867 153.7L427.863 153.704C426.528 154.919 424.369 154.176 424.103 152.377ZM426.873 150.868C425.941 150.437 424.901 151.218 425.053 152.236L425.053 152.237C425.204 153.257 426.436 153.7 427.214 152.995C427.888 152.365 427.703 151.255 426.873 150.868Z" fill="#FE5244"/>
<path d="M441.547 184.601C442.475 183.736 442.219 182.213 441.083 181.684C439.802 181.091 438.377 182.165 438.585 183.559C438.793 184.986 440.506 185.579 441.547 184.601Z" fill="#FFCF2D"/>
<path fill-rule="evenodd" clip-rule="evenodd" d="M438.11 183.629C437.847 181.858 439.656 180.493 441.284 181.247L441.285 181.248C442.727 181.918 443.055 183.851 441.875 184.952C440.551 186.194 438.375 185.439 438.11 183.629ZM440.881 182.12C439.948 181.689 438.908 182.47 439.06 183.488L439.061 183.489L439.061 183.489C439.213 184.531 440.461 184.962 441.218 184.25L441.22 184.249L441.22 184.249C441.895 183.619 441.712 182.507 440.881 182.12Z" fill="#FE5244"/>
<path d="M465.128 157.789C466.056 156.923 465.8 155.401 464.663 154.872C463.383 154.279 461.958 155.353 462.166 156.747C462.374 158.157 464.087 158.766 465.128 157.789Z" fill="#FFCF2D"/>
<path fill-rule="evenodd" clip-rule="evenodd" d="M461.691 156.817C461.427 155.046 463.237 153.681 464.865 154.435L464.866 154.435C466.308 155.106 466.636 157.038 465.456 158.139C464.129 159.385 461.956 158.605 461.691 156.817ZM464.462 155.307C463.53 154.876 462.49 155.658 462.641 156.675L462.642 156.676C462.794 157.708 464.045 158.146 464.799 157.437L464.801 157.436L464.801 157.436C465.477 156.806 465.293 155.694 464.462 155.307Z" fill="#FE5244"/>
<path d="M473.18 191.347C474.109 190.482 473.853 188.959 472.716 188.43C471.435 187.837 470.011 188.911 470.219 190.306C470.411 191.732 472.124 192.325 473.18 191.347Z" fill="#FFCF2D"/>
<path fill-rule="evenodd" clip-rule="evenodd" d="M469.744 190.374C469.482 188.605 471.29 187.242 472.918 187.995L472.919 187.996C474.361 188.667 474.689 190.6 473.508 191.7L473.507 191.702L473.507 191.702C472.175 192.934 469.992 192.197 469.744 190.374ZM472.515 188.868C471.582 188.437 470.542 189.218 470.694 190.236C470.695 190.238 470.695 190.24 470.695 190.243C470.834 191.27 472.074 191.717 472.854 190.996C473.529 190.366 473.345 189.255 472.515 188.868Z" fill="#FE5244"/>
<path d="M424.898 123.381C424.033 122.451 422.513 122.708 421.984 123.846C421.392 125.128 422.465 126.554 423.857 126.346C425.282 126.137 425.874 124.422 424.898 123.381Z" fill="#FFCF2D"/>
<path fill-rule="evenodd" clip-rule="evenodd" d="M421.55 123.641C422.22 122.198 424.15 121.869 425.25 123.051C426.491 124.376 425.736 126.555 423.928 126.82C422.16 127.084 420.796 125.273 421.549 123.642L421.55 123.641L421.55 123.641ZM422.421 124.046C421.99 124.98 422.771 126.021 423.787 125.869L423.789 125.868L423.789 125.868C424.83 125.716 425.26 124.467 424.549 123.708L424.547 123.707L424.547 123.707C423.918 123.03 422.808 123.214 422.421 124.046Z" fill="#FE5244"/>
<path d="M427.764 81.8065C426.899 80.877 425.378 81.1334 424.85 82.2713C424.258 83.5534 425.33 84.9798 426.723 84.7714C428.148 84.5631 428.74 82.8482 427.764 81.8065Z" fill="#FFCF2D"/>
<path fill-rule="evenodd" clip-rule="evenodd" d="M424.414 82.0692C425.084 80.626 427.015 80.2971 428.114 81.4788C429.355 82.8037 428.601 84.9827 426.793 85.2476C425.024 85.5116 423.661 83.7006 424.414 82.07L424.414 82.0692L424.414 82.0692ZM425.286 82.4741C424.855 83.4074 425.636 84.4485 426.652 84.2965L426.654 84.2962L426.654 84.2962C427.694 84.144 428.124 82.8945 427.413 82.1361L427.412 82.1347L427.412 82.1347C426.783 81.4582 425.672 81.6422 425.286 82.4741Z" fill="#FE5244"/>
<path d="M455.427 81.8065C454.563 80.877 453.042 81.1334 452.514 82.2713C451.921 83.5534 452.994 84.9798 454.387 84.7714C455.811 84.5631 456.404 82.8482 455.427 81.8065Z" fill="#FFCF2D"/>
<path fill-rule="evenodd" clip-rule="evenodd" d="M452.078 82.0692C452.748 80.626 454.678 80.2971 455.778 81.4788C457.019 82.8037 456.264 84.9827 454.457 85.2476C452.688 85.5116 451.324 83.7006 452.078 82.07L452.078 82.0692L452.078 82.0692ZM452.949 82.4741C452.518 83.4074 453.299 84.4485 454.315 84.2965L454.317 84.2962L454.317 84.2962C455.358 84.144 455.788 82.8945 455.077 82.1361L455.076 82.1347L455.076 82.1347C454.446 81.4582 453.336 81.6421 452.949 82.4741Z" fill="#FE5244"/>
<path d="M455.474 99.7574C454.306 100.222 453.969 101.729 454.85 102.642C455.826 103.652 457.539 103.187 457.859 101.809C458.18 100.415 456.803 99.2285 455.474 99.7574Z" fill="#FFCF2D"/>
<path fill-rule="evenodd" clip-rule="evenodd" d="M455.297 99.3099C456.987 98.6375 458.735 100.145 458.328 101.916L458.328 101.917C457.921 103.669 455.744 104.257 454.505 102.976L454.505 102.975C453.385 101.813 453.815 99.8997 455.297 99.3099M457.392 101.7C457.625 100.682 456.62 99.8183 455.652 100.203L455.652 100.204C454.798 100.543 454.555 101.642 455.196 102.307C455.91 103.045 457.159 102.703 457.392 101.7Z" fill="#FE5244"/>
<path d="M439.754 89.5321C438.537 89.8847 438.073 91.3431 438.841 92.3367C439.722 93.4426 441.466 93.1381 441.915 91.8079C442.379 90.4456 441.114 89.1314 439.754 89.5321Z" fill="#FFCF2D"/>
<path fill-rule="evenodd" clip-rule="evenodd" d="M439.619 89.0697C441.355 88.5595 442.958 90.2328 442.37 91.9615C441.798 93.6551 439.581 94.0359 438.466 92.6356C438.465 92.6338 438.463 92.632 438.462 92.6302C437.488 91.3706 438.075 89.5179 439.619 89.0697ZM441.461 91.6518C441.8 90.6566 440.875 89.7024 439.889 89.9925L439.888 89.9931L439.888 89.9931C439 90.2502 438.66 91.3115 439.219 92.0389C439.866 92.8467 441.135 92.6183 441.46 91.6533L441.461 91.6518L441.461 91.6518Z" fill="#FE5244"/>
<path d="M437.433 133.926C436.184 134.07 435.48 135.448 436.088 136.554C436.777 137.788 438.554 137.772 439.21 136.522C439.882 135.256 438.858 133.766 437.433 133.926Z" fill="#FFCF2D"/>
<path fill-rule="evenodd" clip-rule="evenodd" d="M439.634 136.745C440.49 135.133 439.181 133.244 437.379 133.447L437.379 133.447L437.378 133.447C435.786 133.631 434.896 135.383 435.667 136.785L435.669 136.787C436.541 138.351 438.798 138.336 439.634 136.745ZM437.487 134.402C438.533 134.285 439.273 135.376 438.785 136.295L438.785 136.295L438.784 136.297C438.307 137.205 437.013 137.222 436.508 136.32C436.064 135.51 436.582 134.507 437.487 134.402Z" fill="#FE5244"/>
<path d="M423.714 167.309C422.465 167.453 421.761 168.831 422.369 169.937C423.057 171.171 424.834 171.155 425.491 169.905C426.163 168.639 425.139 167.149 423.714 167.309Z" fill="#FFCF2D"/>
<path fill-rule="evenodd" clip-rule="evenodd" d="M425.915 170.13C426.771 168.518 425.463 166.629 423.66 166.831L423.66 166.831L423.659 166.832C422.068 167.015 421.177 168.767 421.948 170.17L421.95 170.172C422.822 171.736 425.079 171.721 425.915 170.13ZM423.768 167.787C424.815 167.67 425.555 168.761 425.067 169.68L425.067 169.68L425.066 169.682C424.589 170.59 423.294 170.607 422.789 169.704C422.345 168.895 422.863 167.892 423.768 167.787Z" fill="#FE5244"/>
<path d="M428.324 102.769C427.107 103.122 426.643 104.58 427.411 105.574C428.292 106.68 430.037 106.375 430.485 105.045C430.949 103.699 429.701 102.384 428.324 102.769Z" fill="#FFCF2D"/>
<path fill-rule="evenodd" clip-rule="evenodd" d="M430.94 105.201C431.531 103.482 429.938 101.82 428.195 102.307L428.191 102.308C426.646 102.756 426.058 104.609 427.032 105.869C427.033 105.871 427.035 105.872 427.036 105.874C428.151 107.274 430.368 106.894 430.94 105.201ZM428.456 103.232C429.465 102.952 430.367 103.916 430.032 104.889L430.03 104.892C429.705 105.857 428.436 106.085 427.789 105.277C427.23 104.551 427.57 103.491 428.456 103.232Z" fill="#FE5244"/>
<path d="M441.579 111.745C440.362 112.098 439.898 113.556 440.666 114.55C441.547 115.655 443.292 115.351 443.74 114.021C444.204 112.659 442.956 111.344 441.579 111.745Z" fill="#FFCF2D"/>
<path fill-rule="evenodd" clip-rule="evenodd" d="M441.446 111.282C443.198 110.773 444.784 112.447 444.196 114.174C443.624 115.868 441.407 116.249 440.292 114.848C440.29 114.847 440.289 114.845 440.287 114.843C439.313 113.583 439.901 111.73 441.446 111.282ZM443.286 113.865C443.626 112.868 442.714 111.915 441.714 112.206L441.713 112.206C440.826 112.463 440.485 113.524 441.045 114.252C441.691 115.06 442.961 114.831 443.286 113.866L443.286 113.865L443.286 113.865Z" fill="#FE5244"/>
<path d="M412.877 111.359C413.678 110.382 413.245 108.907 412.029 108.539C410.684 108.122 409.403 109.372 409.803 110.718C410.204 112.096 411.965 112.465 412.877 111.359Z" fill="#FFCF2D"/>
<path fill-rule="evenodd" clip-rule="evenodd" d="M412.168 108.079C413.717 108.55 414.261 110.427 413.247 111.665L413.246 111.666L413.246 111.666C412.087 113.071 409.85 112.6 409.342 110.854C408.831 109.133 410.466 107.553 412.168 108.079ZM411.886 108.998C410.9 108.693 409.974 109.612 410.263 110.582L410.263 110.585C410.557 111.594 411.84 111.86 412.505 111.054C413.092 110.337 412.772 109.267 411.888 108.999L411.886 108.998Z" fill="#FE5244"/>
<path d="M473.564 111.408C474.365 110.43 473.932 108.956 472.716 108.587C471.371 108.171 470.09 109.421 470.49 110.767C470.875 112.145 472.652 112.514 473.564 111.408Z" fill="#FFCF2D"/>
<path fill-rule="evenodd" clip-rule="evenodd" d="M472.857 108.128C474.406 108.599 474.95 110.476 473.936 111.713L473.935 111.715L473.935 111.715C472.78 113.115 470.522 112.655 470.03 110.901C469.522 109.18 471.155 107.602 472.857 108.128ZM472.574 109.047C471.589 108.742 470.663 109.661 470.952 110.63C470.952 110.633 470.953 110.636 470.954 110.638C471.232 111.637 472.525 111.913 473.194 111.103C473.78 110.386 473.461 109.316 472.577 109.048L472.574 109.047Z" fill="#FE5244"/>
<path d="M458.164 176.379C458.964 175.401 458.532 173.927 457.315 173.558C455.971 173.141 454.69 174.391 455.09 175.738C455.474 177.1 457.251 177.469 458.164 176.379Z" fill="#FFCF2D"/>
<path fill-rule="evenodd" clip-rule="evenodd" d="M457.456 173.099C459.004 173.569 459.548 175.446 458.535 176.684L458.532 176.688C457.378 178.067 455.122 177.612 454.629 175.872C454.12 174.151 455.754 172.573 457.456 173.099ZM457.173 174.018C456.187 173.712 455.262 174.631 455.55 175.601L455.552 175.608C455.829 176.589 457.123 176.87 457.794 176.073C458.379 175.355 458.059 174.286 457.176 174.019L457.173 174.018Z" fill="#FE5244"/>
<path d="M445.389 74.95C445.037 74.9661 444.685 74.9821 444.317 74.9981L428.692 75.9597C424.706 76.2001 420.896 77.2739 417.438 79.0528L412.636 64.661L434.039 48.9551L445.389 74.95Z" fill="#E57281"/>
<path d="M417.374 78.8288C421.825 76.8095 425.379 73.2196 427.396 68.7642L435.176 51.5357L434.039 48.9395L412.636 64.6454L417.374 78.8288Z" fill="#9A3B82"/>
<path d="M435.415 50.3975C435.415 51.8879 434.807 53.2342 433.83 54.2118C432.854 55.1894 431.509 55.7984 430.02 55.7984H425.314C423.457 63.0263 416.269 67.9785 408.537 66.6163L404.999 65.9912C401.125 65.3021 398.484 61.6801 399.028 57.7857L403.174 36.9993C403.895 32.56 408.457 29.8515 412.699 31.374L419.567 34.1306C423.281 35.4127 425.778 38.9065 425.778 42.833V44.8363L430.02 44.9965C432.998 44.9965 435.415 47.4165 435.415 50.3975Z" fill="#E57281"/>
<path fill-rule="evenodd" clip-rule="evenodd" d="M431.173 48.106C429.329 48.106 427.843 49.5934 427.843 51.4395C427.843 51.6608 427.664 51.8402 427.443 51.8402C427.222 51.8402 427.043 51.6608 427.043 51.4395C427.043 49.1508 428.887 47.3047 431.173 47.3047C431.394 47.3047 431.573 47.4841 431.573 47.7053C431.573 47.9266 431.394 48.106 431.173 48.106Z" fill="#9A3B82"/>
<path fill-rule="evenodd" clip-rule="evenodd" d="M405.079 41.3753C405.079 41.154 405.258 40.9746 405.479 40.9746L405.479 41.3753C405.479 40.9746 405.48 40.9746 405.48 40.9746L405.48 40.9746L405.481 40.9746L405.485 40.9746L405.495 40.9748C405.504 40.9749 405.515 40.9751 405.53 40.9756C405.56 40.9765 405.601 40.9783 405.654 40.9817C405.76 40.9886 405.911 41.0022 406.099 41.029C406.473 41.0824 406.994 41.1886 407.593 41.4001C408.793 41.8237 410.306 42.6706 411.563 44.357C411.695 44.5343 411.659 44.7854 411.482 44.9177C411.305 45.05 411.054 45.0136 410.922 44.8362C409.777 43.3013 408.409 42.5375 407.327 42.1558C406.786 41.9646 406.317 41.8695 405.986 41.8223C405.82 41.7987 405.69 41.7871 405.602 41.7814C405.559 41.7785 405.526 41.7772 405.505 41.7765C405.495 41.7762 405.487 41.7761 405.483 41.776L405.479 41.7759C405.479 41.7759 405.478 41.7759 405.478 41.7759L405.479 41.7759" fill="#9A3B82"/>
<path d="M407.714 47.3728C407.883 46.441 407.667 45.6214 407.233 45.5423C406.798 45.4632 406.308 46.1544 406.139 47.0862C405.97 48.0181 406.185 48.8376 406.62 48.9167C407.055 48.9958 407.545 48.3046 407.714 47.3728Z" fill="#9A3B82"/>
<path d="M430.021 44.9958C432.999 44.9958 435.416 47.4158 435.416 50.3968C435.416 50.4128 435.416 50.4448 435.416 50.4769C437.817 46.7748 443.708 37.3512 443.708 34.1619C443.708 29.8829 438.377 25.6038 432.855 27.559C433.223 27.2866 433.607 26.9981 434.007 26.6936C436.136 25.0269 437.257 23.7768 437.433 22.8793C437.497 22.5588 437.449 22.2703 437.289 22.0459C436.649 21.1324 435.944 20.7318 435.192 20.86C434.087 21.0363 432.951 22.3985 431.814 24.8986C431.302 26.0365 430.902 27.1584 430.677 27.8475C430.229 25.1711 428.068 16.3085 418.783 17.6707C415.581 18.1355 414.077 19.4657 413.66 20.9241C411.003 18.8406 407.449 17.2059 404.503 18.7605C399.413 21.4369 400.037 25.8282 402.983 28.9373C400.197 28.8892 398.244 29.7066 398.244 32.0625C398.244 34.226 400.469 35.2678 403.527 35.6845C406.585 36.1011 410.507 35.8768 413.9 35.4921C416.318 35.2197 418.495 34.8831 419.888 34.6427C418.959 36.5499 418.591 38.1846 418.671 39.5629C418.815 42.4156 420.88 44.0984 423.794 44.6913C424.418 44.8195 425.09 44.8997 425.779 44.9317L430.021 44.9958ZM435.288 21.501C435.336 21.485 435.384 21.485 435.448 21.485C435.896 21.485 436.328 21.8055 436.761 22.4145C436.793 22.4786 436.841 22.5748 436.809 22.7511C436.553 24.0492 433.271 26.5173 431.366 27.8155C432.118 25.6038 433.703 21.7735 435.288 21.501Z" fill="#FFCF2D"/>
<path d="M385.645 167.759H283.19C280.661 167.759 279.14 164.97 280.485 162.839L294.124 141.395C295.901 138.607 298.959 136.924 302.257 136.924H371.606L385.645 167.759Z" fill="#E57281"/>
<path d="M304.514 136.94L312.678 123.478C313.158 122.677 314.039 122.18 314.967 122.18C317.064 122.18 318.345 124.471 317.257 126.266L310.773 136.94H304.514Z" fill="#FE5244"/>
<path d="M385.645 167.759H362.609C362.561 167.711 362.497 167.647 362.449 167.599C356.846 161.829 354.461 153.079 357.614 144.649L360.896 136.924H371.606L385.645 167.759Z" fill="#9A3B82"/>
<path d="M297.662 153.367H284.823C283.959 153.367 283.158 153.832 282.726 154.585L281.365 156.957C280.453 158.56 281.605 160.563 283.462 160.563H293.788C295.581 160.563 297.246 159.634 298.19 158.095L299.295 156.284C300.063 155.002 299.151 153.367 297.662 153.367Z" fill="#E57281"/>
<path d="M294.349 160.562H281.51C280.646 160.562 279.845 161.027 279.413 161.781L278.052 164.152C277.14 165.755 278.292 167.758 280.149 167.758H290.475C292.268 167.758 293.933 166.829 294.877 165.29L295.982 163.479C296.766 162.197 295.838 160.562 294.349 160.562Z" fill="#E57281"/>
<path d="M301.329 146.076H288.49C287.625 146.076 286.825 146.541 286.393 147.294L285.032 149.666C284.119 151.269 285.272 153.272 287.129 153.272H297.455C299.248 153.272 300.912 152.343 301.857 150.804L302.961 148.993C303.746 147.711 302.817 146.076 301.329 146.076Z" fill="#E57281"/>
<path fill-rule="evenodd" clip-rule="evenodd" d="M282.38 154.386C282.883 153.509 283.816 152.967 284.824 152.967H297.663C299.468 152.967 300.565 154.946 299.639 156.49L299.638 156.492L298.533 158.304L298.532 158.305C297.515 159.962 295.721 160.964 293.789 160.964H283.463C281.298 160.964 279.954 158.628 281.018 156.759L281.019 156.758L282.38 154.386ZM283.074 154.785C283.074 154.785 283.074 154.785 283.074 154.785L281.714 157.156C281.714 157.156 281.714 157.156 281.714 157.156C280.953 158.492 281.914 160.163 283.463 160.163H293.789C295.442 160.163 296.978 159.306 297.85 157.886C297.85 157.886 297.85 157.886 297.85 157.885L298.953 156.078C298.953 156.078 298.953 156.077 298.953 156.077C299.563 155.058 298.835 153.768 297.663 153.768H284.824C284.103 153.768 283.435 154.156 283.074 154.785Z" fill="#9A3B82"/>
<path fill-rule="evenodd" clip-rule="evenodd" d="M279.065 161.581C279.569 160.704 280.501 160.162 281.51 160.162H294.348C296.147 160.162 297.272 162.137 296.323 163.689L295.218 165.499L295.218 165.5C294.2 167.157 292.407 168.159 290.474 168.159H280.149C277.984 168.159 276.64 165.823 277.704 163.954L277.705 163.953L279.065 161.581ZM279.759 161.98C279.759 161.98 279.759 161.98 279.759 161.98L278.399 164.351C278.399 164.351 278.399 164.351 278.399 164.352C277.639 165.688 278.6 167.358 280.149 167.358H290.474C292.128 167.358 293.664 166.501 294.535 165.081C294.536 165.081 294.536 165.081 294.536 165.081L295.64 163.27C296.26 162.257 295.527 160.963 294.348 160.963H281.51C280.789 160.963 280.121 161.351 279.759 161.98Z" fill="#9A3B82"/>
<path fill-rule="evenodd" clip-rule="evenodd" d="M286.045 147.093C286.549 146.216 287.481 145.674 288.49 145.674H301.328C303.127 145.674 304.252 147.649 303.303 149.201L302.198 151.011L302.198 151.012C301.18 152.669 299.387 153.671 297.454 153.671H287.129C284.964 153.671 283.62 151.335 284.684 149.466L284.685 149.465L286.045 147.093ZM286.739 147.492C286.739 147.492 286.739 147.492 286.739 147.492L285.379 149.863C285.379 149.863 285.379 149.863 285.379 149.863C284.619 151.2 285.58 152.87 287.129 152.87H297.454C299.108 152.87 300.644 152.013 301.515 150.593C301.516 150.593 301.516 150.593 301.516 150.592L302.62 148.782C303.24 147.769 302.507 146.475 301.328 146.475H288.49C287.769 146.475 287.101 146.863 286.739 147.492Z" fill="#9A3B82"/>
<path d="M319.915 156.796C316.056 156.796 312.343 155.402 309.429 152.853L304.562 148.59H300.08L298.927 149.824C296.862 152.036 294.317 153.302 291.291 153.302H289.146C288.026 153.302 287.337 152.052 287.946 151.107L293.34 142.645H319.931V156.796H319.915Z" fill="#E57281"/>
<path fill-rule="evenodd" clip-rule="evenodd" d="M293.555 142.307C293.742 142.426 293.796 142.674 293.677 142.86L288.283 151.322L288.282 151.324C287.847 152 288.339 152.902 289.146 152.902H291.291C294.192 152.902 296.635 151.708 298.634 149.552L298.635 149.551L299.906 148.19H304.712L309.692 152.552C309.692 152.552 309.692 152.552 309.692 152.552M304.412 148.991L309.165 153.155L309.165 153.156C312.136 155.751 315.959 157.197 319.914 157.197C320.135 157.197 320.314 157.018 320.314 156.796C320.314 156.575 320.135 156.396 319.914 156.396C316.154 156.396 312.517 155.021 309.692 152.552M304.412 148.991H300.253L299.22 150.097C299.22 150.097 299.22 150.098 299.22 150.098C297.089 152.397 294.441 153.703 291.291 153.703H289.146C287.712 153.703 286.828 152.105 287.608 150.891C287.608 150.89 287.609 150.89 287.609 150.89L293.003 142.429C293.122 142.243 293.369 142.188 293.555 142.307" fill="#9A3B82"/>
<path d="M428.004 137.788L403.559 165.129C398.42 170.883 391.072 174.168 383.356 174.168C368.116 174.168 357.567 158.943 362.913 144.647L391.953 76.3424L382.14 70.8453C380.747 69.7555 380.075 67.9766 380.379 66.2457L382.044 55.0112C382.556 52.511 385.101 50.5558 387.583 49.9789L399.077 47.3826C400.053 47.1582 400.95 47.9916 400.79 48.9692L399.125 57.6395C398.468 61.8705 401.318 65.5245 405.544 66.2457C409.002 66.8387 411.435 70.3165 411.115 73.8102L403.287 122.691C403.271 122.723 411.291 135.24 428.004 137.788Z" fill="#E57281"/>
<path fill-rule="evenodd" clip-rule="evenodd" d="M409.319 85.034C409.538 85.0677 409.688 85.2723 409.654 85.491L400.209 146.888C400.175 147.107 399.971 147.257 399.752 147.223C399.534 147.19 399.384 146.985 399.418 146.767L408.863 85.369C408.897 85.1503 409.101 85.0003 409.319 85.034Z" fill="#9A3B82"/>
<path fill-rule="evenodd" clip-rule="evenodd" d="M389.692 55.4279C389.913 55.4351 390.087 55.6202 390.079 55.8413L389.951 59.8147C389.951 59.8149 389.951 59.8151 389.951 59.8153C389.908 61.2876 390.783 62.5419 391.984 62.8912L406.68 65.8689C406.896 65.9128 407.036 66.1242 406.993 66.3411C406.949 66.558 406.738 66.6982 406.521 66.6543L391.794 63.6703L391.779 63.6661C390.169 63.2083 389.099 61.5822 389.151 59.7912L389.151 59.79L389.279 55.8155C389.287 55.5943 389.471 55.4208 389.692 55.4279Z" fill="#9A3B82"/>
<path fill-rule="evenodd" clip-rule="evenodd" d="M398.904 47.3619C399.984 47.1034 400.978 48.034 400.783 49.1356L399.264 57.8306C398.754 61.5047 401.245 64.9229 404.901 65.5779L416.659 67.1474C416.878 67.1766 417.032 67.3781 417.003 67.5975C416.973 67.8168 416.772 67.9709 416.553 67.9417L404.778 66.3699L404.77 66.3684C400.685 65.6418 397.898 61.8222 398.472 57.7128L398.473 57.7061L399.995 48.9964C400.089 48.4637 399.611 48.0163 399.09 48.1414L399.089 48.1417L387.081 50.9466C386.866 50.9969 386.651 50.863 386.6 50.6475C386.55 50.432 386.684 50.2166 386.899 50.1663L398.903 47.3622C398.904 47.3621 398.904 47.362 398.904 47.3619Z" fill="#9A3B82"/>
<path fill-rule="evenodd" clip-rule="evenodd" d="M442.289 122.629L410.464 158.08L409.75 157.437L441.575 121.986L442.289 122.629Z" fill="#FE5244"/>
<path fill-rule="evenodd" clip-rule="evenodd" d="M391.889 76.3597C391.889 76.1384 392.068 75.959 392.289 75.959H397.908C398.129 75.959 398.308 76.1384 398.308 76.3597C398.308 76.5809 398.129 76.7603 397.908 76.7603H392.289C392.068 76.7603 391.889 76.5809 391.889 76.3597Z" fill="#9A3B82"/>
<path fill-rule="evenodd" clip-rule="evenodd" d="M394.822 49.1873C395.396 49.5782 395.821 50.2205 395.811 51.026L395.699 59.3897C395.698 60.4282 394.955 61.3421 393.922 61.3421H392.161C390.536 61.3421 389.296 59.8668 389.296 58.1689V56.8868C389.296 56.6655 389.475 56.4861 389.696 56.4861C389.917 56.4861 390.096 56.6655 390.096 56.8868V58.1689C390.096 59.516 391.065 60.5408 392.161 60.5408H393.922C394.425 60.5408 394.899 60.0781 394.899 59.3869V59.3842L395.011 51.0161C395.011 51.0161 395.011 51.016 395.011 51.0159C395.017 50.5234 394.762 50.1161 394.372 49.8498C393.975 49.5793 393.465 49.4762 393.024 49.5834C392.809 49.6356 392.593 49.5036 392.541 49.2886C392.489 49.0736 392.621 48.8569 392.835 48.8047C393.515 48.6395 394.254 48.8007 394.822 49.1873Z" fill="#9A3B82"/>
<path fill-rule="evenodd" clip-rule="evenodd" d="M395.41 56.4863C395.632 56.4863 395.811 56.6657 395.811 56.887V58.1691C395.811 59.5162 396.779 60.541 397.876 60.541H398.996C399.217 60.541 399.397 60.7204 399.397 60.9417C399.397 61.163 399.217 61.3424 398.996 61.3424H397.876C396.251 61.3424 395.01 59.867 395.01 58.1691V56.887C395.01 56.6657 395.189 56.4863 395.41 56.4863Z" fill="#9A3B82"/>
<path fill-rule="evenodd" clip-rule="evenodd" d="M519.832 413.918L501.246 259.07L502.2 258.955L520.786 413.803L519.832 413.918Z" fill="#66B0F0"/>
<path fill-rule="evenodd" clip-rule="evenodd" d="M402.105 413.803L420.691 258.955L421.645 259.07L403.059 413.918L402.105 413.803Z" fill="#66B0F0"/>
<path fill-rule="evenodd" clip-rule="evenodd" d="M513.922 361.167H408.954V360.205H513.922V361.167Z" fill="#66B0F0"/>
<path d="M410.458 259.494H511.472C512.817 259.494 513.905 258.404 513.905 257.058V253.756C513.905 252.41 512.817 251.32 511.472 251.32H410.458C409.113 251.32 408.025 252.41 408.025 253.756V257.058C408.025 258.404 409.113 259.494 410.458 259.494Z" fill="white"/>
<path fill-rule="evenodd" clip-rule="evenodd" d="M407.545 253.757C407.545 252.145 408.849 250.84 410.458 250.84H511.472C513.082 250.84 514.386 252.145 514.386 253.757V257.058C514.386 258.67 513.082 259.975 511.472 259.975H410.458C408.849 259.975 407.545 258.67 407.545 257.058V253.757ZM410.458 251.801C409.379 251.801 408.505 252.676 408.505 253.757V257.058C408.505 258.139 409.379 259.013 410.458 259.013H511.472C512.552 259.013 513.425 258.139 513.425 257.058V253.757C513.425 252.676 512.552 251.801 511.472 251.801H410.458Z" fill="#FFCF2D"/>
<path d="M242.369 142.309L226.905 174.169H180.176L198.954 142.309H242.369Z" fill="white"/>
<path fill-rule="evenodd" clip-rule="evenodd" d="M198.726 141.908H243.009L227.156 174.57H179.476L198.726 141.908ZM199.183 142.71L180.877 173.769H226.655L241.73 142.71H199.183Z" fill="#3FB1B5"/>
<path fill-rule="evenodd" clip-rule="evenodd" d="M213.724 148.541C214.081 148.769 214.434 148.996 214.787 149.211C215.358 149.558 216.035 149.669 216.817 149.608C217.603 149.547 218.469 149.314 219.393 149.001C219.97 148.806 220.551 148.586 221.142 148.362C221.505 148.225 221.872 148.086 222.245 147.95C223.209 147.599 224.19 147.278 225.137 147.107C227.691 146.638 229.525 147.313 230.722 148.123C231.316 148.526 231.749 148.958 232.034 149.292C232.177 149.459 232.284 149.602 232.355 149.705C232.391 149.756 232.419 149.798 232.438 149.828C232.447 149.842 232.455 149.854 232.46 149.863C232.463 149.867 232.465 149.871 232.466 149.874L232.468 149.877L232.469 149.878L232.469 149.879C232.47 149.879 232.47 149.879 232.124 150.082C231.779 150.284 231.779 150.284 231.779 150.285L231.777 150.281C231.776 150.279 231.774 150.277 231.772 150.274C231.77 150.27 231.767 150.265 231.763 150.258C231.75 150.238 231.728 150.205 231.699 150.164C231.641 150.08 231.55 149.958 231.426 149.813C231.178 149.523 230.797 149.142 230.273 148.787C229.233 148.083 227.609 147.468 225.281 147.896L225.279 147.896C224.402 148.054 223.474 148.356 222.518 148.703C222.167 148.832 221.808 148.967 221.447 149.103C220.844 149.332 220.237 149.561 219.65 149.76C218.705 150.08 217.765 150.338 216.879 150.407C215.989 150.476 215.129 150.357 214.371 149.895C213.982 149.659 213.607 149.418 213.239 149.183C212.313 148.589 211.43 148.024 210.487 147.615C209.201 147.055 207.847 146.812 206.234 147.262C204.55 147.733 203.082 148.42 202.033 148.991C201.51 149.277 201.092 149.532 200.807 149.715C200.664 149.807 200.555 149.881 200.481 149.931C200.445 149.956 200.417 149.975 200.399 149.988C200.39 149.994 200.383 149.999 200.379 150.002L200.375 150.005L200.374 150.006C200.374 150.006 200.374 150.006 200.139 149.681C199.905 149.356 199.905 149.356 199.905 149.356L199.906 149.356L199.907 149.354L199.914 149.35C199.92 149.346 199.928 149.34 199.938 149.333C199.959 149.318 199.99 149.297 200.029 149.269C200.109 149.215 200.225 149.137 200.375 149.041C200.674 148.849 201.108 148.583 201.651 148.287C202.735 147.697 204.261 146.982 206.019 146.491C207.847 145.98 209.392 146.265 210.806 146.88C211.812 147.317 212.777 147.935 213.724 148.541Z" fill="#3FB1B5"/>
<path fill-rule="evenodd" clip-rule="evenodd" d="M212.123 153.51C212.48 153.738 212.833 153.965 213.186 154.179C213.757 154.527 214.434 154.638 215.216 154.577C216.001 154.516 216.868 154.283 217.792 153.97C218.369 153.774 218.95 153.555 219.541 153.331C219.904 153.194 220.271 153.055 220.644 152.919C221.608 152.568 222.589 152.247 223.536 152.076C226.09 151.607 227.924 152.282 229.121 153.092C229.715 153.494 230.148 153.927 230.433 154.261C230.576 154.428 230.683 154.57 230.754 154.673C230.79 154.725 230.818 154.767 230.837 154.796C230.846 154.811 230.853 154.823 230.859 154.832C230.861 154.836 230.864 154.84 230.865 154.842L230.867 154.846L230.868 154.847L230.868 154.848C230.868 154.848 230.869 154.848 230.523 155.051C230.178 155.253 230.178 155.253 230.178 155.253L230.176 155.249C230.175 155.248 230.173 155.245 230.171 155.242C230.169 155.238 230.166 155.233 230.162 155.227C230.149 155.206 230.127 155.174 230.098 155.132C230.04 155.049 229.949 154.927 229.825 154.782C229.577 154.491 229.196 154.111 228.672 153.756C227.632 153.052 226.008 152.436 223.68 152.864L223.678 152.865C222.801 153.023 221.873 153.324 220.917 153.672C220.566 153.8 220.207 153.936 219.846 154.072C219.243 154.3 218.636 154.53 218.049 154.729C217.104 155.049 216.164 155.307 215.278 155.376C214.388 155.445 213.528 155.326 212.77 154.864C212.381 154.627 212.006 154.387 211.638 154.152C210.712 153.558 209.829 152.993 208.886 152.583C207.6 152.024 206.246 151.78 204.633 152.231C202.949 152.702 201.481 153.389 200.432 153.96C199.909 154.245 199.491 154.501 199.206 154.684C199.063 154.776 198.953 154.849 198.88 154.899C198.844 154.925 198.816 154.944 198.798 154.957C198.789 154.963 198.782 154.968 198.778 154.971L198.773 154.974L198.773 154.975C198.773 154.975 198.773 154.975 198.538 154.65C198.304 154.325 198.304 154.325 198.304 154.325L198.305 154.325L198.306 154.323L198.313 154.318C198.319 154.314 198.327 154.309 198.337 154.301C198.358 154.287 198.389 154.265 198.428 154.238C198.508 154.184 198.624 154.106 198.773 154.01C199.073 153.817 199.507 153.552 200.05 153.256C201.134 152.666 202.659 151.951 204.418 151.459C206.246 150.948 207.79 151.234 209.205 151.848C210.211 152.285 211.176 152.903 212.123 153.51Z" fill="#3FB1B5"/>
<path d="M259.947 285.297C259.947 289.577 248.084 293.038 233.228 293.038C218.372 293.038 206.862 289.577 206.862 285.297C206.862 281.018 218.372 277.557 233.228 277.557C248.084 277.557 259.947 281.034 259.947 285.297Z" fill="#FE5244"/>
<path d="M253.111 280.089V335.38L251.43 327.399C249.621 318.809 242.049 312.671 233.277 312.671C230.635 312.671 228.042 313.232 225.689 314.289C225.608 314.321 225.528 314.369 225.432 314.402L219.269 291.9L215.843 279.384C220.534 278.246 226.601 277.557 233.229 277.557C241.105 277.557 248.197 278.534 253.111 280.089Z" fill="#A0505A"/>
<path d="M253.111 280.089V290.506C248.197 292.06 241.105 293.038 233.229 293.038C228.122 293.038 223.351 292.621 219.269 291.916L215.843 279.399C220.534 278.262 226.601 277.572 233.229 277.572C241.105 277.556 248.197 278.534 253.111 280.089Z" fill="#73325A"/>
<path d="M251.925 333.761C252.357 333.889 256.424 335.027 260.026 335.027C261.979 335.027 263.788 334.691 264.812 333.665C265.693 332.783 265.901 331.501 265.437 329.883C265.02 328.44 264.22 327.543 263.051 327.222C260.906 326.645 257.928 328.248 255.575 329.931C259.241 325.475 262.859 319.818 261.514 316.116C261.034 314.802 259.946 313.92 258.585 313.76C257.448 313.632 256.392 314.032 255.895 314.786C253.59 318.295 251.701 332.703 251.621 333.312L251.925 333.761ZM256.568 315.234C256.856 314.802 257.464 314.545 258.169 314.545C258.281 314.545 258.393 314.545 258.505 314.561C259.017 314.625 260.25 314.914 260.778 316.388C261.13 317.366 261.258 319.161 259.834 322.174C258.489 325.027 256.055 328.376 252.598 332.174C253.11 328.52 254.743 318.007 256.568 315.234ZM264.252 333.104C263.195 334.162 260.794 334.482 257.288 334.033C255.447 333.793 253.734 333.408 252.822 333.168C253.51 332.559 254.791 331.453 256.28 330.427C259.129 328.456 261.402 327.607 262.859 328.008C263.74 328.248 264.332 328.937 264.684 330.107C265.068 331.453 264.924 332.431 264.252 333.104Z" fill="#FFCF2D"/>
<path d="M219.43 318.888L215.732 323.039C211.538 327.751 210.849 334.61 214.035 340.059L230.316 368.009C233.501 373.474 239.345 376.824 245.652 376.824H252.392C257.274 376.824 260.908 372.336 259.9 367.56L251.415 327.414C249.606 318.824 242.034 312.686 233.261 312.686C227.995 312.67 222.952 314.929 219.43 318.888Z" fill="white"/>
<path fill-rule="evenodd" clip-rule="evenodd" d="M219.13 318.621C222.728 314.578 227.879 312.269 233.261 312.285C242.222 312.286 249.957 318.556 251.805 327.331M251.805 327.332L260.29 367.478C261.351 372.503 257.527 377.224 252.39 377.224H245.651C239.201 377.224 233.226 373.799 229.969 368.211L213.689 340.261C210.415 334.662 211.123 327.614 215.432 322.772L219.13 318.622M233.259 313.087C228.107 313.071 223.174 315.281 219.728 319.155L219.727 319.155L216.03 323.306C216.03 323.306 216.03 323.306 216.029 323.306C211.951 327.888 211.281 334.558 214.379 339.857L214.38 339.857L230.66 367.807C230.66 367.807 230.66 367.807 230.66 367.807C233.774 373.149 239.486 376.423 245.651 376.423H252.39C257.019 376.423 260.463 372.17 259.507 367.643L251.022 327.497L251.022 327.497C249.252 319.092 241.844 313.087 233.26 313.087L233.259 313.087Z" fill="#3FB1B5"/>
<path d="M232.028 330.972L253.047 371.743C254.04 373.586 255.272 374.772 256.681 375.525C255.465 376.343 253.992 376.839 252.391 376.839H245.651C239.328 376.839 233.485 373.474 230.315 368.025L214.035 340.059C213.378 338.921 212.882 337.735 212.546 336.501C210.24 327.927 219.99 321.196 227.306 326.228C228.97 327.366 230.603 328.904 232.028 330.972Z" fill="#3FB1B5"/>
<path d="M232.076 331.069H212.673C212.769 330.764 212.881 330.476 213.01 330.203H231.451C231.643 330.46 231.836 330.716 232.028 330.988L232.076 331.069Z" fill="white"/>
<path d="M234.925 336.582H212.577C212.577 336.55 212.561 336.518 212.561 336.502C212.497 336.246 212.433 335.973 212.385 335.717H234.493L234.925 336.582Z" fill="white"/>
<path d="M237.775 342.11H215.234L214.722 341.229H237.326L237.775 342.11Z" fill="white"/>
<path d="M240.624 347.639H218.452L217.94 346.758H240.176L240.624 347.639Z" fill="white"/>
<path d="M243.473 353.152H221.669L221.157 352.287H243.025L243.473 353.152Z" fill="white"/>
<path d="M246.323 358.682H224.887L224.375 357.801H245.859L246.323 358.682Z" fill="white"/>
<path d="M249.172 364.212H228.105L227.593 363.33H248.708L249.172 364.212Z" fill="white"/>
<path d="M252.006 369.725H231.451C231.243 369.436 231.035 369.148 230.843 368.859H251.558L252.006 369.725Z" fill="white"/>
<path d="M256.216 375.254H238.351C237.775 374.998 237.214 374.709 236.67 374.389H255.064C255.432 374.709 255.816 374.998 256.216 375.254Z" fill="white"/>
<path d="M194.375 284.159C194.231 288.39 182.241 291.82 167.481 291.82C152.721 291.82 140.731 288.406 140.586 284.159V250.84H194.375V284.159Z" fill="#73325A"/>
<path d="M190.805 289.688L190.725 293.646L189.956 332.286V331.164C189.956 321.244 181.92 313.198 172.011 313.198H170.922C165.864 313.198 161.301 315.17 157.923 318.343L155.57 302.413L154.113 292.556C158.051 293.213 162.614 293.582 167.464 293.582C177.454 293.566 186.146 291.995 190.805 289.688Z" fill="#A0505A"/>
<path d="M190.804 289.688L190.724 293.646C184.769 297.877 166.375 303.086 155.585 302.396L154.128 292.54C158.067 293.181 162.629 293.566 167.479 293.566C177.453 293.566 186.145 291.995 190.804 289.688Z" fill="#73325A"/>
<path d="M172.829 377.353H175.806C183.619 377.353 189.958 371.007 189.958 363.186V331.165C189.958 321.245 181.922 313.199 172.012 313.199H170.924C159.398 313.199 150.513 323.376 152.066 334.819L155.828 362.513C156.996 371.007 164.248 377.353 172.829 377.353Z" fill="white"/>
<path fill-rule="evenodd" clip-rule="evenodd" d="M151.669 334.873C150.083 323.19 159.155 312.799 170.923 312.799H172.012C182.142 312.799 190.358 321.024 190.358 331.165V363.186C190.358 371.228 183.839 377.754 175.806 377.754H172.828C164.047 377.754 156.627 371.26 155.431 362.568L151.669 334.873ZM152.462 334.765L156.224 362.458C157.365 370.754 164.448 376.953 172.828 376.953H175.806C183.397 376.953 189.557 370.786 189.557 363.186V331.165C189.557 321.466 181.7 313.6 172.012 313.6H170.923C159.639 313.6 150.942 323.563 152.462 334.765Z" fill="#3FB1B5"/>
<path d="M185.508 373.49C182.979 375.878 179.553 377.353 175.807 377.353H172.829C164.249 377.353 156.997 371.006 155.844 362.512L152.082 334.819C152.018 334.29 151.954 333.761 151.938 333.248C152.899 327.11 158.197 322.414 164.601 322.414C167.754 322.414 170.668 323.568 172.925 325.491C175.182 327.414 176.767 330.123 177.264 333.248L182.21 367.048C182.578 369.564 183.763 371.808 185.508 373.49Z" fill="#3FB1B5"/>
<path d="M175.773 328.969H153.409C153.569 328.664 153.761 328.376 153.953 328.104H175.245C175.437 328.376 175.613 328.664 175.773 328.969Z" fill="white"/>
<path d="M177.439 334.483H152.033C152.001 334.194 151.969 333.906 151.953 333.617H177.311L177.439 334.483Z" fill="white"/>
<path d="M178.255 340.012H152.785L152.657 339.146H178.127L178.255 340.012Z" fill="white"/>
<path d="M179.055 345.54H153.537L153.409 344.658H178.927L179.055 345.54Z" fill="white"/>
<path d="M179.871 351.053H154.29L154.162 350.188H179.743L179.871 351.053Z" fill="white"/>
<path d="M180.672 356.582H155.026L154.914 355.717H180.544L180.672 356.582Z" fill="white"/>
<path d="M181.488 362.112H155.778L155.666 361.23H181.36L181.488 362.112Z" fill="white"/>
<path d="M182.305 367.625H157.363C157.219 367.337 157.091 367.048 156.979 366.76H182.16L182.208 367.048C182.24 367.241 182.272 367.433 182.305 367.625Z" fill="white"/>
<path d="M185.17 373.154H161.589C161.269 372.882 160.949 372.578 160.661 372.289H184.433C184.657 372.594 184.914 372.882 185.17 373.154Z" fill="white"/>
<path d="M206.014 110.976V137.965C204.846 134.904 195.593 135.337 185.411 139.199C176.687 142.516 170.139 147.068 169.179 150.225V112.242C169.179 100.944 175.214 90.8471 184.483 85.334C196.521 87.4335 206.014 97.9308 206.014 110.976Z" fill="#FFCF2D"/>
<path d="M168.474 86.5527C160.277 92.2582 155.059 101.73 155.059 112.243V143.575H109.482L115.774 116.458C118.447 104.903 126.804 95.6878 137.689 91.7613L168.474 86.5527Z" fill="#FFCF2D"/>
<path d="M260.651 220.661V283.565C260.651 279.286 248.084 275.824 233.228 275.824C218.372 275.824 206.334 279.286 206.334 283.565V253.419C206.334 252.009 205.181 250.855 203.772 250.855H122.065C97.4916 250.855 79.3219 227.953 84.8768 203.994L104.599 118.925C107.737 105.351 118.719 95.0135 132.438 92.6736L137.689 91.7761C126.803 95.7026 118.447 104.918 115.773 116.473L109.482 143.59H155.058V112.242C155.058 101.729 160.293 92.2409 168.473 86.5515L175.677 85.3335C177.166 85.077 178.623 84.9648 180.08 84.9648C180.272 84.9648 180.448 84.9648 180.64 84.9648C180.816 84.9648 180.992 84.9809 181.152 84.9809C181.184 84.9809 181.216 84.9809 181.248 84.9809C181.376 84.9809 181.52 84.9969 181.648 84.9969C181.664 84.9969 181.696 84.9969 181.712 84.9969C181.792 84.9969 181.873 85.0129 181.937 85.0129C182.081 85.0289 182.209 85.0289 182.353 85.045C182.513 85.061 182.689 85.077 182.849 85.0931C183.009 85.1091 183.153 85.1251 183.313 85.1411C183.345 85.1411 183.377 85.1572 183.425 85.1572C183.585 85.1732 183.762 85.2052 183.922 85.2213C183.938 85.2213 183.954 85.2213 183.954 85.2213C184.13 85.2533 184.306 85.2694 184.482 85.3014C175.213 90.8145 169.178 100.911 169.178 112.21V189.217H229.274C246.595 189.249 260.651 203.304 260.651 220.661Z" fill="#FE5244"/>
<path fill-rule="evenodd" clip-rule="evenodd" d="M169.908 85.5716C170.06 85.7896 170.006 86.0892 169.788 86.2408C161.699 91.8713 155.522 101.91 155.522 112.242V144.054H108.861L115.289 116.348M169.908 85.5716C169.757 85.3536 169.458 85.2997 169.24 85.4513L169.908 85.5716ZM169.24 85.4513C160.936 91.2317 154.562 101.547 154.562 112.242L169.24 85.4513ZM154.562 112.242V143.093V112.242ZM154.562 143.093H110.071H154.562Z" fill="white"/>
<path fill-rule="evenodd" clip-rule="evenodd" d="M215.544 219.012C215.747 219.183 215.773 219.487 215.601 219.689C209.928 226.414 206.814 234.942 206.814 243.756C206.814 244.021 206.599 244.236 206.334 244.236C206.069 244.236 205.854 244.021 205.854 243.756C205.854 234.715 209.047 225.967 214.868 219.069C215.039 218.866 215.342 218.841 215.544 219.012Z" fill="white"/>
<path d="M139.754 240.566C139.674 240.566 139.594 240.55 139.53 240.502L137.417 239.348C137.177 239.219 137.097 238.931 137.225 238.691C137.353 238.45 137.641 238.37 137.881 238.498L139.994 239.652C140.235 239.78 140.315 240.069 140.187 240.309C140.09 240.47 139.93 240.566 139.754 240.566ZM141.867 240.021C141.691 240.021 141.531 239.925 141.451 239.764C141.323 239.524 141.403 239.235 141.643 239.107L143.756 237.953C143.997 237.825 144.285 237.921 144.413 238.146C144.541 238.386 144.461 238.675 144.221 238.803L142.108 239.957C142.028 239.989 141.947 240.021 141.867 240.021ZM135.528 238.274C135.448 238.274 135.368 238.258 135.304 238.21L133.191 237.056C132.951 236.928 132.871 236.639 132.999 236.399C133.127 236.158 133.415 236.078 133.655 236.206L135.768 237.36C136.008 237.489 136.088 237.777 135.96 238.017C135.864 238.178 135.704 238.274 135.528 238.274ZM146.078 237.713C145.902 237.713 145.742 237.617 145.661 237.457C145.533 237.216 145.613 236.928 145.854 236.799L147.967 235.646C148.335 235.453 148.671 235.229 149.007 234.988C149.215 234.828 149.52 234.876 149.68 235.085C149.84 235.293 149.792 235.597 149.584 235.758C149.215 236.03 148.831 236.271 148.431 236.495L146.318 237.649C146.238 237.697 146.158 237.713 146.078 237.713ZM131.35 235.902C131.254 235.902 131.158 235.87 131.062 235.806C130.389 235.309 129.765 234.732 129.237 234.075C129.061 233.867 129.093 233.562 129.301 233.402C129.509 233.226 129.813 233.258 129.973 233.466C130.453 234.059 131.014 234.572 131.622 235.02C131.83 235.181 131.878 235.485 131.734 235.694C131.654 235.838 131.51 235.902 131.35 235.902ZM151.024 234.219C150.912 234.219 150.816 234.187 150.72 234.107C150.512 233.947 150.48 233.642 150.656 233.434C151.136 232.841 151.537 232.2 151.857 231.495C151.969 231.254 152.257 231.142 152.497 231.254C152.737 231.366 152.849 231.655 152.737 231.895C152.385 232.665 151.937 233.386 151.409 234.027C151.296 234.155 151.168 234.219 151.024 234.219ZM128.34 232.232C128.164 232.232 127.988 232.136 127.908 231.959C127.556 231.19 127.3 230.389 127.14 229.555C127.092 229.299 127.268 229.043 127.524 228.995C127.78 228.946 128.036 229.123 128.084 229.379C128.228 230.132 128.452 230.854 128.772 231.543C128.885 231.783 128.772 232.072 128.532 232.184C128.468 232.216 128.404 232.232 128.34 232.232ZM153.009 229.892C152.977 229.892 152.945 229.892 152.929 229.892C152.673 229.844 152.497 229.588 152.545 229.331C152.641 228.802 152.689 228.273 152.689 227.744V227.023C152.689 226.751 152.897 226.542 153.169 226.542C153.442 226.542 153.65 226.751 153.65 227.023V227.744C153.65 228.337 153.602 228.93 153.49 229.507C153.442 229.732 153.234 229.892 153.009 229.892ZM127.46 227.552C127.188 227.552 126.979 227.344 126.979 227.071V224.667C126.979 224.395 127.188 224.187 127.46 224.187C127.732 224.187 127.94 224.395 127.94 224.667V227.071C127.94 227.328 127.716 227.552 127.46 227.552ZM153.153 225.1C152.881 225.1 152.673 224.892 152.673 224.619V222.215C152.673 221.943 152.881 221.735 153.153 221.735C153.426 221.735 153.634 221.943 153.634 222.215V224.619C153.634 224.892 153.426 225.1 153.153 225.1ZM127.46 222.744C127.188 222.744 126.979 222.536 126.979 222.263V219.859C126.979 219.587 127.188 219.379 127.46 219.379C127.732 219.379 127.94 219.587 127.94 219.859V222.263C127.94 222.52 127.716 222.744 127.46 222.744ZM153.153 220.292C152.881 220.292 152.673 220.084 152.673 219.811V217.407C152.673 217.135 152.881 216.927 153.153 216.927C153.426 216.927 153.634 217.135 153.634 217.407V219.811C153.634 220.084 153.426 220.292 153.153 220.292ZM127.46 217.936C127.188 217.936 126.979 217.728 126.979 217.455V215.051C126.979 214.779 127.188 214.571 127.46 214.571C127.732 214.571 127.94 214.779 127.94 215.051V217.455C127.94 217.712 127.716 217.936 127.46 217.936ZM153.153 215.484C152.881 215.484 152.673 215.276 152.673 215.003V212.599C152.673 212.327 152.881 212.119 153.153 212.119C153.426 212.119 153.634 212.327 153.634 212.599V215.003C153.634 215.276 153.426 215.484 153.153 215.484ZM127.46 213.128C127.188 213.128 126.979 212.92 126.979 212.648V210.58H128.276C128.548 210.58 128.756 210.788 128.756 211.061C128.756 211.333 128.548 211.542 128.276 211.542H127.94V212.648C127.94 212.904 127.716 213.128 127.46 213.128ZM152.289 211.542H149.888C149.616 211.542 149.407 211.333 149.407 211.061C149.407 210.788 149.616 210.58 149.888 210.58H152.289C152.561 210.58 152.769 210.788 152.769 211.061C152.769 211.333 152.561 211.542 152.289 211.542ZM147.486 211.542H145.085C144.813 211.542 144.605 211.333 144.605 211.061C144.605 210.788 144.813 210.58 145.085 210.58H147.486C147.759 210.58 147.967 210.788 147.967 211.061C147.967 211.333 147.759 211.542 147.486 211.542ZM142.684 211.542H140.283C140.01 211.542 139.802 211.333 139.802 211.061C139.802 210.788 140.01 210.58 140.283 210.58H142.684C142.956 210.58 143.164 210.788 143.164 211.061C143.164 211.333 142.956 211.542 142.684 211.542ZM137.881 211.542H135.48C135.208 211.542 135 211.333 135 211.061C135 210.788 135.208 210.58 135.48 210.58H137.881C138.153 210.58 138.362 210.788 138.362 211.061C138.362 211.333 138.153 211.542 137.881 211.542ZM133.079 211.542H130.677C130.405 211.542 130.197 211.333 130.197 211.061C130.197 210.788 130.405 210.58 130.677 210.58H133.079C133.351 210.58 133.559 210.788 133.559 211.061C133.559 211.333 133.351 211.542 133.079 211.542Z" fill="white"/>
<path d="M94.4503 237.905C94.2742 237.905 94.1142 237.809 94.0341 237.649C93.9061 237.408 93.9861 237.12 94.2262 236.992L96.1793 235.918C96.2273 235.886 96.2753 235.87 96.3233 235.838C96.5475 235.71 96.8516 235.79 96.9797 236.014C97.1078 236.238 97.0277 236.543 96.8036 236.671C96.7556 236.703 96.7075 236.735 96.6435 236.751L94.6905 237.825C94.6104 237.889 94.5304 237.905 94.4503 237.905ZM98.5005 235.341C98.3724 235.341 98.2444 235.293 98.1483 235.181C97.9722 234.988 97.9882 234.684 98.1803 234.508C98.7406 233.995 99.2369 233.402 99.6691 232.777C99.8132 232.552 100.117 232.504 100.341 232.649C100.566 232.793 100.614 233.097 100.47 233.322C100.005 234.011 99.445 234.652 98.8367 235.229C98.7246 235.309 98.6126 235.341 98.5005 235.341ZM101.174 231.398C101.11 231.398 101.062 231.382 100.998 231.366C100.758 231.27 100.63 230.998 100.726 230.741C100.998 230.02 101.19 229.283 101.302 228.53C101.334 228.273 101.574 228.081 101.846 228.113C102.102 228.145 102.295 228.386 102.263 228.658C102.15 229.491 101.942 230.309 101.638 231.094C101.542 231.286 101.366 231.398 101.174 231.398ZM101.862 226.687C101.59 226.687 101.382 226.478 101.382 226.206V223.802C101.382 223.529 101.59 223.321 101.862 223.321C102.134 223.321 102.343 223.529 102.343 223.802V226.206C102.343 226.462 102.134 226.687 101.862 226.687ZM101.862 221.879C101.59 221.879 101.382 221.67 101.382 221.398V218.994C101.382 218.722 101.59 218.513 101.862 218.513C102.134 218.513 102.343 218.722 102.343 218.994V221.398C102.343 221.654 102.134 221.879 101.862 221.879ZM101.862 217.071C101.59 217.071 101.382 216.862 101.382 216.59V214.186C101.382 213.914 101.59 213.705 101.862 213.705C102.134 213.705 102.343 213.914 102.343 214.186V216.59C102.343 216.846 102.134 217.071 101.862 217.071ZM101.862 212.263C101.59 212.263 101.382 212.055 101.382 211.782V211.542H100.181C99.9093 211.542 99.7012 211.333 99.7012 211.061C99.7012 210.788 99.9093 210.58 100.181 210.58H102.343V211.782C102.343 212.038 102.134 212.263 101.862 212.263ZM97.7801 211.542H95.3788C95.1067 211.542 94.8986 211.333 94.8986 211.061C94.8986 210.788 95.1067 210.58 95.3788 210.58H97.7801C98.0523 210.58 98.2604 210.788 98.2604 211.061C98.2604 211.333 98.0363 211.542 97.7801 211.542ZM92.9776 211.542H90.5763C90.3041 211.542 90.096 211.333 90.096 211.061C90.096 210.788 90.3041 210.58 90.5763 210.58H92.9776C93.2497 210.58 93.4578 210.788 93.4578 211.061C93.4578 211.333 93.2337 211.542 92.9776 211.542ZM88.175 211.542H85.7737C85.5016 211.542 85.2935 211.333 85.2935 211.061C85.2935 210.788 85.5016 210.58 85.7737 210.58H88.175C88.4471 210.58 88.6553 210.788 88.6553 211.061C88.6553 211.333 88.4311 211.542 88.175 211.542Z" fill="white"/>
<path d="M206.013 137.966C207.182 141.027 199.786 146.46 189.62 150.323C179.455 154.185 170.346 154.778 169.177 151.701C168.009 148.624 175.228 143.079 185.41 139.216C195.591 135.354 204.844 134.889 206.013 137.966Z" fill="#FE5244"/>
<path d="M211.695 237.393V239.092C211.167 238.964 210.607 238.9 210.046 238.9H207.981C204.924 238.9 202.314 236.944 201.322 234.22L207.181 233.434C209.566 233.114 211.695 234.973 211.695 237.393Z" fill="#73325A"/>
<path d="M217.107 245.967V259.012C217.107 262.057 214.642 264.525 211.6 264.525H205.469C203.948 264.525 202.571 263.916 201.579 262.907C200.586 261.913 199.962 260.535 199.962 259.012H203.948C205.261 259.012 206.317 257.954 206.317 256.64V253.227C206.317 251.912 205.261 250.855 203.948 250.855H183.569C175.613 250.855 169.162 244.396 169.162 236.431V150.241C170.122 147.083 176.67 142.516 185.394 139.214C191.349 136.955 197 135.865 200.891 135.961V231.831C200.891 235.742 204.06 238.915 207.966 238.915H210.031C213.938 238.899 217.107 242.056 217.107 245.967Z" fill="#A0505A"/>
<path d="M200.891 135.945V144.664C197.993 146.619 194.071 148.622 189.605 150.305C179.423 154.167 170.33 154.76 169.162 151.683V150.225C170.122 147.068 176.67 142.5 185.394 139.199C191.365 136.939 197.001 135.849 200.891 135.945Z" fill="#73325A"/>
<path d="M174.268 71.0215L168.249 86.5511L137.225 92.1123L145.325 71.0215H174.268Z" fill="#A0505A"/>
<path d="M174.269 71.0215L171.019 79.4194L140.251 84.2273L145.326 71.0215H174.269Z" fill="#73325A"/>
<path d="M192.455 39.4189C192.455 41.5183 188.821 43.8422 184.627 45.7974C178.912 48.4738 172.172 50.5092 172.172 50.5092L167.626 59.0834C173.805 62.3688 176.222 68.2665 177.183 72.3853C177.791 75.0137 177.791 76.8888 177.791 76.8888H134.216C134.216 76.8888 122.77 39.7715 150.352 30.8928C167.225 25.4598 192.455 34.4346 192.455 39.4189Z" fill="white"/>
<path fill-rule="evenodd" clip-rule="evenodd" d="M177.61 31.7131C169.237 29.5371 158.814 28.6715 150.499 31.3489C143.716 33.5322 139.353 37.4406 136.607 42.0693C133.853 46.7093 132.71 52.098 132.419 57.2458C132.129 62.3914 132.692 67.2692 133.33 70.8648C133.649 72.6613 133.986 74.1348 134.243 75.1578C134.371 75.6692 134.48 76.0679 134.555 76.3378C134.562 76.3617 134.569 76.3845 134.575 76.4064H177.293C177.282 76.212 177.264 75.9629 177.236 75.6668C177.162 74.8869 177.013 73.7825 176.714 72.4926C175.768 68.4348 173.402 62.6978 167.4 59.5064L166.976 59.2809L171.841 50.1052L172.033 50.0473L172.079 50.2029C172.033 50.0473 172.033 50.0473 172.033 50.0473L172.033 50.0472L172.034 50.047L172.051 50.0416C172.064 50.0378 172.083 50.032 172.108 50.0244C172.158 50.009 172.232 49.986 172.329 49.9558C172.523 49.8954 172.807 49.8059 173.166 49.6901C173.884 49.4585 174.901 49.1218 176.096 48.7017C178.488 47.8608 181.585 46.6889 184.422 45.3603L184.423 45.3599C186.508 44.3879 188.43 43.335 189.823 42.2775C190.519 41.7486 191.067 41.2312 191.436 40.7367C191.807 40.2404 191.974 39.8011 191.974 39.4173C191.974 38.9909 191.695 38.4236 191 37.7398C190.32 37.07 189.31 36.3563 188.016 35.6389C185.431 34.2062 181.79 32.7998 177.61 31.7131ZM177.79 76.8872L178.271 76.8872L178.27 77.368H133.861L133.756 77.029L134.215 76.8872C133.756 77.029 133.756 77.0287 133.756 77.0282L133.754 77.0209L133.747 76.9993C133.741 76.9805 133.733 76.9529 133.722 76.9167C133.701 76.8443 133.67 76.7376 133.631 76.5985C133.553 76.3204 133.442 75.913 133.311 75.3921C133.05 74.3506 132.708 72.8549 132.385 71.033C131.739 67.3916 131.164 62.4351 131.46 57.1916C131.756 51.9502 132.923 46.3948 135.781 41.5782C138.646 36.7503 143.196 32.6895 150.205 30.4335C158.763 27.6779 169.39 28.5832 177.851 30.7824C182.087 31.8833 185.808 33.3157 188.481 34.7977C189.816 35.5378 190.908 36.3005 191.674 37.0543C192.425 37.7941 192.934 38.5975 192.934 39.4173C192.934 40.0831 192.647 40.7216 192.205 41.3127C191.762 41.9054 191.139 42.4848 190.403 43.0437C188.93 44.1618 186.938 45.2484 184.829 46.2317C181.951 47.5793 178.821 48.7632 176.415 49.609C175.21 50.0323 174.185 50.3717 173.461 50.6054C173.099 50.7222 172.812 50.8127 172.615 50.874C172.573 50.8869 172.536 50.8986 172.502 50.9089L168.271 58.8881C174.316 62.3068 176.697 68.1882 177.65 72.2744L177.65 72.2752C177.96 73.6135 178.115 74.7607 178.192 75.5754C178.231 75.9829 178.251 76.3076 178.261 76.532C178.265 76.6443 178.268 76.7314 178.269 76.7913C178.27 76.8213 178.27 76.8444 178.27 76.8605C178.27 76.8685 178.27 76.8748 178.27 76.8793L178.271 76.8862V76.887C178.271 76.8871 178.271 76.8872 177.79 76.8872Z" fill="#FFCF2D"/>
<path d="M146.317 36.1803C152.303 36.1803 157.155 31.3226 157.155 25.3304C157.155 19.3381 152.303 14.4805 146.317 14.4805C140.332 14.4805 135.479 19.3381 135.479 25.3304C135.479 31.3226 140.332 36.1803 146.317 36.1803Z" fill="white"/>
<path fill-rule="evenodd" clip-rule="evenodd" d="M146.318 14.9616C140.597 14.9616 135.96 19.604 135.96 25.3307C135.96 31.0574 140.597 35.6999 146.318 35.6999C152.038 35.6999 156.675 31.0574 156.675 25.3307C156.675 19.604 152.038 14.9616 146.318 14.9616ZM135 25.3307C135 19.0729 140.067 14 146.318 14C152.568 14 157.636 19.0729 157.636 25.3307C157.636 31.5885 152.568 36.6615 146.318 36.6615C140.067 36.6615 135 31.5885 135 25.3307Z" fill="#FFCF2D"/>
<path d="M177.166 72.3837C176.269 68.4892 174.028 62.9441 168.505 59.5945H167.081C165.768 59.5945 164.567 59.0657 163.703 58.2002C162.838 57.3348 162.31 56.1328 162.31 54.8187C162.31 52.1743 164.439 50.0428 167.081 50.0428L173.116 50.171H173.276C173.388 50.1389 173.5 50.0908 173.628 50.0588C175.261 49.7062 180.432 48.4561 184.722 46.3086L185.218 49.2735L186.819 58.7772C187.908 65.3 183.441 71.3099 177.166 72.3837Z" fill="#A0505A"/>
<path d="M185.203 49.2579C179.952 51.3894 173.1 50.1554 173.1 50.1554C173.1 50.1554 179.552 48.8732 184.706 46.293L185.203 49.2579Z" fill="#73325A"/>
<path fill-rule="evenodd" clip-rule="evenodd" d="M167.097 52.4319C167.097 52.2106 167.276 52.0312 167.497 52.0312C169.543 52.0312 171.195 53.6851 171.195 55.7334C171.195 55.9547 171.016 56.134 170.795 56.134C170.574 56.134 170.394 55.9547 170.394 55.7334C170.394 54.1276 169.101 52.8326 167.497 52.8326C167.276 52.8326 167.097 52.6532 167.097 52.4319Z" fill="#73325A"/>
<path fill-rule="evenodd" clip-rule="evenodd" d="M205.858 413.92L187.272 259.072L188.226 258.957L206.812 413.805L205.858 413.92Z" fill="#66B0F0"/>
<path fill-rule="evenodd" clip-rule="evenodd" d="M88.1309 413.805L106.701 258.957L107.654 259.072L89.0845 413.919L88.1309 413.805Z" fill="#66B0F0"/>
<path fill-rule="evenodd" clip-rule="evenodd" d="M199.947 361.167H94.979V360.205H199.947V361.167Z" fill="#66B0F0"/>
<path d="M91.0251 259.013H203.901C205.246 259.013 206.335 257.923 206.335 256.577V253.276C206.335 251.93 205.246 250.84 203.901 250.84H91.0251C89.6804 250.84 88.5918 251.93 88.5918 253.276V256.577C88.6078 257.923 89.6964 259.013 91.0251 259.013Z" fill="white"/>
<path fill-rule="evenodd" clip-rule="evenodd" d="M88.1108 253.276C88.1108 251.664 89.4144 250.359 91.0244 250.359H203.901C205.511 250.359 206.814 251.664 206.814 253.276V256.578C206.814 258.189 205.511 259.494 203.901 259.494H91.0244C89.4273 259.494 88.1299 258.187 88.1109 256.583L88.1108 256.58V253.276ZM91.0244 251.321C89.9449 251.321 89.0714 252.195 89.0714 253.276V256.575C89.0857 257.662 89.9649 258.533 91.0244 258.533H203.901C204.98 258.533 205.854 257.658 205.854 256.578V253.276C205.854 252.195 204.98 251.321 203.901 251.321H91.0244Z" fill="#FFCF2D"/>
</svg>
